<?xml version="1.0" encoding="UTF-8" standalone="no"?>
<svg width="12px" height="9px" viewBox="0 0 12 9" version="1.1" xmlns="http://www.w3.org/2000/svg" xmlns:xlink="http://www.w3.org/1999/xlink" xmlns:sketch="http://www.bohemiancoding.com/sketch/ns">
    <!-- Generator: Sketch 3.4.1 (15681) - http://www.bohemiancoding.com/sketch -->
    <title>Imported Layers</title>
    <desc>Created with Sketch.</desc>
    <defs></defs>
    <g id="Page-1" stroke="none" stroke-width="1" fill="none" fill-rule="evenodd" sketch:type="MSPage">
        <g id="COMMUNITY-DETAIL" sketch:type="MSArtboardGroup" transform="translate(-547.000000, -1341.000000)" fill="#707070">
            <g id="Imported-Layers-+-SEE-ALL-COMMUNITY-LI" sketch:type="MSLayerGroup" transform="translate(290.000000, 1336.000000)">
                <path d="M268.55,9.142475 L264.34475,5.105435 C264.198125,4.964855 263.96075,4.964855 263.8145,5.105435 C263.667875,5.246015 263.667875,5.473895 263.8145,5.614475 L267.376625,9.034115 L257.375,9.034115 C257.168,9.034115 257,9.195575 257,9.394115 C257,9.593195 257.168,9.754115 257.375,9.754115 L267.381312,9.754115 L263.8145,13.173755 C263.668063,13.314335 263.667875,13.542215 263.814313,13.682795 C263.887437,13.753175 263.983437,13.788455 264.079625,13.788455 C264.175437,13.788455 264.271437,13.753535 264.344562,13.683155 L268.549812,9.651695 C268.620125,9.584195 268.659875,9.492575 268.659875,9.396995 C268.659875,9.301775 268.620313,9.209975 268.55,9.142475" id="Imported-Layers" sketch:type="MSShapeGroup"></path>
            </g>
        </g>
    </g>
</svg>