<?xml version="1.0" encoding="UTF-8" standalone="no"?>
<svg width="549px" height="265px" viewBox="0 0 549 265" version="1.1" xmlns="http://www.w3.org/2000/svg" xmlns:xlink="http://www.w3.org/1999/xlink" xmlns:sketch="http://www.bohemiancoding.com/sketch/ns">
    <!-- Generator: Sketch 3.4.1 (15681) - http://www.bohemiancoding.com/sketch -->
    <title>flourish</title>
    <desc>Created with Sketch.</desc>
    <defs></defs>
    <g id="Page-1" stroke="none" stroke-width="1" fill="none" fill-rule="evenodd" sketch:type="MSPage">
        <g id="NEIGHBORHOOD-RESULTS-" sketch:type="MSArtboardGroup" transform="translate(0.000000, -254.000000)" fill="#FFFFFF">
            <g id="flourish" sketch:type="MSLayerGroup" transform="translate(264.256620, 376.000000) rotate(-195.000000) translate(-264.256620, -376.000000) translate(-38.243380, 258.000000)">
                <path d="M413.055182,0.0251733333 C413.191569,-0.101742222 415.896584,1.14538667 416.694275,1.24083556 C418.961801,1.5138963 420.134032,2.09847704 421.546514,2.45230222 C427.437046,3.92564148 435.034867,12.4849244 438.521136,16.9972444 C440.198699,19.165997 440.051121,19.8614104 440.944633,21.8511526 C441.564671,23.225197 442.769425,23.0790519 443.36778,25.485203 C444.44454,29.7793541 446.140988,35.3514015 449.43037,37.6079111 C453.993049,37.5925274 458.489983,33.5966104 463.981844,32.754003 C470.101786,31.8211911 486.319633,32.4683556 489.447798,33.9693156 C489.598173,34.0416889 491.108925,35.2723852 490.658147,35.1807822 C491.209991,35.2926637 492.45846,34.1525215 491.871295,33.9693156 C494.108746,34.6769659 495.469471,36.086323 496.720737,36.3922489 C498.799769,36.9124978 502.673867,39.1494281 502.783327,41.2419615 C502.857116,42.6446756 503.548145,41.778643 503.996124,42.4548267 C505.520864,44.7532919 505.862532,45.0676089 506.419621,47.3045393 C506.646584,48.2058844 507.536948,48.241197 507.635566,48.5160059 C510.900468,57.751123 507.660046,66.0957333 503.996124,71.5492563 C505.160312,78.774003 501.747832,81.4193007 499.143884,84.8827319 C492.51861,87.6115911 486.753974,83.7478341 479.746116,86.0941985 C480.978147,78.5047881 473.035861,72.1964207 476.107023,69.1221274 C478.24061,66.992883 474.820087,60.1806993 477.322618,59.4268978 C480.062954,58.1280237 482.652913,56.6735644 484.595558,54.5771852 C488.278364,53.8177896 495.040376,56.1298904 496.720737,53.3657185 C495.67685,49.1589748 492.939312,46.6409422 490.658147,43.6687407 C481.12013,45.107117 473.563225,41.5370489 466.407789,42.4548267 C462.041997,43.0173807 457.337335,46.4699733 454.28261,47.3045393 C450.783052,48.2576296 448.884121,49.1156207 445.796873,49.7313185 C441.895147,56.4400119 434.592483,62.9382281 432.458546,70.3377896 C430.128072,78.4093393 432.117228,87.1867911 430.032251,97.0064889 C432.261659,99.3692859 437.696168,102.959633 439.734283,103.067668 C441.062136,103.138643 440.357118,104.00048 440.944633,104.279135 C443.179286,105.334667 444.425306,104.711976 447.007223,105.490601 C447.441564,105.625559 448.848451,107.642921 449.43037,107.913185 C450.608197,108.461055 451.06422,108.61664 451.859462,109.128847 C454.370038,110.752527 458.312679,110.506738 460.345199,111.551781 C461.473717,112.132166 463.028182,114.550904 463.981844,115.190027 C464.175584,115.316942 464.957188,115.173594 465.197439,115.190027 C467.588064,115.316942 468.000723,118.71779 470.044434,118.828273 C471.443277,118.899247 472.557806,120.607887 473.683526,121.251206 C477.42928,123.38045 479.557621,125.469837 482.169263,127.312385 C485.721277,129.811538 489.185514,130.990489 491.871295,133.373564 C493.980402,135.244433 494.800124,138.120836 496.720737,138.22048 C500.228688,138.406133 502.31891,144.798062 506.419621,143.070193 C509.908688,140.793404 507.422243,138.187615 507.635566,135.796498 C508.001714,131.69779 509.176393,126.009316 510.059064,123.674139 C511.170795,120.730957 512.736451,119.535923 513.698156,117.61296 C514.33463,116.337161 514.44409,114.975704 514.911303,113.974714 C518.700422,105.792332 519.21135,103.130601 524.60739,100.644735 C528.812315,98.7056889 529.664561,98.9280533 533.098723,99.4294222 C537.587613,100.084978 539.188939,99.7391941 541.584809,100.644735 C545.409948,102.081713 549.999905,105.295159 550.070896,106.705914 C550.141887,108.032059 551.007772,107.328954 551.283694,107.913185 C553.953038,113.545719 551.975072,121.409588 548.857749,126.096723 C546.527275,129.612249 541.661396,133.818643 536.732569,133.373564 C531.484107,124.214667 542.327945,123.571698 541.584809,115.190027 C539.67224,110.637849 533.836613,110.007117 528.246483,109.128847 C525.855858,110.956361 524.878066,111.698975 523.39704,113.974714 C521.21974,117.327313 520.115702,122.256391 519.760746,123.674139 C519.577497,124.389831 520.047509,125.430329 519.760746,126.096723 C519.512101,126.681304 517.561413,127.773896 517.334451,128.523852 C515.216951,135.566791 517.572254,142.80797 518.544801,146.708439 C520.495488,154.501333 523.257855,157.631917 528.246483,161.25373 C532.801118,164.562975 539.396318,167.088 545.218656,168.526376 C545.573613,170.195159 547.838691,169.956361 548.857749,170.94896 C549.732026,171.804154 548.986092,176.11299 552.496841,174.587556 C559.332642,174.674963 565.731303,172.792907 570.687408,170.94896 C574.102335,169.681553 585.115434,164.752824 585.235734,162.465197 C585.306725,161.062483 585.798769,161.917327 586.446084,161.25373 C591.79841,155.771538 595.15074,146.315105 604.63665,146.708439 C605.890714,153.213647 600.563217,153.138477 599.78441,157.61933 C598.112442,160.185612 596.08237,162.444569 594.937416,163.68051 C594.131682,164.538501 594.541543,166.43664 593.721821,167.31491 C593.063315,168.018364 590.547145,168.574276 588.875176,169.741689 C588.314939,170.131176 588.251991,171.719194 587.659231,172.164622 C586.74124,172.85584 584.850702,172.876119 584.022936,173.376089 C581.982023,174.607834 579.290647,176.94336 577.959997,177.010489 C576.75804,177.074471 577.173147,178.083852 576.749997,178.225801 C571.321084,180.034086 565.731303,180.704676 559.772578,181.864047 C554.499636,182.889861 549.160948,184.236284 545.218656,184.286981 C535.795344,184.407253 525.490061,181.320723 516.121303,179.437268 C505.851341,177.372356 495.810789,176.192356 488.232202,172.164622 C483.377165,172.497819 479.352691,171.887366 477.322618,170.94896 C474.314754,169.566874 471.54959,167.716284 468.836882,166.103443 C465.110012,163.886791 461.462876,161.324705 457.922052,158.826951 C455.036936,156.801197 452.547694,154.223028 450.646315,152.769618 C445.82415,149.083822 439.38737,147.220646 436.095191,144.281659 C431.076139,139.808847 429.313945,131.554092 421.546514,132.157902 C422.308884,129.100041 418.008488,129.298281 416.694275,128.523852 C414.478506,127.216936 412.967754,125.743247 410.631685,124.889452 C408.582728,124.13565 405.967939,124.373399 403.355948,123.674139 C401.020228,123.051099 398.24702,121.942074 396.083009,121.251206 C391.077945,119.646406 386.321176,117.262981 381.534682,116.401493 C379.324509,116.00816 378.797145,117.644077 376.682442,117.61296 C376.655165,117.61296 375.343749,116.532604 374.256147,116.401493 C368.499905,115.710276 365.557436,114.394969 360.918171,113.974714 C355.049321,113.441879 348.292905,114.371893 341.517254,113.974714 C329.154621,120.143579 322.84059,135.51085 319.695988,150.342839 C318.149566,157.623526 319.245211,160.471259 319.695988,167.31491 C319.892526,170.376966 319.193104,175.14067 319.695988,178.225801 C320.400656,182.587781 324.212156,186.813404 323.329486,191.561025 C329.110908,194.825167 329.943919,204.099793 333.031517,207.317434 C333.799133,208.119135 333.482295,208.80336 334.244315,209.744213 C336.093936,212.027644 339.807168,213.307639 342.733199,215.805393 C346.088327,218.669559 347.855766,221.743852 351.218936,223.078039 C356.191477,225.052747 364.406887,225.286299 369.409503,224.289505 C375.526647,223.069647 376.548503,222.156065 379.105939,220.655105 C379.70954,220.30163 380.889815,220.942151 381.534682,220.655105 C381.922512,220.476444 382.296702,218.525861 382.745032,218.228326 C383.302471,217.859467 384.548142,218.511176 385.168529,218.228326 C385.54272,218.057707 385.963422,216.107473 386.381327,215.805393 C390.181636,213.072687 393.383939,211.30531 396.083009,208.532747 C401.588509,202.861055 404.689396,193.630133 403.355948,184.286981 C402.659324,179.386572 396.670523,168.32429 393.659861,166.103443 C389.18461,162.806436 377.02411,158.918204 374.256147,168.526376 C379.392702,173.436225 386.591853,175.180178 386.381327,183.071319 C386.201225,189.840148 379.523844,192.120782 374.256147,196.410738 C368.128162,194.86048 359.319642,195.988735 356.065931,191.561025 C357.087786,182.944403 356.762555,174.568326 359.707821,168.526376 C361.795246,164.236421 371.955749,155.128219 377.89559,152.769618 C380.384483,151.780865 389.60811,151.724924 392.443916,152.769618 C393.826324,153.27763 395.503887,155.994252 397.293708,157.61933 C401.995572,161.877819 406.178465,166.560759 408.208188,170.94896 C409.563318,173.881304 411.410142,178.225801 411.84763,183.071319 C412.705471,192.751864 411.128974,194.995787 409.421335,200.048984 C408.172867,203.730933 408.271136,206.613979 406.992592,208.532747 C405.566471,210.673179 398.962879,214.975022 393.659861,219.439793 C391.36191,221.370797 389.995939,223.760865 387.597272,225.500972 C384.652006,227.638258 380.712162,229.648628 377.89559,230.350684 C377.081462,230.554169 376.846457,231.51565 376.682442,231.562151 C371.824607,233.039686 357.363708,234.069695 354.855581,231.562151 C353.615156,230.323413 348.090772,230.633185 347.579844,230.350684 C346.659055,229.838477 345.383309,228.00432 343.940751,227.927751 C341.530893,227.79664 341.399751,225.080367 340.306905,224.289505 C337.208815,222.041387 331.299399,218.987721 329.392075,217.016859 C328.463243,216.055378 328.996202,214.542181 328.181725,213.378613 C327.485101,212.385665 325.201139,212.01296 324.545431,210.95568 C323.496298,209.279905 323.234014,205.94339 322.119486,203.683384 C320.31078,200.02451 316.75352,195.563935 316.056896,192.772492 C315.665919,191.215241 315.10848,190.205861 314.843749,189.133896 C313.854766,185.177487 313.442107,186.980178 312.420251,183.071319 C308.972451,169.920699 309.518699,148.34051 312.420251,138.22048 C314.294353,131.674714 316.297147,126.450548 319.695988,123.674139 C320.072977,123.364018 319.433705,121.696284 319.695988,121.251206 C321.179462,118.720587 326.039746,116.501138 324.545431,111.551781 C318.903543,113.616693 313.551217,110.852521 308.781159,111.551781 C305.849532,111.980427 302.12546,114.070163 299.079477,115.190027 C295.623283,116.46163 291.984191,117.421713 289.380243,118.828273 C283.67296,121.906761 279.536578,128.182264 272.405621,128.523852 C269.837344,132.388658 263.758668,136.884895 259.067645,144.281659 C257.327133,147.025203 255.941928,150.628136 254.215405,153.981084 C251.701682,158.882892 248.808523,163.895182 248.152815,168.526376 C247.622653,172.303775 247.024298,177.01853 246.942465,178.225801 C246.841399,179.711727 248.160858,179.950524 248.152815,181.864047 C248.144422,183.568492 246.805728,184.092936 246.942465,186.709914 C247.016254,188.172415 247.915012,188.530086 248.152815,190.349559 C248.35215,191.82989 247.696442,193.78432 248.152815,195.195076 C248.256679,195.516036 250.373829,195.973701 250.581558,196.410738 C251.021494,197.339354 250.029714,199.182951 250.581558,200.048984 C251.351971,201.252059 254.920072,204.505363 256.644147,206.105967 C258.92811,208.231016 262.622107,208.970133 265.130234,209.744213 C269.886653,211.217902 270.474168,210.12531 273.621566,208.532747 C275.883847,207.380367 275.757951,207.770904 277.255064,206.105967 C278.85604,204.330548 281.104682,201.352053 280.891708,197.621855 C278.121298,194.329393 271.236538,195.155567 268.766529,191.561025 C265.744676,176.681138 278.205928,165.380759 288.169893,175.802868 C293.369396,175.445197 296.177925,177.487034 299.079477,179.437268 C299.273217,184.446761 298.899026,186.89277 297.866329,189.133896 C297.298049,190.364593 295.849896,190.694993 295.442832,191.561025 C294.467488,193.645167 294.041191,195.86147 293.016887,197.621855 C291.896413,199.547615 290.61787,200.43008 289.380243,202.471917 C286.46785,207.269535 283.579936,214.494281 279.684156,217.016859 C279.451948,217.168599 277.099442,218.280071 277.255064,218.228326 C271.602335,220.115627 268.788211,218.796474 262.706737,217.016859 C254.38991,214.581689 249.076052,211.869612 245.729318,207.317434 C244.966948,206.284978 244.529809,203.599822 243.305821,201.256255 C241.639448,198.063087 239.849627,197.204047 239.666728,193.987804 C239.60378,192.827034 238.508486,191.913102 238.456379,191.561025 C236.068552,175.882234 239.937055,162.354714 243.305821,152.769618 C246.223809,151.414803 247.073607,146.679769 248.152815,144.281659 C248.357396,143.840427 250.43398,143.661416 250.581558,143.070193 C251.070454,141.055627 250.004884,139.228462 249.36841,138.22048 C242.324882,141.686708 231.410402,141.282536 223.902457,144.281659 C216.219656,139.236504 206.788301,143.765606 198.444546,143.070193 C189.944821,142.362892 182.956197,136.655188 174.194188,138.22048 C169.19437,133.242453 162.552659,129.33779 156.003971,127.312385 C153.05311,126.398803 149.539564,126.979188 146.301939,126.096723 C146.017974,126.021553 146.048049,125.128599 145.09159,124.889452 C141.671066,124.03181 142.553737,123.284652 140.23935,122.462673 C134.185153,120.310003 125.846645,120.075401 120.841581,118.828273 C118.150205,118.153837 118.385211,115.23373 115.989341,117.61296 C116.377171,122.443443 116.057535,126.569422 113.565844,128.523852 C110.030616,128.679437 107.495211,131.062513 103.864162,130.950631 C96.9710087,130.728267 88.4002919,122.800065 88.1023382,117.61296 C87.911396,114.268053 90.9003757,111.241659 91.7389827,110.340314 C92.5968237,109.418341 92.1187688,107.707253 92.954578,106.705914 C95.2553266,103.929505 99.4983699,99.9210015 103.864162,100.644735 C109.615159,103.781961 108.967844,113.319159 115.989341,115.190027 C117.95087,113.514252 118.978321,110.900071 123.267526,111.551781 C128.035136,113.25203 137.507408,114.5072 140.23935,115.190027 C143.927751,116.112 145.900471,117.20739 147.517884,117.61296 C150.392159,118.331099 152.938405,119.488024 153.580474,117.61296 C154.208905,107.19085 150.356488,101.296095 151.154179,94.5835556 C151.293714,93.4227852 152.504064,92.3508207 153.580474,89.7296474 C154.550223,87.3696474 153.919344,85.6382815 154.788026,83.6716148 C155.40002,82.3014163 157.62663,81.8126341 158.427118,80.0330193 C159.476251,77.71008 158.820543,74.1742756 159.640266,72.760723 C160.437957,71.382483 163.019873,69.5990222 164.489708,67.9148563 C168.344922,63.4899437 171.563312,60.1341985 175.404538,56.9997689 C177.800757,55.0495348 180.14487,52.7017719 181.467127,52.1542519 C184.928916,50.7162252 192.084353,50.2627556 194.805454,50.9389393 C195.403809,51.0889304 196.130509,52.1773274 196.015803,52.1542519 C198.744948,52.6786963 201.829749,52.6377896 204.507136,53.3657185 C207.304824,54.1237156 211.730766,56.6896474 212.993223,56.9997689 C214.550486,57.3892563 215.558702,57.9451674 216.632315,58.2154311 C220.601884,59.2083793 225.776558,65.3569659 227.541549,67.9148563 C228.948436,69.9402607 229.44048,71.155923 229.965046,72.760723 C232.642434,80.9193304 230.235373,83.0636089 227.541549,88.5209778 C226.178376,91.2785067 225.661853,95.0520593 223.902457,97.0064889 C223.361454,97.6061037 220.891445,97.7330193 220.26861,98.2179556 C219.246754,99.0116148 218.820806,100.96989 217.839867,101.852356 C209.965775,101.962839 200.761382,104.791342 193.592306,101.852356 C186.322165,86.8371615 198.045526,68.8994133 209.35378,82.4601481 C212.870124,84.1999052 211.569549,90.7460207 215.41637,92.1567763 C218.711347,87.0763081 221.519876,85.1928533 220.26861,77.6100859 C219.511835,73.0267911 212.181543,66.5013037 208.140983,65.488077 C204.772217,64.6454696 205.460798,64.1496948 203.291191,63.0609481 C202.337879,62.584403 200.29137,61.9970252 199.654896,61.853677 C187.972451,59.1440474 182.726786,62.1637985 175.404538,69.1221274 C169.874908,74.3858015 166.243858,79.7669511 163.279358,86.0941985 C161.877717,89.08528 159.905347,92.7399585 159.640266,94.5835556 C158.530983,102.32051 161.082824,110.050821 163.279358,117.61296 C166.94328,120.953321 170.262737,124.774773 175.404538,127.312385 C179.920705,129.541274 184.204665,129.353873 189.953214,130.950631 C190.496665,131.10237 192.884491,133.119384 193.592306,133.373564 C197.403806,134.736421 199.138373,133.779135 200.868043,133.373564 C206.381237,132.07469 212.091668,134.8032 214.203223,132.157902 C214.853685,131.356201 215.662217,133.40608 215.41637,133.373564 C220.596639,134.016533 224.126621,132.126436 227.541549,134.585031 C233.136925,130.879656 243.915017,132.365582 249.36841,128.523852 C253.734202,127.796972 252.942107,132.222234 256.644147,132.157902 C258.436416,126.244267 266.985101,122.903556 269.982474,120.035544 C270.998734,119.067419 272.586072,118.597517 273.621566,117.61296 C276.61859,114.736557 280.74413,114.20547 282.107303,110.340314 C287.443194,110.697985 291.69463,106.673399 294.232483,105.490601 C295.967399,104.68051 297.28441,104.787147 299.079477,104.279135 C306.316746,102.233102 314.843749,101.136314 323.329486,100.644735 C324.949697,100.549286 327.717309,101.860397 329.392075,101.852356 C330.883942,101.84816 331.911043,100.851016 334.244315,100.644735 C339.747017,100.151757 340.318095,99.5168296 342.733199,98.2179556 C345.793171,96.5694519 347.675665,97.045997 350.003341,95.7911763 C350.656251,95.441197 351.612361,93.6304652 352.432084,93.368243 C354.967488,92.5567526 358.880055,92.7958993 362.131318,92.1567763 C365.267526,91.5407289 368.994046,90.0233363 371.833,89.7296474 C379.969026,88.8954311 390.536942,90.1191348 396.083009,90.9439111 C399.610194,91.4683556 402.804104,91.5994667 405.78504,92.1567763 C410.997832,93.1290963 415.740613,97.7959526 421.546514,94.5835556 C425.177564,85.5274489 422.202223,73.1701393 425.180012,64.2766104 C425.054465,64.6657481 426.349445,61.9096178 426.395957,61.853677 C428.29209,59.3188622 430.568009,57.6951822 431.242951,54.5771852 C433.540552,50.7242667 437.512919,50.1208059 438.521136,44.8774104 C438.780621,43.5351822 436.234376,31.9124444 436.095191,31.5467319 C434.13611,26.3431941 426.117237,18.169203 422.756864,14.5743111 C417.016708,8.42607407 417.628702,9.41482667 410.631685,10.9360652 C408.601613,11.3772978 404.569095,10.1616356 404.569095,13.3631941 C407.077223,19.590797 413.019512,21.3309037 410.631685,27.9081363 C410.694633,27.72528 409.552477,28.9255585 409.421335,29.119603 C408.533419,30.4579852 407.874913,31.4631704 406.992592,32.754003 C388.493231,33.4532622 393.206286,8.64459259 402.145948,2.45230222 C407.151012,3.45608889 412.238257,0.847502222 413.055182,0.0251733333 L413.055182,0.0251733333 Z M363.346913,103.067668 C369.423142,106.562566 377.116783,106.268877 383.958179,107.913185 C387.132855,108.675378 390.512462,110.661274 393.659861,111.551781 C397.473809,112.632136 401.129338,112.929671 404.569095,113.974714 C410.981396,115.928794 416.770861,120.071206 422.756864,118.828273 C425.040827,115.3568 419.754246,111.074886 419.117772,106.705914 C417.609468,106.356284 415.749006,107.154139 414.270777,106.705914 C413.62626,106.506625 412.309249,104.421084 411.84763,104.279135 C409.082465,103.428136 406.238266,103.854335 403.355948,103.067668 C399.462965,102.002347 397.67874,100.950661 391.230769,100.644735 C390.170795,100.59299 388.605488,100.946815 387.597272,100.644735 C386.233749,100.231123 378.474711,98.7969422 374.256147,99.4294222 C370.182714,100.041274 367.477699,103.440723 363.346913,103.067668 L363.346913,103.067668 Z M432.458546,112.767093 C432.158145,118.308024 435.747928,123.919929 437.305191,128.523852 C437.909142,130.295076 437.676934,131.654086 438.521136,133.373564 C438.789014,133.914092 440.7425,134.141001 440.944633,134.585031 C442.176665,137.313541 442.359564,137.842181 445.796873,140.647609 C447.206558,141.794744 448.343118,143.530305 449.43037,144.281659 C449.867509,144.58339 451.534231,143.888326 451.859462,144.281659 C452.331922,144.860646 453.706286,146.33853 454.28261,146.708439 C455.911214,147.749286 457.705931,148.261493 459.13485,149.131372 C462.121032,150.961333 464.637552,153.329724 467.620936,155.192551 C470.604321,157.055378 475.033061,156.999437 476.107023,161.25373 C482.658509,161.861387 489.641887,165.460124 496.720737,167.31491 C500.305275,168.255763 503.963601,168.823911 507.635566,169.741689 C510.853957,170.544788 514.755332,171.981416 517.334451,172.164622 C517.260662,172.156581 519.774384,170.984622 520.973543,170.94896 C520.894509,170.953156 521.227783,172.35587 522.183893,172.164622 C522.167457,172.164622 522.498283,170.226625 523.39704,170.94896 C524.782246,167.69181 520.580118,169.527366 519.760746,168.526376 C517.198064,165.396142 509.072529,162.687911 507.635566,156.404018 C505.149471,156.947692 505.037214,154.855159 503.996124,153.981084 C503.542899,153.599988 501.985636,154.393647 501.572977,153.981084 C501.206829,153.615022 501.974445,151.85184 501.572977,151.558501 C500.469289,150.740367 500.034948,151.192089 499.143884,150.342839 C498.493772,149.71875 495.974803,149.122981 494.294442,147.919905 C493.87374,147.618175 493.461431,145.663745 493.081645,145.496972 C490.786491,144.46067 487.341139,142.883141 484.595558,140.647609 C480.86624,137.604433 474.342032,133.271123 468.836882,129.734969 C466.793171,128.425606 463.662208,127.622507 461.558347,126.096723 C459.555552,124.652053 458.807171,122.454281 456.708905,121.251206 C453.755595,119.558999 448.441387,117.946157 444.583725,116.401493 C443.709448,116.051864 443.11389,115.643496 442.157431,115.190027 C439.884309,114.109671 437.750723,111.972385 432.458546,112.767093 L432.458546,112.767093 Z" id="Fill-1" sketch:type="MSShapeGroup"></path>
                <path d="M362.131318,59.4268978 C361.278723,58.4133215 358.68037,56.284077 358.494673,55.7924978 C355.484012,47.8712889 356.082367,38.6568 363.346913,36.3922489 C364.942645,35.8964741 366.043535,37.370163 366.98076,37.6079111 C372.392887,38.9585304 376.34637,39.9839941 380.318737,41.2419615 C383.479775,46.4741689 388.640809,50.3267378 391.230769,54.5771852 C392.206113,56.1735941 392.556173,58.9856652 393.659861,60.6383644 C394.367327,61.6980919 396.216948,62.8780919 397.293708,64.2766104 C399.801486,67.5173274 402.170428,71.6174341 403.355948,75.1833067 C404.033688,77.2087111 405.304188,79.5211615 404.569095,82.4601481 C398.479228,82.4888178 396.449156,78.4568889 388.807621,80.0330193 C385.061867,75.2951881 378.931084,72.9351881 371.833,71.5492563 C370.196353,68.820397 364.568104,62.3302222 362.131318,59.4268978 L362.131318,59.4268978 Z M369.409503,46.0930726 C365.062595,49.6113956 370.472275,54.1880474 370.619853,56.9997689 C370.748197,59.4541689 373.034957,58.2031941 374.256147,59.4268978 C375.073072,60.2450311 374.589772,62.2987556 375.472092,63.0609481 C376.294613,63.7752415 377.163295,63.5773511 377.89559,64.2766104 C378.824422,65.1657185 385.794162,68.1606459 387.597272,66.6991941 C387.977058,63.2042963 384.684879,59.918477 382.745032,56.9997689 C380.794344,54.0674252 379.023757,49.9854993 376.682442,48.5160059 C374.311052,47.0216889 371.721092,48.5160059 369.409503,46.0930726 L369.409503,46.0930726 Z" id="Fill-2" sketch:type="MSShapeGroup"></path>
                <path d="M323.329486,52.1542519 C324.045344,52.3290667 325.086434,51.8672059 325.758578,52.1542519 C326.34854,52.408083 327.446983,54.2793007 328.181725,54.5771852 C331.405711,55.8799052 334.820988,55.9592711 336.67061,56.9997689 C338.05022,57.7864356 339.880957,60.5985067 341.517254,61.853677 C342.57478,62.6553778 343.990061,62.2470104 345.156347,63.0609481 C346.101965,63.7248948 346.787399,65.8020444 347.579844,66.6991941 C351.09339,70.6790281 355.77637,73.0582578 353.642434,81.2444859 C344.478957,86.520397 331.657153,81.6500563 322.119486,80.0330193 C315.693546,72.3152948 308.439491,65.4279407 306.357662,53.3657185 C311.048685,46.8905778 319.559251,51.2078044 323.329486,52.1542519 L323.329486,52.1542519 Z M323.329486,63.0609481 C321.709624,66.6079407 324.755607,67.4383111 325.758578,69.1221274 C326.774838,70.8416059 327.22002,73.2250311 328.181725,73.97184 C329.034321,74.6357867 331.619035,75.5972681 334.244315,75.1833067 C334.017702,75.2231644 334.804552,73.1579022 335.454665,73.97184 C335.99287,74.6438281 339.932714,76.3510696 340.306905,72.760723 C341.69211,69.5032237 337.490332,71.3387793 336.67061,70.3377896 C334.367413,67.5257185 329.460618,63.6811911 323.329486,63.0609481 L323.329486,63.0609481 Z" id="Fill-3" sketch:type="MSShapeGroup"></path>
                <path d="M266.343032,67.9148563 C258.305275,79.9019081 269.179188,85.5711526 277.255064,89.7296474 C284.539194,86.5039644 300.639538,92.1008356 302.718569,83.6716148 C303.368682,75.9535407 294.120575,75.9140326 288.169893,72.760723 C287.369405,72.3397689 286.437775,70.7185363 285.746746,70.3377896 C282.94626,68.7805393 272.995934,68.3123852 266.343032,67.9148563" id="Fill-4" sketch:type="MSShapeGroup"></path>
                <path d="M0.800488439,144.281659 C-2.65010983,159.199656 11.2152312,163.660231 20.2010549,158.826951 C22.1328584,152.836747 24.7147746,151.756391 22.624552,145.496972 C22.7011387,145.711644 21.5236618,143.23277 21.417,143.070193 C20.6903006,142.017108 18.8298382,141.436723 17.7779075,140.647609 C12.6497457,136.809724 5.62545087,138.751917 0.800488439,144.281659" id="Fill-5" sketch:type="MSShapeGroup"></path>
                <path d="M56.5765925,145.496972 C52.6206618,161.031016 69.9421965,165.412225 77.1903064,158.826951 C80.8213555,143.255846 64.5706358,138.759959 56.5765925,145.496972" id="Fill-6" sketch:type="MSShapeGroup"></path>
                <path d="M128.11452,144.281659 C128.122564,151.156776 121.841405,151.748 122.051931,158.826951 C122.958731,159.701025 123.409509,160.491538 124.480673,161.25373 C125.557084,162.019769 126.781072,161.703004 128.11452,162.465197 C129.305636,163.148024 129.625272,164.252853 130.543263,164.887781 C133.010474,166.611455 135.201413,164.394803 140.23935,164.887781 C141.619309,160.749914 144.242142,158.652136 143.878792,153.981084 C143.354225,147.23568 137.204208,142.712521 128.11452,144.281659" id="Fill-7" sketch:type="MSShapeGroup"></path>
                <path d="M151.154179,190.349559 C158.399841,192.756059 165.508766,193.761244 172.978592,192.772492 C180.48374,191.779194 187.625538,185.820806 194.805454,186.709914 C201.526549,177.674086 219.90526,180.292113 219.055462,163.68051 C217.610457,161.834116 216.326318,160.085967 212.993223,158.826951 C211.364618,158.21475 212.159861,160.419164 210.569725,158.826951 C210.414104,158.675212 209.575147,158.890933 209.35378,158.826951 C203.490876,157.174252 181.248558,158.274886 172.978592,161.25373 C172.511379,161.42435 173.000275,162.400865 171.765445,162.465197 C171.475884,162.48163 168.836616,163.33088 168.128801,163.68051 C162.336887,166.524047 159.525561,170.992664 156.003971,177.010489 C153.506685,181.285061 149.424858,185.125393 151.154179,190.349559" id="Fill-8" sketch:type="MSShapeGroup"></path>
                <path d="M95.3780751,175.802868 C96.5583497,175.834335 96.3180983,177.284948 96.5884249,178.225801 C105.533332,181.924184 114.694361,177.503467 112.352697,166.103443 C109.680905,164.328024 107.1455,162.417298 102.651014,162.465197 C99.3889104,166.071976 95.8180116,169.373179 95.3780751,175.802868" id="Fill-9" sketch:type="MSShapeGroup"></path>
                <path d="M455.495757,208.532747 C459.214234,205.128053 463.336977,200.374139 466.407789,197.621855 C467.817474,196.362839 468.435064,194.591615 470.044434,193.987804 C474.390991,192.354335 480.404621,192.445938 485.808705,193.987804 C487.819543,189.125855 499.114159,193.550767 502.783327,190.349559 C509.987723,194.868521 523.020052,193.550767 529.45963,198.833321 C528.850434,200.870963 529.986994,204.012385 528.246483,207.317434 C527.150838,209.40717 523.861457,210.789256 519.760746,213.378613 C516.829118,215.229203 513.340052,217.389914 510.059064,219.439793 C507.285855,221.17955 503.023578,225.362868 500.357032,225.500972 C498.81061,225.584184 497.750636,227.265203 496.720737,227.927751 C491.371208,231.384539 488.914838,232.094637 482.169263,233.986133 C470.546968,237.250276 465.533512,236.344735 457.922052,230.350684 C450.230858,230.362921 446.968754,225.94605 442.157431,223.078039 C443.201318,215.538975 451.37861,212.298258 455.495757,208.532747 L455.495757,208.532747 Z M499.143884,200.048984 C492.46965,201.85587 482.467217,200.342673 476.107023,202.471917 C480.016442,207.729647 498.045792,208.160041 499.143884,200.048984 L499.143884,200.048984 Z M510.059064,203.683384 C512.995936,207.659022 515.850977,200.311206 510.059064,203.683384 L510.059064,203.683384 Z M474.899121,204.894501 C473.869223,201.343662 470.9925,205.617185 468.836882,204.894501 C466.675668,211.62627 459.137647,212.981084 456.708905,219.439793 C459.804197,223.618916 466.520046,224.182868 471.260029,226.716284 C474.358118,227.184788 476.390988,224.187064 479.746116,223.078039 C482.680191,222.109914 486.283962,222.844486 488.232202,221.862726 C491.081647,220.449173 492.332913,217.834993 494.294442,215.805393 C492.762009,213.347147 489.559705,215.81763 487.019055,215.805393 C481.39885,215.77008 474.628795,214.264924 470.044434,213.378613 C469.784598,208.676444 471.33102,205.776966 474.899121,204.894501 L474.899121,204.894501 Z" id="Fill-10" sketch:type="MSShapeGroup"></path>
                <path d="M196.015803,206.105967 C195.969292,213.426513 203.263913,213.41008 205.714688,218.228326 C212.684428,220.901244 218.602237,218.121689 222.692107,214.594276 C225.566382,199.194139 212.296249,191.469422 203.291191,198.833321 C202.296962,199.643413 201.753162,200.446513 200.868043,201.256255 C200.438948,201.653784 198.848812,200.846489 198.444546,201.256255 C197.734283,201.963556 197.753168,204.938204 196.015803,206.105967" id="Fill-11" sketch:type="MSShapeGroup"></path>
            </g>
        </g>
    </g>
</svg>