<?xml version="1.0" encoding="UTF-8" standalone="no"?>
<svg width="178px" height="41px" viewBox="0 0 178 41" version="1.1" xmlns="http://www.w3.org/2000/svg" xmlns:xlink="http://www.w3.org/1999/xlink" xmlns:sketch="http://www.bohemiancoding.com/sketch/ns">
    <!-- Generator: Sketch 3.4.1 (15681) - http://www.bohemiancoding.com/sketch -->
    <title>Imported Layers</title>
    <desc>Created with Sketch.</desc>
    <defs></defs>
    <g id="Page-1" stroke="none" stroke-width="1" fill="none" fill-rule="evenodd" sketch:type="MSPage">
        <g id="COMMUNITY-DETAIL" sketch:type="MSArtboardGroup" transform="translate(-30.000000, -3028.000000)" fill="#8A8B8A">
            <g id="Imported-Layers" sketch:type="MSLayerGroup" transform="translate(30.154941, 3028.100000)">
                <path d="M145.216944,31.2726364 L175.19578,31.2726364 L175.19578,0.917245455 L145.216944,0.917245455 L145.216944,31.2726364 Z M161.249442,4.75571818 L164.004373,4.75571818 C165.505611,4.75571818 166.915017,5.34104545 167.977063,6.39622727 C169.041105,7.45539091 169.622036,8.86097273 169.622036,10.3561455 C169.622036,13.4420545 167.100676,15.9565727 164.004373,15.9565727 C164.004373,15.9565727 161.720576,15.9585636 161.249442,15.9605545 L161.249442,4.75571818 L161.249442,4.75571818 Z M149.531006,4.75770909 L157.877647,4.75770909 L157.877647,27.2012273 L149.531006,27.2012273 L149.531006,4.75770909 Z M161.249442,27.2251182 L161.249442,16.6693182 L172.041584,27.2251182 L161.249442,27.2251182 L161.249442,27.2251182 Z" id="Fill-1" sketch:type="MSShapeGroup"></path>
                <path d="M149.299432,38.7903091 L151.511362,38.7903091 L151.511362,38.0039 L149.299432,38.0039 L149.299432,36.9546909 L151.69702,36.9546909 L151.69702,36.1662909 L148.351177,36.1662909 L148.351177,40.7692727 L151.800829,40.7692727 L151.800829,39.9808727 L149.299432,39.9808727 L149.299432,38.7903091" id="Fill-2" sketch:type="MSShapeGroup"></path>
                <path d="M158.556398,36.1662909 L157.606147,36.1662909 L157.606147,40.7692727 L160.764335,40.7692727 L160.764335,39.9808727 L158.556398,39.9808727 L158.556398,36.1662909" id="Fill-3" sketch:type="MSShapeGroup"></path>
                <path d="M161.28338,36.9546909 L162.678812,36.9546909 L162.678812,40.7692727 L163.629064,40.7692727 L163.629064,36.9546909 L164.97858,36.9546909 L164.97858,36.1662909 L161.28338,36.1662909 L161.28338,36.9546909" id="Fill-4" sketch:type="MSShapeGroup"></path>
                <path d="M176.435498,36.3375091 C175.946398,36.3375091 175.553122,36.7277273 175.553122,37.2075364 C175.553122,37.6973 175.946398,38.0915 176.435498,38.0915 C176.920606,38.0915 177.311886,37.6973 177.311886,37.2075364 C177.311886,36.7277273 176.920606,36.3375091 176.435498,36.3375091 L176.435498,36.3375091 Z M176.435498,37.9859818 C176.008284,37.9859818 175.660924,37.6395636 175.660924,37.2075364 C175.660924,36.7874545 176.008284,36.4390455 176.435498,36.4390455 C176.862712,36.4390455 177.20608,36.7874545 177.20608,37.2075364 C177.20608,37.6395636 176.862712,37.9859818 176.435498,37.9859818 L176.435498,37.9859818 Z" id="Fill-5" sketch:type="MSShapeGroup"></path>
                <path d="M147.163362,40.2197818 C147.155377,39.9868455 147.141403,39.3816091 147.117447,39.1904818 C147.067539,38.7763727 146.762101,38.6609 146.604391,38.5514 C146.913822,38.3682364 147.117447,38.2229 147.231238,37.8267091 C147.347024,37.4305182 147.251201,37.1000273 147.187318,36.8969545 C147.053564,36.4012182 146.586424,36.1862 146.12128,36.1662909 L143.559993,36.1662909 L143.559993,40.7692727 L144.510244,40.7692727 L144.510244,38.9515727 L145.620202,38.9515727 C145.953589,38.9515727 146.183166,39.1028818 146.191151,39.4114727 C146.183166,39.7479364 146.183166,40.1122727 146.191151,40.3392364 C146.205126,40.4905455 146.243056,40.6319 146.320913,40.7692727 L147.337043,40.7692727 L147.337043,40.5980545 C147.237227,40.5363364 147.163362,40.4805909 147.163362,40.2197818 L147.163362,40.2197818 Z M145.80586,38.1611818 L144.510244,38.1611818 L144.510244,36.9546909 L145.797875,36.9546909 C146.2191,36.9546909 146.370821,37.1458182 146.370821,37.4743182 C146.426718,37.9302364 146.029449,38.1611818 145.80586,38.1611818 L145.80586,38.1611818 Z" id="Fill-6" sketch:type="MSShapeGroup"></path>
                <path d="M155.168632,36.1662909 L154.074645,36.1662909 L152.465606,40.7692727 L153.433824,40.7692727 L153.757229,39.8494727 L155.466084,39.8494727 L155.7835,40.7692727 L156.749722,40.7692727 L155.168632,36.1662909 L155.168632,36.1662909 Z M154.016751,39.0590818 L154.625631,37.2712455 L155.238503,39.0590818 L154.016751,39.0590818 L154.016751,39.0590818 Z" id="Fill-7" sketch:type="MSShapeGroup"></path>
                <path d="M169.302624,36.6640182 C168.915336,36.2698182 168.350376,36.0906364 167.76146,36.0906364 C167.172543,36.0906364 166.611576,36.2698182 166.226284,36.6640182 C165.795078,37.1139636 165.541544,37.8087909 165.541544,38.5036182 C165.541544,39.1984455 165.795078,39.8932727 166.226284,40.3392364 C166.611576,40.7394091 167.172543,40.9166 167.76146,40.9166 C168.350376,40.9166 168.915336,40.7394091 169.302624,40.3392364 C169.731834,39.8932727 169.983371,39.1984455 169.983371,38.5036182 C169.983371,37.8087909 169.731834,37.1139636 169.302624,36.6640182 L169.302624,36.6640182 Z M168.611895,39.7758091 C168.370339,40.0007818 168.066898,40.0883818 167.76146,40.0883818 C167.458018,40.0883818 167.154576,40.0007818 166.915017,39.7758091 C166.611576,39.4990727 166.459855,39.0033364 166.453866,38.5036182 C166.459855,38.0039 166.611576,37.5061727 166.915017,37.2254545 C167.154576,37.0084455 167.458018,36.9188545 167.76146,36.9188545 C168.066898,36.9188545 168.370339,37.0084455 168.611895,37.2254545 C168.915336,37.5061727 169.067057,38.0039 169.075042,38.5036182 C169.067057,39.0033364 168.915336,39.4990727 168.611895,39.7758091 L168.611895,39.7758091 Z" id="Fill-8" sketch:type="MSShapeGroup"></path>
                <path d="M174.54897,40.2197818 C174.540984,39.9868455 174.529007,39.3816091 174.503054,39.1904818 C174.455142,38.7763727 174.149704,38.6609 173.988002,38.5514 C174.301425,38.3682364 174.503054,38.2229 174.616845,37.8267091 C174.732632,37.4305182 174.634812,37.1000273 174.572926,36.8969545 C174.441168,36.4012182 173.970035,36.1862 173.508884,36.1662909 L170.943604,36.1662909 L170.943604,40.7692727 L171.895852,40.7692727 L171.895852,38.9515727 L173.009802,38.9515727 C173.339196,38.9515727 173.566777,39.1028818 173.578755,39.4114727 C173.566777,39.7479364 173.566777,40.1122727 173.578755,40.3392364 C173.592729,40.4905455 173.63066,40.6319 173.710513,40.7692727 L174.724647,40.7692727 L174.724647,40.5980545 C174.620838,40.5363364 174.54897,40.4805909 174.54897,40.2197818 L174.54897,40.2197818 Z M173.193464,38.1611818 L171.895852,38.1611818 L171.895852,36.9546909 L173.17949,36.9546909 C173.604707,36.9546909 173.756428,37.1458182 173.756428,37.4743182 C173.812325,37.9302364 173.415056,38.1611818 173.193464,38.1611818 L173.193464,38.1611818 Z" id="Fill-9" sketch:type="MSShapeGroup"></path>
                <path d="M176.886668,36.9805727 C176.886668,36.8969545 176.848738,36.8113455 176.774874,36.7715273 C176.705002,36.7257364 176.61916,36.7197636 176.535315,36.7197636 L176.108101,36.7197636 L176.108101,37.7032727 L176.225884,37.7032727 L176.225884,37.2513364 L176.449473,37.2513364 L176.728958,37.7032727 L176.872694,37.7032727 L176.577238,37.2513364 C176.748922,37.2473545 176.886668,37.1756818 176.886668,36.9805727 L176.886668,36.9805727 Z M176.411542,37.1577636 L176.225884,37.1577636 L176.225884,36.8113455 L176.509362,36.8113455 C176.629142,36.8113455 176.762896,36.8272727 176.762896,36.9785818 C176.762896,37.1796636 176.551285,37.1577636 176.411542,37.1577636 L176.411542,37.1577636 Z" id="Fill-10" sketch:type="MSShapeGroup"></path>
                <path d="M52.3298669,17.1909364 L52.3298669,17.1929273 C52.3258743,21.8934636 49.3792963,26.1341 44.6160612,29.1881545 C39.9127159,32.2023909 33.4186657,34.0698636 26.2558461,34.0698636 L26.2458645,34.0698636 C19.0830449,34.0698636 12.585002,32.2023909 7.87966041,29.1881545 C3.11642531,26.1341 0.16785102,21.8934636 0.16785102,17.1929273 L0.16785102,17.1909364 C0.16785102,12.4864182 3.11642531,8.24777273 7.88165673,5.19371818 C12.585002,2.17749091 19.0790522,0.310018182 26.2418718,0.310018182 L26.2418718,0.308027273 L26.2498571,0.308027273 L26.2498571,0.310018182 C33.4186657,0.310018182 39.9127159,2.17749091 44.6160612,5.19371818 C49.383289,8.24777273 52.3258743,12.4864182 52.3298669,17.1909364 L52.3298669,17.1909364 Z M51.4275273,17.1929273 L51.4275273,17.1909364 C51.4275273,12.8169091 48.6366629,8.84504545 44.1289576,5.95225455 C39.5593661,3.02163636 33.237,1.20791818 26.2498571,1.20791818 L26.2418718,1.20791818 C19.2587216,1.20791818 12.9383518,3.02163636 8.36876041,5.94827273 C3.85905878,8.84504545 1.07019061,12.8169091 1.07019061,17.1909364 L1.07019061,17.1929273 C1.07019061,21.5649636 3.85905878,25.5408091 8.36876041,28.4316091 C12.9383518,31.3582455 19.2587216,33.1719636 26.2458645,33.1719636 L26.2458645,33.1699727 L26.2558461,33.1699727 L26.2558461,33.1719636 C33.237,33.1699727 39.5593661,31.3582455 44.1289576,28.4316091 C48.6366629,25.5408091 51.4275273,21.5649636 51.4275273,17.1929273 L51.4275273,17.1929273 Z" id="Fill-11" sketch:type="MSShapeGroup"></path>
                <path d="M65.8210416,15.4130545 L65.6194127,11.1624636 L65.6194127,5.23154545 L70.6082327,5.23154545 L70.6082327,23.8863636 L65.7312069,23.8863636 L60.0616396,13.7247636 L60.2612722,17.9773455 L60.2612722,23.8863636 L55.2724522,23.8863636 L55.2724522,5.23154545 L60.1514743,5.23154545 L65.8210416,15.4130545" id="Fill-12" sketch:type="MSShapeGroup"></path>
                <path d="M70.5603208,23.8863636 L76.2039359,5.23154545 L81.450282,5.23154545 L87.0958935,23.8863636 L81.9593453,23.8863636 L81.3404841,21.4236091 L76.2039359,21.4236091 L75.6150196,23.8863636 L70.5603208,23.8863636 L70.5603208,23.8863636 Z M78.7871824,10.8518818 L77.1881249,17.5393455 L80.4461298,17.5393455 L78.7871824,10.8518818 L78.7871824,10.8518818 Z" id="Fill-13" sketch:type="MSShapeGroup"></path>
                <path d="M87.0459853,23.8863636 L87.0459853,5.23154545 L92.2544012,5.23154545 L92.2544012,11.5228182 L97.1713535,11.5228182 L97.1713535,5.23154545 L102.377773,5.23154545 L102.377773,23.8863636 L97.1713535,23.8863636 L97.1713535,16.6533909 L92.2544012,16.6533909 L92.2544012,23.8863636 L87.0459853,23.8863636" id="Fill-14" sketch:type="MSShapeGroup"></path>
                <path d="M103.735275,23.8863636 L103.735275,5.23154545 L111.473037,5.23154545 C115.116333,5.23154545 118.018991,6.21505455 118.018991,9.92013636 C118.018991,11.8353909 116.936982,13.235 115.904882,13.9855727 C117.65566,14.5052 118.605911,16.2412727 118.605911,18.2620455 C118.605911,22.433 115.837007,23.8863636 111.62875,23.8863636 L103.735275,23.8863636 L103.735275,23.8863636 Z M109.045504,9.58168182 L109.045504,12.6914818 L111.247452,12.6914818 C112.307501,12.6914818 113.074091,12.1479636 113.074091,11.0609273 C113.074091,9.60756364 112.036001,9.58168182 110.914065,9.58168182 L109.045504,9.58168182 L109.045504,9.58168182 Z M109.045504,16.0859818 L109.045504,19.5322455 L111.363239,19.5322455 C112.668836,19.5322455 113.653025,19.2216636 113.653025,17.8220545 C113.653025,16.1875182 112.417299,16.0859818 110.7324,16.0859818 L109.045504,16.0859818 L109.045504,16.0859818 Z" id="Fill-15" sketch:type="MSShapeGroup"></path>
                <path d="M55.943218,30.9361727 C55.943218,31.6290091 55.943218,31.8360636 56.7237816,31.8360636 L56.7237816,31.9833909 L54.8132971,31.9833909 L54.8132971,31.8360636 C55.5938608,31.8360636 55.5938608,31.6290091 55.5938608,30.9361727 L55.5938608,27.2450273 C55.2924155,26.8767091 55.0608416,26.6796091 54.5078592,26.6796091 L54.5078592,26.5302909 L55.9971188,26.5302909 L59.3210024,30.6076727 L59.3389694,30.6076727 L59.3389694,27.5775091 C59.3389694,26.8866636 59.3389694,26.6796091 58.5643947,26.6796091 L58.5643947,26.5302909 L60.4708865,26.5302909 L60.4708865,26.6796091 C59.6943155,26.6796091 59.6943155,26.8866636 59.6943155,27.5775091 L59.6943155,32.0749727 L59.5465873,32.0749727 L55.9631812,27.6949727 L55.943218,27.6949727 L55.943218,30.9361727" id="Fill-16" sketch:type="MSShapeGroup"></path>
                <path d="M60.6844935,31.8758818 C61.0039057,31.8579636 61.0817624,31.7325364 61.2454612,31.3980636 L62.8085849,28.1409364 L62.9423388,28.1409364 L64.4795102,31.4159818 C64.5933008,31.6588727 64.747018,31.8758818 65.0684265,31.8758818 L65.0684265,31.9833909 L63.4454131,31.9833909 L63.4454131,31.8758818 L63.4993139,31.8758818 C63.8147335,31.8758818 63.8866012,31.7444818 63.8866012,31.6389636 C63.8866012,31.4518182 63.5971339,30.9401545 63.5053029,30.7370818 L61.8483518,30.7370818 C61.7864657,30.9202455 61.5049837,31.4916364 61.5049837,31.6449364 C61.5049837,31.7584182 61.5588845,31.8758818 61.904249,31.8758818 L61.9441755,31.8758818 L61.9441755,31.9833909 L60.6844935,31.9833909 L60.6844935,31.8758818 L60.6844935,31.8758818 Z M61.9581498,30.5081273 L63.4014939,30.5081273 L62.6728347,28.9313273 L61.9581498,30.5081273 L61.9581498,30.5081273 Z" id="Fill-17" sketch:type="MSShapeGroup"></path>
                <path d="M65.7152363,31.8758818 C66.2282922,31.8579636 66.3181269,31.7882818 66.3181269,31.2606909 L66.3181269,28.6665364 C66.3181269,28.4654545 66.3141343,28.3977636 66.0027073,28.3977636 C65.2580776,28.3977636 65.1023641,28.4594818 64.9686102,29.1622727 L64.8588122,29.1622727 L64.8927498,28.1946909 L68.3364131,28.1946909 L68.3743433,29.1622727 L68.262549,29.1622727 C68.1307914,28.4594818 67.9790706,28.3977636 67.2304482,28.3977636 C66.9150286,28.3977636 66.9150286,28.4654545 66.9150286,28.6665364 L66.9150286,31.2606909 C66.9150286,31.7882818 67.0068596,31.8579636 67.5179192,31.8758818 L67.5179192,31.9833909 L65.7152363,31.9833909 L65.7152363,31.8758818" id="Fill-18" sketch:type="MSShapeGroup"></path>
                <path d="M68.6318694,31.8758818 C69.0730576,31.8758818 69.2247784,31.7882818 69.2247784,31.3403273 L69.2247784,28.8457182 C69.2247784,28.3917909 69.0730576,28.3061818 68.6318694,28.3061818 L68.6318694,28.1946909 L70.4165853,28.1946909 L70.4165853,28.3061818 C69.9753971,28.3061818 69.82168,28.3917909 69.82168,28.8457182 L69.82168,31.3403273 C69.82168,31.7882818 69.9753971,31.8758818 70.4165853,31.8758818 L70.4165853,31.9833909 L68.6318694,31.9833909 L68.6318694,31.8758818" id="Fill-19" sketch:type="MSShapeGroup"></path>
                <path d="M74.8923494,30.1258727 C74.8923494,31.2786091 74.021951,32.0749727 72.8880376,32.0749727 C71.7501314,32.0749727 70.8817294,31.2786091 70.8817294,30.1258727 C70.8817294,28.9213727 71.7301682,28.1090818 72.8880376,28.1090818 C74.0479033,28.1090818 74.8923494,28.9213727 74.8923494,30.1258727 L74.8923494,30.1258727 Z M74.22358,30.0402636 C74.22358,29.1344 73.8243147,28.3101636 72.8880376,28.3101636 C71.9517604,28.3101636 71.5485024,29.1344 71.5485024,30.0402636 C71.5485024,30.9521 71.863922,31.8699091 72.8880376,31.8699091 C73.9081604,31.8699091 74.22358,30.9521 74.22358,30.0402636 L74.22358,30.0402636 Z" id="Fill-20" sketch:type="MSShapeGroup"></path>
                <path d="M75.2576771,28.1946909 L76.2298882,28.1946909 L78.5496196,30.8983455 L78.5496196,29.0746727 C78.5496196,28.5212 78.5416343,28.3360455 78.0026261,28.3061818 L78.0026261,28.1946909 L79.3421612,28.1946909 L79.3421612,28.3061818 C78.8111384,28.3360455 78.8031531,28.5212 78.8031531,29.0746727 L78.8031531,31.9833909 L78.7013404,31.9833909 L76.094138,28.9472545 L76.094138,31.1073909 C76.094138,31.6588727 76.1041196,31.8460182 76.6411314,31.8758818 L76.6411314,31.9833909 L75.3015963,31.9833909 L75.3015963,31.8758818 C75.8366118,31.8460182 75.8465935,31.6588727 75.8465935,31.1073909 L75.8465935,28.7640909 C75.8126559,28.6068091 75.5750931,28.3201182 75.2576771,28.3061818 L75.2576771,28.1946909" id="Fill-21" sketch:type="MSShapeGroup"></path>
                <path d="M79.3760988,31.8758818 C79.6975073,31.8579636 79.7733678,31.7325364 79.9350702,31.3980636 L81.4942012,28.1409364 L81.6359404,28.1409364 L83.1711155,31.4159818 C83.2869024,31.6588727 83.4346306,31.8758818 83.7600318,31.8758818 L83.7600318,31.9833909 L82.135022,31.9833909 L82.135022,31.8758818 L82.1929155,31.8758818 C82.5063388,31.8758818 82.5722176,31.7444818 82.5722176,31.6389636 C82.5722176,31.4518182 82.2887392,30.9401545 82.1989045,30.7370818 L80.5379608,30.7370818 C80.478071,30.9202455 80.1985853,31.4916364 80.1985853,31.6449364 C80.1985853,31.7584182 80.2464971,31.8758818 80.5918616,31.8758818 L80.6397735,31.8758818 L80.6397735,31.9833909 L79.3760988,31.9833909 L79.3760988,31.8758818 L79.3760988,31.8758818 Z M80.6477588,30.5081273 L82.0930992,30.5081273 L81.3664363,28.9313273 L80.6477588,30.5081273 L80.6477588,30.5081273 Z" id="Fill-22" sketch:type="MSShapeGroup"></path>
                <path d="M84.0375212,31.8758818 C84.4447718,31.8559727 84.5925,31.7823091 84.5925,31.3482909 L84.5925,28.8337727 C84.5925,28.3977636 84.4447718,28.3280818 84.0375212,28.3061818 L84.0375212,28.1946909 L85.7843069,28.1946909 L85.7843069,28.3061818 C85.3391261,28.3061818 85.185409,28.3917909 85.185409,28.8457182 L85.185409,31.2646727 C85.185409,31.5712727 85.1953906,31.7544364 85.5227882,31.7544364 L86.3113371,31.7544364 C86.9002535,31.7544364 87.1737502,31.5115455 87.4053241,30.9899273 L87.5370816,31.0118273 L87.2056914,31.9833909 L84.0375212,31.9833909 L84.0375212,31.8758818" id="Fill-23" sketch:type="MSShapeGroup"></path>
                <path d="M92.9511192,30.1577273 L93.2505682,30.8386182 C93.3144506,31.0058545 93.4462082,31.2825909 93.4462082,31.4657545 C93.4462082,31.7544364 93.2425829,31.8201364 92.8852404,31.8360636 L92.8852404,31.9833909 L95.0412731,31.9833909 L95.0412731,31.8360636 C94.4303971,31.8121727 94.2726873,31.3522727 94.069062,30.8565364 L92.2044931,26.4088455 L92.0587612,26.4088455 L90.0923796,31.0058545 C89.8488278,31.5832182 89.6751473,31.7982364 89.2419445,31.8360636 L89.2419445,31.9833909 L90.9607816,31.9833909 L90.9607816,31.8360636 C90.6533473,31.8121727 90.3259498,31.7783273 90.3259498,31.4737182 C90.3259498,31.3184273 90.4417367,31.0635909 90.5056192,30.9202455 L90.8390057,30.1577273 L92.9511192,30.1577273 L92.9511192,30.1577273 Z M92.8453139,29.8590909 L90.9607816,29.8590909 L91.9110331,27.6631182 L92.8453139,29.8590909 L92.8453139,29.8590909 Z" id="Fill-24" sketch:type="MSShapeGroup"></path>
                <path d="M95.3367294,30.8645 L95.4465273,30.8645 C95.6701159,31.3482909 96.0174767,31.8699091 96.6143784,31.8699091 C97.009651,31.8699091 97.3370486,31.6270182 97.3370486,31.2487455 C97.3370486,30.9401545 97.0196327,30.6733727 96.514562,30.3309364 C95.8717449,29.8949273 95.4525163,29.6381 95.4525163,29.1344 C95.4525163,28.4993 95.9575869,28.1090818 96.5624739,28.1090818 C96.9996694,28.1090818 97.1513902,28.2842818 97.3889531,28.2842818 C97.4827804,28.2842818 97.498751,28.2345091 97.4827804,28.1469091 L97.5885857,28.1469091 L97.7183469,29.2757545 L97.608549,29.2757545 C97.4548318,28.7919636 97.1114637,28.3101636 96.5564849,28.3101636 C96.2151131,28.3101636 95.9416163,28.565 95.9416163,28.9034545 C95.9416163,29.2598273 96.318922,29.4907727 96.9258053,29.8371909 C97.4208943,30.1179091 97.9060016,30.4623364 97.9060016,30.9998818 C97.9060016,31.6051182 97.3929457,32.0749727 96.7321616,32.0749727 C96.3348927,32.0749727 95.9156641,31.9157 95.8118551,31.9157 C95.7479727,31.9157 95.6741086,31.9535273 95.6641269,32.0331636 L95.554329,32.0331636 L95.3367294,30.8645" id="Fill-25" sketch:type="MSShapeGroup"></path>
                <path d="M98.6127012,32.0331636 L98.7284882,32.0331636 C98.7384698,31.9535273 98.8083412,31.9157 98.87422,31.9157 C98.9800253,31.9157 99.3952612,32.0749727 99.7945265,32.0749727 C100.457307,32.0749727 100.964374,31.6051182 100.964374,30.9998818 C100.964374,30.4623364 100.481263,30.1179091 99.9881702,29.8371909 C99.3792906,29.4907727 98.9999886,29.2598273 98.9999886,28.9034545 C98.9999886,28.565 99.2754816,28.3101636 99.6188498,28.3101636 C100.173829,28.3101636 100.5152,28.7919636 100.668918,29.2757545 L100.778716,29.2757545 L100.652947,28.1469091 L100.543149,28.1469091 C100.557123,28.2345091 100.543149,28.2842818 100.447325,28.2842818 C100.213755,28.2842818 100.058042,28.1090818 99.6248388,28.1090818 C99.0179555,28.1090818 98.5168776,28.4993 98.5168776,29.1344 C98.5168776,29.6381 98.9341098,29.8949273 99.5809196,30.3309364 C100.081998,30.6733727 100.40141,30.9401545 100.40141,31.2487455 C100.40141,31.6270182 100.07002,31.8699091 99.6787396,31.8699091 C99.0798416,31.8699091 98.7284882,31.3482909 98.5108886,30.8645 L98.4010906,30.8645 L98.6127012,32.0331636" id="Fill-26" sketch:type="MSShapeGroup"></path>
                <path d="M105.549936,30.1258727 C105.549936,31.2786091 104.677541,32.0749727 103.543628,32.0749727 C102.405722,32.0749727 101.535323,31.2786091 101.535323,30.1258727 C101.535323,28.9213727 102.383762,28.1090818 103.543628,28.1090818 C104.699501,28.1090818 105.549936,28.9213727 105.549936,30.1258727 L105.549936,30.1258727 Z M104.877174,30.0402636 C104.877174,29.1344 104.479905,28.3101636 103.543628,28.3101636 C102.601362,28.3101636 102.204093,29.1344 102.204093,30.0402636 C102.204093,30.9521 102.519512,31.8699091 103.543628,31.8699091 C104.563751,31.8699091 104.877174,30.9521 104.877174,30.0402636 L104.877174,30.0402636 Z" id="Fill-27" sketch:type="MSShapeGroup"></path>
                <path d="M109.568541,28.1469091 L109.458743,28.1469091 C109.41682,28.565 108.945687,28.1090818 108.195069,28.1090818 C107.025221,28.1090818 106.118889,28.9472545 106.118889,30.1298545 C106.118889,31.4239455 107.107071,32.0749727 108.20505,32.0749727 C108.588345,32.0749727 109.227169,31.9535273 109.756196,31.2129091 L109.666361,31.1253091 C109.319,31.5513636 108.897776,31.8699091 108.252962,31.8699091 C107.378571,31.8699091 106.793647,31.1790636 106.793647,30.0402636 C106.793647,29.1722273 107.250806,28.3101636 108.248969,28.3101636 C108.907757,28.3101636 109.402846,28.7382091 109.554567,29.3733091 L109.664365,29.3733091 L109.568541,28.1469091" id="Fill-28" sketch:type="MSShapeGroup"></path>
                <path d="M109.991762,31.8758818 C110.434947,31.8758818 110.582675,31.7882818 110.582675,31.3403273 L110.582675,28.8457182 C110.582675,28.3917909 110.434947,28.3061818 109.991762,28.3061818 L109.991762,28.1946909 L111.776478,28.1946909 L111.776478,28.3061818 C111.333294,28.3061818 111.181573,28.3917909 111.181573,28.8457182 L111.181573,31.3403273 C111.181573,31.7882818 111.333294,31.8758818 111.776478,31.8758818 L111.776478,31.9833909 L109.991762,31.9833909 L109.991762,31.8758818" id="Fill-29" sketch:type="MSShapeGroup"></path>
                <path d="M112.067942,31.8758818 C112.389351,31.8579636 112.465211,31.7325364 112.626913,31.3980636 L114.188041,28.1409364 L114.325787,28.1409364 L115.860962,31.4159818 C115.980742,31.6588727 116.12847,31.8758818 116.451875,31.8758818 L116.451875,31.9833909 L114.826865,31.9833909 L114.826865,31.8758818 L114.882762,31.8758818 C115.196186,31.8758818 115.268053,31.7444818 115.268053,31.6389636 C115.268053,31.4518182 114.984575,30.9401545 114.890748,30.7370818 L113.2318,30.7370818 C113.167918,30.9202455 112.888432,31.4916364 112.888432,31.6449364 C112.888432,31.7584182 112.940337,31.8758818 113.285701,31.8758818 L113.32962,31.8758818 L113.32962,31.9833909 L112.067942,31.9833909 L112.067942,31.8758818 L112.067942,31.8758818 Z M113.339602,30.5081273 L114.782946,30.5081273 L114.05828,28.9313273 L113.339602,30.5081273 L113.339602,30.5081273 Z" id="Fill-30" sketch:type="MSShapeGroup"></path>
                <path d="M117.096689,31.8758818 C117.609744,31.8579636 117.703572,31.7882818 117.703572,31.2606909 L117.703572,28.6665364 C117.703572,28.4654545 117.697583,28.3977636 117.390149,28.3977636 C116.641526,28.3977636 116.485813,28.4594818 116.350062,29.1622727 L116.242261,29.1622727 L116.278195,28.1946909 L119.723854,28.1946909 L119.755796,29.1622727 L119.645998,29.1622727 C119.51424,28.4594818 119.358527,28.3977636 118.609904,28.3977636 C118.296481,28.3977636 118.296481,28.4654545 118.296481,28.6665364 L118.296481,31.2606909 C118.296481,31.7882818 118.392304,31.8579636 118.901368,31.8758818 L118.901368,31.9833909 L117.096689,31.9833909 L117.096689,31.8758818" id="Fill-31" sketch:type="MSShapeGroup"></path>
                <path d="M120.015318,31.9833909 L121.800034,31.9833909 L121.800034,31.8758818 C121.358846,31.8758818 121.203132,31.7882818 121.203132,31.3403273 L121.203132,28.8457182 C121.203132,28.3917909 121.358846,28.3061818 121.800034,28.3061818 L121.800034,28.1946909 L120.015318,28.1946909 L120.015318,28.3061818 C120.456506,28.3061818 120.61222,28.3917909 120.61222,28.8457182 L120.61222,31.3403273 C120.61222,31.7882818 120.456506,31.8758818 120.015318,31.8758818 L120.015318,31.9833909" id="Fill-32" sketch:type="MSShapeGroup"></path>
                <path d="M126.277794,30.1258727 C126.277794,31.2786091 125.409392,32.0749727 124.271486,32.0749727 C123.135576,32.0749727 122.265178,31.2786091 122.265178,30.1258727 C122.265178,28.9213727 123.11162,28.1090818 124.271486,28.1090818 C125.429356,28.1090818 126.277794,28.9213727 126.277794,30.1258727 L126.277794,30.1258727 Z M125.605032,30.0402636 C125.605032,29.1344 125.211756,28.3101636 124.271486,28.3101636 C123.32922,28.3101636 122.933947,29.1344 122.933947,30.0402636 C122.933947,30.9521 123.247371,31.8699091 124.271486,31.8699091 C125.291609,31.8699091 125.605032,30.9521 125.605032,30.0402636 L125.605032,30.0402636 Z" id="Fill-33" sketch:type="MSShapeGroup"></path>
                <path d="M126.639129,28.1946909 L127.613337,28.1946909 L129.935064,30.8983455 L129.935064,29.0746727 C129.935064,28.5212 129.923087,28.3360455 129.390067,28.3061818 L129.390067,28.1946909 L130.723613,28.1946909 L130.723613,28.3061818 C130.192591,28.3360455 130.184605,28.5212 130.184605,29.0746727 L130.184605,31.9833909 L130.088782,31.9833909 L127.47559,28.9472545 L127.47559,31.1073909 C127.47559,31.6588727 127.487568,31.8460182 128.022584,31.8758818 L128.022584,31.9833909 L126.683049,31.9833909 L126.683049,31.8758818 C127.218064,31.8460182 127.228046,31.6588727 127.228046,31.1073909 L127.228046,28.7640909 C127.200097,28.6068091 126.958542,28.3201182 126.639129,28.3061818 L126.639129,28.1946909" id="Fill-34" sketch:type="MSShapeGroup"></path>
                <path d="M58.9077629,37.8545818 C58.9077629,39.0093091 58.0353682,39.8016909 56.903451,39.8016909 C55.7635486,39.8016909 54.8931502,39.0093091 54.8931502,37.8545818 C54.8931502,36.6500818 55.7395927,35.8377909 56.903451,35.8377909 C58.0593241,35.8377909 58.9077629,36.6500818 58.9077629,37.8545818 L58.9077629,37.8545818 Z M58.2369971,37.7729545 C58.2369971,36.8651 57.8397282,36.0408636 56.903451,36.0408636 C55.9631812,36.0408636 55.5639159,36.8651 55.5639159,37.7729545 C55.5639159,38.6847909 55.8773392,39.6006091 56.903451,39.6006091 C57.9235739,39.6006091 58.2369971,38.6847909 58.2369971,37.7729545 L58.2369971,37.7729545 Z" id="Fill-35" sketch:type="MSShapeGroup"></path>
                <path d="M59.2411494,39.6045909 C59.6823376,39.6045909 59.8400473,39.5189818 59.8400473,39.0690364 L59.8400473,36.5744273 C59.8400473,36.1224909 59.6823376,36.0348909 59.2411494,36.0348909 L59.2411494,35.9273818 L62.4372682,35.9273818 L62.4991543,36.8053727 L62.3893563,36.8053727 C62.3035143,36.4091818 62.1757494,36.1543455 61.7385539,36.1543455 L60.6705192,36.1543455 C60.4409416,36.1543455 60.4289637,36.2399545 60.4289637,36.5127091 L60.4289637,37.6037273 L61.3073473,37.6037273 C61.6806604,37.6037273 61.8204033,37.4424636 61.8363739,37.0821091 L61.9481682,37.0821091 L61.9481682,38.3941182 L61.8363739,38.3941182 C61.8204033,37.9959364 61.7046163,37.8306909 61.3073473,37.8306909 L60.4289637,37.8306909 L60.4289637,39.0690364 C60.4289637,39.5189818 60.5886698,39.6045909 61.0278616,39.6045909 L61.0278616,39.7180727 L59.2411494,39.7180727 L59.2411494,39.6045909" id="Fill-36" sketch:type="MSShapeGroup"></path>
                <path d="M68.8794139,36.7914364 L68.8794139,35.3062182 C68.8794139,34.6153727 68.8794139,34.4123 68.0988502,34.4123 L68.0988502,34.2629818 L70.4305596,34.2629818 L70.4305596,34.4123 C69.6539886,34.4123 69.6539886,34.6153727 69.6539886,35.3062182 L69.6539886,38.6708545 C69.6539886,39.3597091 69.6539886,39.5687545 70.4305596,39.5687545 L70.4305596,39.7180727 L68.0988502,39.7180727 L68.0988502,39.5687545 C68.8794139,39.5687545 68.8794139,39.3597091 68.8794139,38.6708545 L68.8794139,37.0880818 L66.3321012,37.0880818 L66.3321012,38.6708545 C66.3321012,39.3597091 66.3321012,39.5687545 67.1106686,39.5687545 L67.1106686,39.7180727 L64.7789592,39.7180727 L64.7789592,39.5687545 C65.5535339,39.5687545 65.5535339,39.3597091 65.5535339,38.6708545 L65.5535339,35.3062182 C65.5535339,34.6153727 65.5535339,34.4123 64.7789592,34.4123 L64.7789592,34.2629818 L67.1106686,34.2629818 L67.1106686,34.4123 C66.3321012,34.4123 66.3321012,34.6153727 66.3321012,35.3062182 L66.3321012,36.7914364 L68.8794139,36.7914364" id="Fill-37" sketch:type="MSShapeGroup"></path>
                <path d="M74.8883567,37.8545818 C74.8883567,39.0093091 74.0179584,39.8016909 72.8800522,39.8016909 C71.7421461,39.8016909 70.8737441,39.0093091 70.8737441,37.8545818 C70.8737441,36.6500818 71.7241792,35.8377909 72.8800522,35.8377909 C74.039918,35.8377909 74.8883567,36.6500818 74.8883567,37.8545818 L74.8883567,37.8545818 Z M74.217591,37.7729545 C74.217591,36.8651 73.8183257,36.0408636 72.8800522,36.0408636 C71.9417788,36.0408636 71.5445098,36.8651 71.5445098,37.7729545 C71.5445098,38.6847909 71.8559367,39.6006091 72.8800522,39.6006091 C73.9021714,39.6006091 74.217591,38.6847909 74.217591,37.7729545 L74.217591,37.7729545 Z" id="Fill-38" sketch:type="MSShapeGroup"></path>
                <path d="M75.3015963,35.9273818 L76.4015722,35.9273818 L77.7690559,38.8181818 L79.1305506,35.9273818 L80.2445008,35.9273818 L80.2445008,36.0348909 C79.811298,36.0348909 79.6795404,36.1523545 79.6795404,36.5823909 L79.6795404,38.9475909 C79.6795404,39.4194364 79.713478,39.5926455 80.2445008,39.6045909 L80.2445008,39.7180727 L78.5775682,39.7180727 L78.5775682,39.6045909 C79.0906241,39.6045909 79.1105873,39.3597091 79.1105873,38.9475909 L79.1105873,36.5127091 L79.1006057,36.5127091 L77.6452837,39.7180727 L77.5534527,39.7180727 L76.0861527,36.6401273 L76.0781673,36.6401273 L76.0781673,38.8400818 C76.0781673,39.3935545 76.0781673,39.5926455 76.6071939,39.6045909 L76.6071939,39.7180727 L75.3015963,39.7180727 L75.3015963,39.6045909 C75.8326192,39.5926455 75.8326192,39.3935545 75.8326192,38.8400818 L75.8326192,36.7516182 C75.8326192,36.2519 75.800678,36.0348909 75.3015963,36.0348909 L75.3015963,35.9273818" id="Fill-39" sketch:type="MSShapeGroup"></path>
                <path d="M80.496038,39.6045909 C80.9352298,39.6045909 81.0909433,39.5189818 81.0909433,39.0690364 L81.0909433,36.5744273 C81.0909433,36.1224909 80.9352298,36.0348909 80.496038,36.0348909 L80.496038,35.9273818 L83.7919731,35.9273818 L83.8418812,36.7575909 L83.7320833,36.7575909 C83.6701971,36.2917182 83.4346306,36.1543455 82.9754755,36.1543455 L81.9313967,36.1543455 C81.6818559,36.1543455 81.6818559,36.2200455 81.6818559,36.5425727 L81.6818559,37.6037273 L82.843718,37.6037273 C83.2270127,37.6037273 83.3368106,37.4464455 83.3807298,37.0821091 L83.4885314,37.0821091 L83.4885314,38.3562909 L83.3807298,38.3562909 C83.3467922,37.9899636 83.217031,37.8306909 82.843718,37.8306909 L81.6818559,37.8306909 L81.6818559,39.0232455 C81.6818559,39.3676727 81.7098045,39.4851364 81.9593453,39.4851364 L83.119211,39.4851364 C83.6182927,39.4851364 83.9237306,39.1825182 84.0694624,38.7524818 L84.1712751,38.7883182 L83.8758188,39.7180727 L80.496038,39.7180727 L80.496038,39.6045909" id="Fill-40" sketch:type="MSShapeGroup"></path>
                <path d="M87.3474306,35.3062182 C87.3474306,34.6153727 87.3474306,34.4123 86.5708596,34.4123 L86.5708596,34.2629818 L89.0942163,34.2629818 C90.6433657,34.2629818 91.2203041,34.9617909 91.2203041,35.7282909 C91.2203041,36.3295455 90.7930902,36.7695364 90.2560784,36.9248273 L90.2560784,36.9407545 C90.8909102,37.0223818 91.4758339,37.5002 91.4758339,38.1990091 C91.4758339,38.6847909 91.2023371,39.7180727 89.3717057,39.7180727 L86.5708596,39.7180727 L86.5708596,39.5687545 C87.3474306,39.5687545 87.3474306,39.3597091 87.3474306,38.6708545 L87.3474306,35.3062182 L87.3474306,35.3062182 Z M88.1220053,36.7137909 C88.3715461,36.7695364 88.6310686,36.7755091 89.0343265,36.7755091 C90.2201445,36.7755091 90.3818469,36.0189636 90.3818469,35.6964364 C90.3818469,34.8483091 89.569342,34.5357364 88.8326976,34.5357364 C88.597131,34.5357364 88.3535792,34.5596273 88.1220053,34.6253273 L88.1220053,36.7137909 L88.1220053,36.7137909 Z M88.1220053,39.3119273 C88.4214543,39.3875818 88.7328812,39.4194364 89.0562861,39.4194364 C89.7569967,39.4194364 90.553531,39.1088545 90.553531,38.2905909 C90.553531,37.3269909 89.6352208,37.0502545 88.8147306,37.0502545 C88.5871494,37.0502545 88.3475902,37.0502545 88.1220053,37.0880818 L88.1220053,39.3119273 L88.1220053,39.3119273 Z" id="Fill-41" sketch:type="MSShapeGroup"></path>
                <path d="M92.0487796,35.9273818 L93.7736057,35.9273818 L93.7736057,36.0348909 C93.3224359,36.0348909 93.2106416,36.1623091 93.2106416,36.5823909 L93.2106416,38.2607273 C93.2106416,38.9854182 93.4182596,39.6006091 94.386478,39.6006091 C95.1370967,39.6006091 95.5742922,39.0809818 95.5742922,38.1890545 L95.5742922,36.8332455 C95.5742922,36.2718091 95.560318,36.0567909 94.9853759,36.0348909 L94.9853759,35.9273818 L96.3448743,35.9273818 L96.3448743,36.0348909 C95.8457927,36.0567909 95.8238331,36.3335273 95.8238331,36.7894455 L95.8238331,38.1153909 C95.8238331,39.2223364 95.364678,39.8016909 94.2127976,39.8016909 C93.2884984,39.8016909 92.6157363,39.4373545 92.6157363,38.4100455 L92.6157363,36.7615727 C92.6157363,36.2200455 92.5897841,36.0348909 92.0487796,36.0348909 L92.0487796,35.9273818" id="Fill-42" sketch:type="MSShapeGroup"></path>
                <path d="M96.6942314,39.6045909 C97.1314269,39.6045909 97.2851441,39.5189818 97.2851441,39.0690364 L97.2851441,36.5744273 C97.2851441,36.1224909 97.1314269,36.0348909 96.6942314,36.0348909 L96.6942314,35.9273818 L98.476951,35.9273818 L98.476951,36.0348909 C98.0337665,36.0348909 97.8820457,36.1224909 97.8820457,36.5744273 L97.8820457,39.0690364 C97.8820457,39.5189818 98.0337665,39.6045909 98.476951,39.6045909 L98.476951,39.7180727 L96.6942314,39.7180727 L96.6942314,39.6045909" id="Fill-43" sketch:type="MSShapeGroup"></path>
                <path d="M98.8103376,39.6045909 C99.2175882,39.5846818 99.369309,39.5130091 99.369309,39.0809818 L99.369309,36.5644727 C99.369309,36.1284636 99.2175882,36.0567909 98.8103376,36.0348909 L98.8103376,35.9273818 L100.557123,35.9273818 L100.557123,36.0348909 C100.119928,36.0348909 99.962218,36.1224909 99.962218,36.5744273 L99.962218,38.9973636 C99.962218,39.3019727 99.9741959,39.4851364 100.299597,39.4851364 L101.084153,39.4851364 C101.679059,39.4851364 101.950559,39.2442364 102.180137,38.7226182 L102.317883,38.7445182 L101.980504,39.7180727 L98.8103376,39.7180727 L98.8103376,39.6045909" id="Fill-44" sketch:type="MSShapeGroup"></path>
                <path d="M102.447644,39.6045909 C102.88484,39.6045909 103.040553,39.5189818 103.040553,39.0690364 L103.040553,36.5744273 C103.040553,36.1224909 102.88484,36.0348909 102.447644,36.0348909 L102.447644,35.9273818 L104.380089,35.9273818 C105.458105,35.9273818 106.578044,36.3215818 106.578044,37.8306909 C106.578044,39.3537364 105.158656,39.7180727 104.35214,39.7180727 L102.447644,39.7180727 L102.447644,39.6045909 L102.447644,39.6045909 Z M103.635459,39.1108455 C103.635459,39.4094818 103.635459,39.5130091 104.038717,39.5130091 C105.158656,39.5130091 105.905282,38.9655091 105.905282,37.8048091 C105.905282,36.7695364 105.174627,36.1284636 104.152507,36.1284636 C103.873022,36.1284636 103.735275,36.1284636 103.685367,36.2180545 C103.635459,36.2996818 103.635459,36.4629364 103.635459,36.7814818 L103.635459,39.1108455 L103.635459,39.1108455 Z" id="Fill-45" sketch:type="MSShapeGroup"></path>
                <path d="M107.033207,39.6045909 C107.474395,39.6045909 107.628112,39.5189818 107.628112,39.0690364 L107.628112,36.5744273 C107.628112,36.1224909 107.474395,36.0348909 107.033207,36.0348909 L107.033207,35.9273818 L110.333134,35.9273818 L110.385039,36.7575909 L110.271248,36.7575909 C110.211358,36.2917182 109.977788,36.1543455 109.516637,36.1543455 L108.470562,36.1543455 C108.22701,36.1543455 108.22701,36.2200455 108.22701,36.5425727 L108.22701,37.6037273 L109.386876,37.6037273 C109.766178,37.6037273 109.881964,37.4464455 109.917898,37.0821091 L110.027696,37.0821091 L110.027696,38.3562909 L109.917898,38.3562909 C109.887953,37.9899636 109.756196,37.8306909 109.386876,37.8306909 L108.22701,37.8306909 L108.22701,39.0232455 C108.22701,39.3676727 108.244977,39.4851364 108.500507,39.4851364 L109.662369,39.4851364 C110.157458,39.4851364 110.464892,39.1825182 110.608627,38.7524818 L110.712436,38.7883182 L110.414984,39.7180727 L107.033207,39.7180727 L107.033207,39.6045909" id="Fill-46" sketch:type="MSShapeGroup"></path>
                <path d="M115.092377,39.7180727 L114.200019,39.7180727 L112.758671,38.0258 L112.255597,38.0258 L112.255597,39.0690364 C112.255597,39.5189818 112.413307,39.6045909 112.854495,39.6045909 L112.854495,39.7180727 L111.069779,39.7180727 L111.069779,39.6045909 C111.510967,39.6045909 111.66668,39.5189818 111.66668,39.0690364 L111.66668,36.5744273 C111.66668,36.1224909 111.510967,36.0348909 111.069779,36.0348909 L111.069779,35.9273818 L112.876454,35.9273818 C113.565187,35.9273818 114.403644,35.9691909 114.403644,36.8571364 C114.403644,37.4822818 113.990404,37.7669818 113.395499,37.8864364 L114.607269,39.3019727 C114.754998,39.4811545 114.84084,39.5408818 115.092377,39.6045909 L115.092377,39.7180727 L115.092377,39.7180727 Z M112.255597,37.7928636 L112.571016,37.7928636 C113.159933,37.7928636 113.728886,37.6037273 113.728886,36.9327909 C113.728886,36.3116273 113.235793,36.1284636 112.6888,36.1284636 C112.325468,36.1284636 112.255597,36.1443909 112.255597,36.4052 L112.255597,37.7928636 L112.255597,37.7928636 Z" id="Fill-47" sketch:type="MSShapeGroup"></path>
                <path d="M115.387833,38.5932091 L115.495635,38.5932091 C115.717227,39.0809818 116.066584,39.6006091 116.663486,39.6006091 C117.054766,39.6006091 117.388152,39.3597091 117.388152,38.9814364 C117.388152,38.6728455 117.06874,38.4020818 116.567662,38.0636273 C115.918856,37.6236364 115.505616,37.3648182 115.505616,36.8651 C115.505616,36.2280091 116.006694,35.8377909 116.611581,35.8377909 C117.04678,35.8377909 117.202494,36.0149818 117.436064,36.0149818 C117.531888,36.0149818 117.547858,35.9652091 117.531888,35.8776091 L117.639689,35.8776091 L117.763462,37.0084455 L117.653664,37.0084455 C117.499947,36.5206727 117.160571,36.0408636 116.6016,36.0408636 C116.262224,36.0408636 115.988727,36.2917182 115.988727,36.6321636 C115.988727,36.9945091 116.366033,37.2234636 116.974913,37.5698818 C117.470002,37.8466182 117.955109,38.1930364 117.955109,38.7345636 C117.955109,39.3358182 117.43806,39.8016909 116.781269,39.8016909 C116.384,39.8016909 115.966768,39.6444091 115.860962,39.6444091 C115.795084,39.6444091 115.725212,39.6862182 115.715231,39.7658545 L115.599444,39.7658545 L115.387833,38.5932091" id="Fill-48" sketch:type="MSShapeGroup"></path>
                <path d="M22.874069,12.9303909 L22.7562857,12.7352818 L22.758282,12.7332909 L19.6999098,8.04669091 L17.0687514,8.04669091 C16.1324743,9.83850909 11.3273163,18.8652909 7.70997265,23.4682727 L9.20122857,23.4682727 L13.9564784,16.0143091 L14.9246967,16.6275091 L10.5607269,23.4682727 L11.802442,23.4682727 L15.8529886,16.8425273 L16.8351812,17.4417909 L13.1499624,23.4682727 L14.7031045,23.4682727 L18.9472947,16.1715909 L19.9993588,16.6175545 L19.6240494,17.9315545 L22.1034869,20.3584727 L22.4668184,20.7168364 L22.1513988,21.1209909 L21.0474302,22.5285636 L22.5706273,23.4404 L22.7263408,23.5180455 L23.0956612,23.5180455 L23.0956612,18.1187 L22.5925869,17.7782545 L22.3450424,17.6070364 L22.3450424,13.3883 L22.5426788,13.2210636 L22.874069,12.9303909 L22.874069,12.9303909 Z M23.7404747,12.1340273 L23.7564453,12.1579182 L24.9302853,11.1166727 L25.0919878,10.9753182 L28.44382,10.9753182 L28.6075188,11.1166727 L29.3102257,11.7378364 C29.3242,10.0196818 29.0966188,5.51624545 26.4315229,5.47244545 C24.7685829,5.44059091 24.7825571,5.4167 24.7825571,5.4167 L25.1259253,6.02790909 L24.4551596,6.24292727 L23.3052755,6.60328182 L24.1357473,6.66699091 L24.6687665,6.7088 L24.6687665,9.75688182 L24.6068804,9.88230909 L23.5867576,11.9070636 L23.7344857,12.1240727 L23.7404747,12.1340273 L23.7404747,12.1340273 Z M20.4924514,7.16073636 L22.8640873,10.7961364 L23.5188824,9.49408182 L23.5188824,7.77194545 L22.171362,7.66841818 L21.5385265,7.62262727 L21.6483245,7.00146364 L21.7880673,6.20310909 L21.8499535,5.86067273 L22.1793473,5.75714545 L23.6706033,5.28131818 C23.7863902,4.81942727 24.3653249,4.28785455 26.4494898,4.32568182 C30.0269069,4.38939091 30.4401465,9.48213636 30.4581135,11.5785636 L33.3428053,7.16073636 L33.5144894,6.89793636 L37.4592306,6.89793636 L37.6209331,7.21050909 C37.6369037,7.24634545 43.8255159,19.1758727 47.7742498,23.6693545 L48.6127069,24.6170273 L38.4673755,24.6170273 L38.3036767,24.3323273 L35.0416792,18.7239364 L32.8996208,20.8203636 L34.4867004,22.8451182 L33.9317216,23.1795909 L31.8196082,24.4438182 L31.7776853,24.4657182 L31.5241518,24.5931364 L31.5241518,29.4390091 L26.8966669,29.4390091 L26.8966669,20.5814545 L28.0485473,20.5814545 L28.0485473,28.2882636 L30.3702751,28.2882636 L30.3702751,24.6648091 L29.2942551,24.6648091 L29.2942551,17.5174455 L29.5437959,17.3482182 L30.0428776,16.9998091 L30.0428776,13.9139 L29.5378069,13.4739091 L29.5278253,13.4739091 L28.0026318,12.1161091 L25.5331759,12.1161091 L24.0079824,13.4739091 L23.9980008,13.4739091 L23.4929302,13.9158909 L23.4929302,16.9998091 L23.9940082,17.3482182 L24.2415527,17.5174455 L24.2415527,24.6648091 L23.167529,24.6648091 L23.167529,28.2882636 L25.4892567,28.2882636 L25.4892567,20.5814545 L26.6411371,20.5814545 L26.6411371,29.4390091 L22.0136522,29.4390091 L22.0136522,24.4438182 L19.9055314,23.1795909 L19.3425673,22.8451182 L19.7458253,22.3354455 L20.9296469,20.8203636 L18.7935776,18.7239364 L15.5295837,24.3323273 L15.3638886,24.6170273 L5.2225498,24.6170273 L6.05701429,23.6693545 C10.0117371,19.1758727 16.1943604,7.24634545 16.2143237,7.21050909 L16.3760261,6.89793636 L20.318771,6.89793636 L20.4924514,7.16073636 L20.4924514,7.16073636 Z M30.9492098,23.5180455 L31.1109122,23.5180455 L31.2526514,23.4443818 L32.7878265,22.5285636 L31.683858,21.1209909 L31.366442,20.7168364 L31.7317698,20.3584727 L34.2112073,17.9315545 L33.8319053,16.6175545 L34.8859657,16.1715909 L39.1301559,23.4682727 L40.6852943,23.4682727 L36.9980792,17.4417909 L37.9802718,16.8425273 L42.0308184,23.4682727 L43.2725335,23.4682727 L38.904571,16.6275091 L39.8747857,16.0143091 L44.6320318,23.4682727 L46.1252841,23.4682727 C42.5059441,18.8652909 37.7047788,9.83850909 36.7625127,8.04669091 L34.1353469,8.04669091 L31.0709857,12.7332909 L31.0769747,12.7352818 L30.8533861,13.0956364 L30.9951253,13.2210636 L31.1907653,13.3883 L31.1907653,17.6070364 L30.9432208,17.7782545 L30.4401465,18.1187 L30.4401465,23.5180455 L30.9492098,23.5180455 L30.9492098,23.5180455 Z" id="Fill-49" sketch:type="MSShapeGroup"></path>
            </g>
        </g>
    </g>
</svg>