<?xml version="1.0" encoding="UTF-8" standalone="no"?>
<svg width="305px" height="835px" viewBox="0 0 305 835" version="1.1" xmlns="http://www.w3.org/2000/svg" xmlns:xlink="http://www.w3.org/1999/xlink" xmlns:sketch="http://www.bohemiancoding.com/sketch/ns">
    <!-- Generator: Sketch 3.4.1 (15681) - http://www.bohemiancoding.com/sketch -->
    <title>leaves-left</title>
    <desc>Created with Sketch.</desc>
    <defs></defs>
    <g id="Page-1" stroke="none" stroke-width="1" fill="none" fill-rule="evenodd" fill-opacity="0.28" sketch:type="MSPage">
        <g id="BUY-A-HOME" sketch:type="MSArtboardGroup" transform="translate(0.000000, -248.000000)" fill="#F9E35F">
            <g id="leaves-left" sketch:type="MSLayerGroup" transform="translate(-78.500000, 808.500000) rotate(12.000000) translate(78.500000, -808.500000) translate(-384.000000, 209.000000)">
                <path d="M430.856,1.033 C440.089,-3.393 447.578,8.054 453.817,13.204 C461.401,19.457 469.626,25.143 474.29,31.892 C477.045,35.858 477.943,41.849 480.153,46.747 C485.526,58.752 488.835,61.906 489.6,73.32 C489.698,74.829 488.603,77.354 488.691,78.715 C489.11,85.38 489.54,96.578 488.465,105.063 C486.564,120.002 481.259,133.897 481.696,145.588 C477.977,150.503 474.543,155.508 470.875,160.444 C470.962,169.358 472.546,177.049 474.924,186.11 C476.932,193.682 478.917,196.733 478.744,204.799 C478.407,221.243 473.907,243.648 474.674,262.418 C478.061,267.161 481.436,271.889 484.808,276.613 C473.573,294.64 475.422,314.845 479.168,335.382 C495.483,322.829 496.97,307.796 514.981,295.524 C517.979,278.909 513.887,261.101 524.659,245.776 C527.913,244 524.069,241.076 524.44,238.799 C524.783,236.698 527.444,235.988 528.037,233.847 C528.922,230.729 528.485,225.949 529.841,223.036 C530.828,220.978 535.09,220.561 536.156,218.529 C536.567,217.775 535.12,214.833 535.478,214.271 C538.949,208.875 544.129,204.338 547.859,198.296 C551.528,192.369 553.173,189.199 560.256,182.3 C561.401,181.189 560.619,179.53 562.288,178.478 C562.721,178.198 565.129,179.243 566.557,177.801 C572.733,171.622 576.149,165.329 580.077,163.394 C587.339,159.812 595.969,160.295 603.707,163.175 C606.499,169.965 607.612,176.888 608.661,183.453 C609.672,189.806 611.403,196.936 610.906,203.246 C609.847,216.635 601.036,228.146 600.309,241.743 C585.655,252.694 580.823,275.519 560.228,282.263 C558.083,282.969 553.747,281.587 552.792,285.186 C545.727,288.68 538.576,292.781 532.073,292.844 C524.318,310.97 502.648,326.789 492.89,344.597 C488.957,346.013 483.938,353.949 480.743,350.912 C468.614,380.352 473.702,412.663 470.796,443.66 C467.792,447.776 467.706,452.388 463.144,456.258 C460.473,466.717 463.134,477.45 462.007,488.012 C460.278,504.321 451.78,519.646 451.201,536.181 C475.942,528.468 483.586,506.151 508.386,492.969 C512.648,490.709 514.194,492.594 516.276,487.336 C516.597,486.535 517.891,484.718 518.296,483.522 C518.246,483.654 520.33,479.555 520.328,479.687 C520.313,477.744 517.678,472.195 519.423,468.426 C520.818,465.448 523.668,465.002 524.606,462.35 C526.232,457.743 526.328,452.581 528.433,447.729 C529.385,445.539 531.45,442.543 532.483,440.063 C534.757,434.711 537.506,432.498 543.295,425.212 C547.882,419.481 550.044,413.555 561.551,407.434 C570.391,401.584 564.573,395.423 575.055,393.017 C580.925,394.664 584.39,399.49 588.331,404.971 C591.293,409.095 596.562,417.726 598.007,421.845 C598.373,422.87 596.866,426.542 597.11,427.26 C597.635,428.787 600.333,430.402 600.49,431.994 C600.836,435.586 598.452,440.287 598.229,445.487 C598.135,447.521 599.168,447.946 598.911,449.776 C597.014,462.811 591.113,480.981 570.748,493.666 C562.079,499.057 553.771,498.552 544.18,503.109 C538.295,502.367 533.313,496.128 527.292,496.126 C518.577,500.576 519.158,501.054 514.235,507.832 C495.486,514.391 476.754,532.874 461.762,547.681 C456.787,552.639 452.843,551.269 448.478,552.388 C443.019,589.881 418.876,624.274 420.314,662.93 C413.888,672.014 409.741,681.521 407.246,691.283 C410.517,695.61 417.756,690.984 424.365,688.585 C438.393,683.495 449.973,676.428 460.834,669.683 C463.214,668.219 466.882,666.162 468.725,664.05 C476.582,654.995 473.901,641.075 479.977,629.832 C480.8,628.337 484.725,625.338 486.744,622.639 C495.01,611.574 517.905,584.764 535.835,594.728 C541.538,604.479 539.206,612.896 540.989,621.981 C527.127,636.329 523.115,652.316 508.57,666.553 C503.618,667.602 500.423,666.824 494.612,666.994 C491.021,667.086 484.346,665.751 480.65,667.445 C471.739,671.501 466.074,683.359 456.1,689.717 C443.437,697.82 425.321,699.042 411.072,709.981 C406.173,714.372 402.398,712.042 398.242,711.989 C395.914,717.563 393.073,722.7 391.245,728.878 C389.805,733.802 390.442,740.422 388.542,745.075 C387.407,747.882 382.936,751.852 381.35,754.981 C377.624,762.32 372.766,770.966 368.725,780.647 C367.303,784.047 363.218,790.064 360.623,795.947 C359.323,798.901 360.221,803.439 358.818,806.758 C356.161,813.08 348.98,818.499 351.378,826.348 C344.582,833.071 342.647,840.634 338.098,847.735 C345.046,851.362 352.493,846.17 359.485,844.347 C379.461,839.157 402.113,833.051 422.971,829.973 C432.51,816.698 438.343,804.928 458.321,792.83 C463.308,789.798 469.373,786.059 473.635,784.283 C474.614,783.878 478.318,785.424 479.028,785.195 C488.685,781.915 500.677,777.991 510.998,776.637 C523.879,774.968 537.319,773.062 545.451,778.214 C551.487,783.859 545.635,787.508 545.904,792.188 C547.927,802.887 538.534,811.002 526.982,822.345 C522.636,826.609 518.288,830.605 515.491,832.924 C515.954,832.55 512.888,830.972 512.783,832.481 C512.445,838.77 482.604,838.825 475.428,840.109 C468.048,841.455 457.295,845.123 448.631,842.588 C443.408,837.087 448.009,833.232 445.48,828.183 C437.315,828.161 436.824,839.051 433.096,844.155 C425.246,847.373 417.248,842.192 408.33,842.796 C396.949,843.568 380.333,851.796 365.783,856.519 C364.759,856.857 359.493,856.445 358.795,856.746 C356.596,857.673 354.787,860.625 352.493,861.245 C339.643,864.678 330.495,859.513 321.202,874.061 C320.651,874.929 322.29,877.613 321.87,878.345 C319.779,882.098 318.067,882.792 316.237,887.127 C312.046,897.055 305.497,912.341 299.134,923.138 C291.585,935.907 275.45,951.908 265.563,966.137 C256.793,978.766 251.282,989.429 245.741,1001.688 C247.493,1008.715 256.805,1005.097 261.948,1004.397 C267.972,1003.57 274.679,1001.993 280.63,1000.581 C286.523,999.193 294.293,997.374 300.907,995.624 C315.634,991.715 323.551,987.263 335.139,973.577 C339.024,968.975 341.289,962.4 345.938,958.732 C350.103,955.437 358.523,953.045 365.528,949.493 C371.987,946.223 378.039,941.498 383.999,938.698 C386.233,937.646 389.891,938.494 392.548,937.336 C395.795,935.941 399.007,931.806 401.998,930.591 C408.079,928.151 416.113,925.502 419.565,925.188 C424.05,924.802 428.829,929.642 431.944,925.868 C438.407,926.169 440.079,925.729 443.882,929.253 C453.726,938.376 445.262,954.65 445.009,964.152 C434.64,976.775 420.817,988.808 412.346,1001.737 C402.717,1001.628 392.511,1008.819 381.944,1009.171 C370.222,1009.558 359.787,1001.246 348.397,1002.178 C343.059,997.445 346.509,992.006 340.514,991.137 C327.567,993.789 319.547,1001.204 306.071,1006.207 C303.614,1007.135 298.628,1007.359 295.942,1008.691 C291.76,1010.754 288.591,1015.739 283.339,1017.688 C279.264,1019.2 272.888,1018.404 267.803,1019.255 C264.408,1019.836 263.204,1021.954 260.368,1022.178 C259.456,1022.258 257.259,1020.015 256.547,1020.159 C255.444,1020.375 254.504,1022.314 253.399,1022.406 C248.108,1022.833 243.692,1020.668 238.3,1021.277 C235.332,1021.61 233.891,1023.45 230.872,1024.209 C225.742,1025.482 221.003,1025.769 213.991,1033.87 C211.543,1036.721 211.622,1041.2 208.352,1042.656 C215.549,1046.661 224.257,1041.66 232.449,1039.746 C240.769,1040.791 248.949,1045.083 257.89,1045.371 C260.037,1045.447 261.701,1043.516 263.743,1043.579 C265.798,1043.648 266.738,1044.723 269.147,1044.467 C272.651,1044.116 276.956,1039.997 280.392,1043.572 C286.633,1047.703 280.794,1049.567 280.171,1053.253 C280.03,1054.077 282.659,1055.608 282.423,1056.406 C279.524,1066.236 263.483,1074.477 260.809,1086.128 C256.132,1088.209 253.702,1088.058 249.096,1089.714 C244.573,1091.34 240.901,1094.921 236.942,1096.019 C232.362,1097.307 224.708,1096.737 218.696,1097.137 C208.222,1097.833 203.168,1097.652 193.93,1095.777 C189.924,1094.98 178.454,1089.992 173.668,1084.07 C159.223,1092.971 143.689,1108.404 130,1112.881 C128.754,1121.838 119.493,1126.358 109.28,1137.195 C106.536,1140.09 106.285,1143.8 103.645,1145.964 C98.605,1150.09 92.943,1151.8 86.747,1155.638 C65.315,1168.94 44.366,1187.638 23.476,1193.672 C16.033,1195.817 7.107,1204.815 0.299,1191.178 C6.116,1186.161 13.168,1182.326 21.91,1178.14 C28.224,1175.111 37.913,1173.22 44.199,1169.36 C49.033,1166.396 52.931,1161.073 57.263,1157.66 C61.06,1154.656 65.648,1153.474 68.295,1149.784 C71.087,1140.842 64.606,1132.933 62.675,1125.239 C61.727,1121.505 61.643,1116.693 60.652,1112.415 C57.408,1098.403 59.017,1087.009 60.44,1072.116 C61.312,1062.966 60.44,1052.981 64.951,1045.086 C72.861,1040.582 81.936,1047.701 89.942,1053.432 C97.419,1058.782 107.892,1067.375 112.672,1075.28 C119.026,1085.78 116.928,1098.265 121.206,1107.257 C132.672,1100.366 142.493,1089.113 156.338,1079.787 C158.237,1071.621 153.272,1065.73 152.962,1058.397 C152.954,1057.889 154.954,1055.512 155.002,1054.584 C155.108,1052.233 156.164,1049.987 156.339,1046.468 C156.485,1044.104 153.083,1041.368 153.434,1039.049 C153.699,1037.257 156.92,1035.932 157.03,1034.097 C157.136,1032.135 156.09,1031.57 156.355,1029.803 C157.551,1021.568 157.88,1007.722 159.055,996.943 C159.291,994.946 161.551,992.373 161.557,990.416 C161.528,988.132 159.495,986.694 159.745,984.571 C160.848,975.386 165.2,966.193 163.807,960.248 C161.956,952.345 153.803,944.89 150.75,938.637 C147.666,932.286 143.749,923.76 141.983,916.338 C141.254,913.355 142.409,910.534 142.211,906.654 C141.999,902.7 139.523,899.405 139.728,896.532 C140.071,892.16 143.544,887.948 144.702,883.465 C145.213,881.425 143.888,878.479 144.471,876.498 C144.876,875.09 147.809,873.069 148.065,871.542 C149.366,863.927 145.527,856.8 150.548,848.345 C159.293,841.084 169.174,851.549 175.547,856.685 C185.514,864.759 196.205,875.256 199.62,887.1 C203.027,898.933 201.321,938.172 193.52,948.558 C187.588,956.45 180.434,960.453 171.909,961.596 C168.611,969.815 169.748,978.858 168.972,987.493 C167.543,1003.616 164.434,1020.144 164.684,1038.15 C164.813,1046.869 165.272,1055.862 168.722,1063.815 C176.278,1067.621 180.562,1058.655 184.03,1055.258 C188.543,1050.851 191.522,1044.481 194.849,1040.402 C198.682,1035.699 204.287,1031.127 208.362,1025.986 C211.814,1021.65 214.444,1015.625 217.597,1012.256 C222.939,1006.575 229.649,1004.09 233.823,998.318 C238.963,991.157 243.95,983.298 248.678,975.804 C249.613,974.317 252.548,973.963 253.403,972.432 C253.846,971.626 252.346,968.746 252.742,968.157 C253.682,966.665 256.598,966.312 257.466,964.784 C257.904,963.959 256.391,961.127 256.793,960.494 C259.653,955.827 264.483,950.815 267.594,945.651 C272.448,937.579 283.53,927.461 290.342,917.506 C293.473,912.938 297.187,908.094 299.579,903.78 C302.198,899.06 305.362,893.676 307.69,888.467 C308.862,885.831 307.64,882.922 309.036,880.36 C310.438,877.794 312.969,876.996 314.22,874.298 C315.337,871.869 314.401,868.352 315.573,866.176 C316.995,863.554 319.345,862.84 320.765,860.109 C321.206,859.222 319.679,856.545 320.064,855.833 C322.056,852.262 324.869,850.004 327.295,845.929 C330.365,840.735 334.034,836.973 336.531,832.2 C339.073,827.29 340.86,822.803 343.056,818.011 C345.155,813.383 347.681,808.383 349.59,803.823 C351.378,799.563 352.027,796.896 352.962,791.9 C353.481,789.225 358.364,781.985 361.071,776.594 C362.941,772.854 364.121,768.161 367.157,765.111 C366.082,761.694 358.643,757.219 361.983,754.542 C357.245,750.917 363.416,745.969 362.66,742.152 C362.436,741.044 360.538,740.119 360.409,738.997 C360.192,736.905 360.399,733.672 360.182,732.012 C359.879,729.8 357.665,727.517 357.266,724.591 C357.12,723.62 359.428,721.569 359.284,720.761 C358.991,719.06 356.154,717.749 355.911,716.036 C355.779,715.099 358.09,712.959 357.943,712.2 C357.118,708.086 353.608,700.454 355.247,695.086 C351.787,690.87 347.008,694.463 343.315,691.71 C336.836,686.467 342.239,683.196 338.581,678.436 C320.287,672.36 298.141,667.651 282.76,646.887 C269.39,628.841 267.854,605.969 269.05,587.678 C277.589,580.828 283.924,587.24 291.562,585.892 C326.606,581.252 342.411,635.81 350.531,665.15 C360.075,671.567 365.771,677.705 365.824,689.921 C365.844,693.607 363.253,698.892 363.563,703.441 C363.802,706.679 365.483,710.393 366.039,713.552 C367.78,723.574 371.018,732.681 373.477,743.951 C384.47,739.032 381.87,726.221 386.081,718.299 C394.352,702.681 398.155,681.345 409.049,663.81 C412.682,659.796 405.71,653.994 411.311,650.318 C411.412,646.156 410.144,641.786 414.702,638.394 C401.139,612.646 407.468,582.139 379.593,565.869 C378.736,565.382 375.994,566.946 375.311,566.555 C372.411,564.858 372.129,562.044 368.116,559.783 C355.496,552.742 344.166,552.413 333.896,531.869 C334.069,532.193 336.013,529.254 334.346,529.178 C325.633,528.697 321.694,492.522 320.63,486.607 C319.153,478.407 317.49,470.524 315.01,462.062 C321.737,452.067 311.704,440.944 321.102,433.927 C329.408,427.719 356.511,441.468 366.803,451.274 C370.869,455.168 373.319,461.127 376.934,465.466 C387.604,478.368 397.102,482.354 397.854,498.119 C397.959,500.54 396.135,503.282 396.497,506.221 C396.887,509.459 400.082,512.79 400.55,515.235 C400.733,516.232 398.368,518.228 398.511,519.047 C398.803,520.681 401.785,522.142 401.897,523.79 C402.083,526.955 400.231,531.583 400.085,534.577 C399.653,543.707 399.09,556.851 407.066,567.687 C404.112,571.077 404.769,578.508 405.926,582.764 C406.793,585.913 410.342,590.656 412.22,594.927 C414.342,599.702 414.853,604.156 418.534,607.081 C427.256,604.791 427.841,589.245 433.846,581.872 C440.171,557.022 439.546,531 449.176,506.693 C439.944,493.573 442.454,482.418 445.362,471.338 C420.886,459.01 382.611,431.989 378.52,397.713 C374.783,395.314 379.254,394.022 379.417,392.299 C379.59,390.485 377.422,388.347 377.628,386.444 C378.423,378.993 381.039,371.457 382.791,363.704 C383.731,359.683 385.079,356.139 386.185,351.787 C387.023,348.454 385.016,342.673 390.678,341.419 C392.85,342.633 395.313,341.028 397.66,341.211 C402.895,341.592 407.746,346.907 414.554,348.19 C419.471,349.119 436.956,360.745 442.003,366.659 C448.44,374.169 448.559,383.937 456.188,389.837 C462.523,384.647 462.083,376.528 463.616,370.27 C465.287,363.467 466.311,356.914 468.356,350.232 C464.009,337.69 464.02,318.421 465.215,302.508 C465.646,296.739 468.384,282.516 465.452,276.162 C463.27,271.466 450.495,258.101 445.42,254.758 C434.875,247.826 422.005,251.903 410.755,246.202 C396.036,250.941 389.362,248.491 373.151,230.206 C363.77,219.606 355.036,210.181 349.528,197.113 C347.76,192.917 344.827,184.236 344.812,183.811 C344.747,183.022 348.128,179.783 348.409,178.858 C349.949,173.809 347.601,166.875 353.817,163.118 C362.392,157.919 369.757,163.45 378.796,171.459 C383.226,175.472 391.111,175.049 397.267,177.298 C400.356,178.427 402.321,181.354 406.038,182.944 C409.173,184.282 414.934,184.689 419.091,187.89 C423.947,191.627 427.296,197.098 434.174,205.684 C441.639,214.998 448.481,218.209 446.769,230.01 C446.288,233.397 452.138,242.87 459.145,247.347 C467.273,238.67 466.757,221.717 467.05,208.4 C467.249,198.472 465.532,190.459 462.328,178.454 C460.666,172.254 459.301,164.992 456.919,160.886 C452.371,153.036 444.082,148.875 439.15,142.652 C429.92,131.013 418.108,108.052 412.364,95.138 C411.506,93.211 411.815,87.419 411.463,83.887 C410.237,70.86 416.201,49.981 419.585,35.251 C420.129,32.87 420.274,30.127 420.937,27.154 C422.706,19.359 426.47,13.015 426.131,4.406 C427.702,3.285 429.279,2.159 430.856,1.033 L430.856,1.033 Z M472.032,128.701 C472.855,124.652 470.452,121.286 473.817,117.905 C472.213,114.153 475.265,110.171 475.624,107.097 C475.861,105.143 473.632,103.23 473.822,101.237 C473.994,99.65 477.353,97.767 477.418,96.285 C477.627,92.209 474.342,86.208 474.286,81.867 C474.207,76.956 477.66,72.729 476.547,68.374 C468.645,48.794 456.564,34.76 441.207,22.205 C439.625,23.335 438.422,22.254 436.925,22.873 C433.04,30.435 435.415,36.654 433.313,44.49 C432.944,45.885 429.294,46.581 428.588,47.863 C427.795,49.335 430.745,52.188 430.386,53.716 C429.618,56.971 426.32,60.89 425.893,64.07 C425.608,66.184 427.669,67.645 427.682,69.924 C427.704,71.905 425.231,74.424 425.204,76.456 C425.194,77.479 427.249,78.581 427.452,79.606 C427.593,80.246 425.438,82.608 425.428,83.441 C425.412,89.563 426.712,92.767 429.708,99.425 C438.398,118.751 454.299,140.342 469.09,137.933 C471.567,134.168 471.271,132.33 472.032,128.701 L472.032,128.701 Z M390.948,231.78 C397.767,232.485 403.899,237.39 411.432,233.811 C418.174,234.984 424.229,240.293 432.365,233.161 C427.724,214.142 412.165,197.901 401.539,193.287 C396.007,190.902 389.406,189.792 383.067,187.434 C375.83,184.744 369.284,181.262 363.495,179.996 C361.916,181.122 360.34,182.248 358.763,183.373 C362.72,201.177 379.112,214.715 390.948,231.78 L390.948,231.78 Z M571.741,188.384 C568.705,191.247 562.983,196.488 561.83,197.844 C557.61,202.811 555.495,210.631 551.691,216.961 C547.104,224.602 542.981,230.243 539.976,237.232 C533.84,251.508 526.418,267.845 532.758,280.463 C540.659,274.319 552.852,275.467 560.905,269.872 C564.126,267.66 567.892,261.828 571.269,257.727 C579.654,247.513 584.504,240.715 589.735,230.266 C598.152,213.469 601.225,191.862 591.785,176.461 C583.356,175.652 577.807,182.643 571.741,188.384 L571.741,188.384 Z M456.842,427.435 C456.737,425.795 457.963,423.116 457.752,422.042 C455.624,411.261 436.288,381.054 427.156,372.512 C419.583,365.425 408.268,365.981 403.06,358.766 C402.011,359.515 400.962,360.263 399.907,361.017 C395.526,367.077 394.915,371.52 394.511,376.776 C393.876,384.908 389.648,395.967 390.439,401.084 C393.041,417.665 411.938,433.472 421.276,440.945 C432.077,449.582 437.753,454.562 447.603,457.844 C454.047,451.247 457.356,434.717 456.842,427.435 L456.842,427.435 Z M387.25,536.607 C386.952,532.505 389.384,527.602 389.055,525.797 C388.77,524.187 385.77,522.728 385.682,521.072 C385.368,515.629 387.543,511.441 386.816,505.999 C386.155,501.053 385.056,494.874 382.536,490.001 C381.642,488.277 380.179,489.884 379.842,489.562 C378.81,488.586 380.082,486.617 380.291,486.856 C367.931,472.311 354.229,461.547 343.833,455.778 C339.672,453.474 336.575,450.075 332.35,449.683 C330.766,450.814 329.183,451.944 327.613,453.065 C332.711,481.682 330.587,509.107 351.919,540.429 C359.208,538.187 363.563,546.049 369.923,548.977 C370.773,549.387 373.206,547.886 374.192,548.314 C380.232,550.939 382.381,559.891 388.829,552.13 C390.368,547.349 387.612,541.456 387.25,536.607 L387.25,536.607 Z M284.124,622.133 C286.516,630 293.905,636.182 292.898,644.427 C301.118,650.98 308.479,655.188 316.98,658.167 C322.668,660.164 331.682,665.424 337.471,660.193 C334.445,642.643 321.731,618.943 312.048,604.585 C301.597,603.444 292.288,595.394 280.298,603.434 C284.706,608.37 282.321,616.244 284.124,622.133 L284.124,622.133 Z M530.681,484.198 C533.972,483.875 536.909,485.742 539.453,489.83 C548.856,486.261 560.468,486.581 568.737,480.832 C575.842,475.872 577.22,465.97 585.839,461.492 C588.997,448.421 588.532,427.869 575.28,416.673 C544.55,431.055 534.099,460.655 530.681,484.198 L530.681,484.198 Z M486.739,655.965 C495.291,649.093 500.938,659.546 509.702,651.451 C512.291,646.862 513.658,642.12 516.233,637.269 C520.957,628.343 530.507,620.004 527.723,610.04 C506.487,606.985 481.531,637.697 486.739,655.965 L486.739,655.965 Z M159.331,870.65 C160.001,877.386 160.944,880.509 159.319,887.308 C158.606,890.303 155.14,894.256 154.827,897.648 C154.679,899.163 156.032,903.626 156.163,906.216 C156.656,916.01 159.699,928.45 167.406,938.639 C168.356,939.891 167.206,942.218 168.094,942.909 C168.433,943.186 171.758,941.926 172.355,942.238 C174.878,943.553 174.968,947.606 180.024,946.285 C191.52,939.14 188.165,927.381 188.796,918.609 C189.142,914.105 191.167,909.185 191.057,905.092 C190.93,899.735 187.868,894.707 189.497,889.552 C181.026,882.03 173.159,870.954 164.062,867.274 C162.484,868.4 160.913,869.521 159.331,870.65 L159.331,870.65 Z M101.179,1085.845 C96.529,1077.65 88.467,1070.256 79.583,1065.583 C78.348,1064.608 76.948,1064.69 75.288,1066.264 C70.298,1088.559 67.967,1111.312 82.936,1136.962 C104.673,1132.329 112.201,1105.238 101.179,1085.845 L101.179,1085.845 Z M497.948,788.343 C489.465,799.13 473.049,799.316 463.049,806.123 C455.967,810.94 445.469,821.673 448.191,828.633 C453.533,827.364 458.813,827.376 463.713,827.046 C469.024,826.7 475.157,828.394 480.822,824.35 C486.681,825.711 495.426,827.675 502.89,825.264 C509.965,822.992 530.114,805.889 531.718,802.315 C533.309,798.736 535.238,792.429 532.401,789.919 C521.512,785.772 509.239,790.04 497.948,788.343 L497.948,788.343 Z M243.698,1055.503 C241.767,1055.514 239.139,1052.868 237.178,1053.025 C234.428,1053.233 229.473,1055.665 225.464,1056.611 C221.108,1057.688 215.299,1057.337 212.624,1058.646 C209.292,1060.285 205.221,1066.359 201.158,1069.221 C197.978,1071.448 193.869,1070.292 193.274,1074.85 C191.729,1076.451 192.065,1078.348 192.362,1080.242 C198.703,1080.17 203.766,1082.823 208.576,1082.961 C210.669,1083.017 216.064,1084.387 216.675,1084.316 C220.979,1083.782 227.766,1078.995 233.104,1077.33 C234.366,1076.947 238.203,1077.683 240.098,1077.111 C252.222,1073.468 254.291,1066.159 259.911,1058.193 C256.344,1052.363 247.478,1055.459 243.698,1055.503 L243.698,1055.503 Z M400.424,948.368 C396.122,950.154 392.002,950.46 388.705,951.987 C375.218,958.252 356.27,967.827 349.75,977.411 C348.173,978.536 348.791,980.034 347.737,981.234 C350.674,986.759 359.954,986.862 367.313,988.674 C379.351,991.609 392.29,995.561 403.343,989.125 C406.229,987.453 408.58,982.035 412.13,978.106 C415.772,974.037 421.01,970.912 423.611,967.524 C428.525,961.055 434.956,951.776 433.069,944.105 C425.122,934.477 410.843,944.084 400.424,948.368 L400.424,948.368 Z" id="Fill-1" sketch:type="MSShapeGroup"></path>
            </g>
        </g>
    </g>
</svg>