<?xml version="1.0" encoding="UTF-8" standalone="no"?>
<svg width="216px" height="536px" viewBox="0 0 216 536" version="1.1" xmlns="http://www.w3.org/2000/svg" xmlns:xlink="http://www.w3.org/1999/xlink" xmlns:sketch="http://www.bohemiancoding.com/sketch/ns">
    <!-- Generator: Sketch 3.4.1 (15681) - http://www.bohemiancoding.com/sketch -->
    <title>leaves-branch</title>
    <desc>Created with Sketch.</desc>
    <defs></defs>
    <g id="Page-1" stroke="none" stroke-width="1" fill="none" fill-rule="evenodd" sketch:type="MSPage">
        <g id="COMMUNITY-DETAIL" sketch:type="MSArtboardGroup" transform="translate(-70.000000, -843.000000)" fill="#FFFFFF">
            <g id="leaves-branch" sketch:type="MSLayerGroup" transform="translate(149.957295, 1121.433159) rotate(-106.000000) translate(-149.957295, -1121.433159) translate(-130.659975, 1045.898377)">
                <path d="M251.112885,57.2806358 C256.109288,56.8479771 257.806044,53.1162256 259.997108,49.8760056 C256.656082,44.3328078 255.644972,36.455252 256.295904,26.9181527 C257.727732,23.6746002 260.396443,21.3085843 262.958793,18.0336516 C267.009068,12.8528542 269.167919,6.360473 279.249869,6.92559536 C283.562572,10.5087766 286.151026,15.8250923 288.138258,21.7340228 C287.370136,25.4416143 284.973017,28.3533135 282.955239,31.3633191 C278.316792,38.2691976 273.934386,44.2506082 265.922145,48.3964125 C265.507815,56.7688322 257.385049,58.2267645 252.592478,63.9465804 C249.869893,67.1956868 248.563586,70.7830336 245.927644,74.3137293 C248.862948,77.1149033 253.696896,75.2945706 257.775497,74.3137293 C261.728576,73.3637128 265.826616,71.2059728 270.365368,70.6094702 C276.372882,69.8238529 282.556182,70.429242 288.138258,69.8716176 C289.168808,69.7674796 289.667837,70.8555137 290.357647,70.6094702 C290.561758,70.5397672 291.001914,69.1459838 291.099665,69.1295994 C292.930828,68.8238502 294.558159,69.4520108 296.282962,69.1295994 C298.814766,68.6566739 301.170785,67.41035 303.687315,66.9093767 C306.970023,66.2528906 310.202467,66.4611666 313.316056,65.4264512 C315.216366,64.7949582 317.23831,63.5453019 319.240815,62.4639326 C324.610449,59.5641745 329.917046,55.6394205 331.830686,48.3964125 C333.180315,43.2783756 331.700444,38.5338471 327.387463,35.0636903 C317.787326,33.5460521 311.272173,38.4524805 314.055574,46.913487 C317.646254,48.8065774 320.928684,46.5533082 324.426056,46.1714688 C324.851217,52.7746528 319.010878,52.4850103 316.279407,52.0967837 C311.701777,51.4500171 308.174136,45.6193984 308.872555,40.249764 C309.820906,32.9589913 319.371057,28.4638387 327.387463,30.6213009 C327.756251,30.7223842 327.845393,31.9687081 328.125038,32.1042264 C328.680441,32.3658211 329.847898,31.7637645 330.34665,32.1042264 C333.388591,34.1858761 336.063688,40.8182188 336.271965,43.9509684 C336.651305,49.5755326 334.416919,53.8735173 331.830686,57.2806358 C330.754593,58.69969 329.407463,60.4916972 328.867057,60.9840618 C326.582685,63.0604352 322.495198,62.624444 321.462426,66.9093767 C329.116432,68.6316808 337.284742,69.8457913 346.637725,69.8716176 C349.228124,69.2501218 349.291162,66.1043203 351.083169,64.6874877 C352.881841,64.6183401 353.194255,62.9335257 354.784373,61.7252468 C357.333672,59.7921674 359.123736,59.1703939 361.451429,56.5419501 C364.514753,53.0837345 369.741371,48.7935255 374.781096,46.1714688 C379.033538,43.9609656 384.763073,42.165626 391.81419,43.9509684 C395.469851,44.8784911 398.500962,48.0581722 401.43821,49.8760056 C403.540687,62.9715708 389.330151,72.3948125 378.484522,75.0549143 C381.090194,79.1118541 387.763637,79.1051893 391.81419,81.7175264 C404.527915,79.374282 413.405474,73.1965365 420.692914,65.4264512 C423.053376,67.6055741 419.29802,70.1146063 417.731506,72.092118 C415.677071,74.6891816 413.036686,77.9663359 410.326876,79.497026 C407.063885,81.3387417 402.167176,80.5697865 399.958894,83.9391377 C402.956958,91.5356596 420.059477,88.1729733 426.618229,86.1626928 C430.008963,84.6136744 430.794303,80.4656485 436.244471,80.9796738 C439.261974,76.4584172 447.601903,63.1798468 456.980712,62.4639326 C461.313132,62.1351341 469.763863,65.5142048 471.052398,69.1295994 C469.368972,83.2479389 456.334223,86.0121787 443.651045,89.1252114 C440.30141,89.017741 439.774055,86.0879912 436.244471,86.1626928 C431.783475,88.3618103 425.194732,88.4409552 420.692914,90.6048045 C419.790662,94.6273094 424.428831,94.1043976 426.618229,95.0471939 C428.805128,95.9908233 431.501608,97.5812192 434.022582,98.0094348 C437.114231,98.5367898 440.181999,97.4640292 442.909304,98.0094348 C445.78157,98.5834436 447.966525,101.069704 451.055675,101.713972 C455.570545,102.653435 460.213434,101.316025 464.385343,102.454879 C465.227333,102.681761 466.470325,103.805341 467.34675,103.934472 C472.076561,104.628726 476.625865,101.899476 480.676418,103.934472 C485.163239,100.830048 492.760872,100.256039 499.189382,98.0094348 C504.587064,96.1263416 507.761191,93.6053682 514.002808,94.3093413 C520.650424,97.296853 523.47076,106.265775 517.702069,112.080287 C513.024188,114.166103 501.495414,118.201659 492.526492,115.042528 C491.854177,114.806204 490.456784,113.184428 489.565084,112.822028 C487.768634,112.090007 486.20462,112.34577 485.859715,112.080287 C483.993839,110.641794 484.314862,107.720375 482.160454,106.896991 C478.062414,105.070271 473.376203,106.764805 468.826621,106.154972 C466.357578,105.82423 463.90603,104.174128 461.421713,103.934472 C455.086789,103.326028 448.395851,105.796182 443.651045,100.971953 C439.78072,100.805055 436.257245,100.985005 433.285007,101.713972 C430.065337,100.732297 428.520761,98.085525 423.656544,98.751453 C425.006172,104.309924 431.208911,105.022506 434.7646,108.376861 C435.580487,112.499894 438.502738,114.513229 439.210044,118.747065 C442.522744,118.99894 443.054542,116.917013 445.872656,116.522399 C450.070668,115.938671 456.481683,117.809823 460.681917,118.747065 C461.925186,119.021712 464.908254,121.967846 466.607231,123.189177 C470.618628,126.075883 475.651689,130.306386 479.196825,133.555492 C479.465917,136.83348 481.160451,138.840428 480.676418,141.701863 C479.951895,146.017065 474.634468,150.118715 467.34675,149.106493 C465.420336,148.841011 463.725802,147.336147 460.681917,145.405289 C458.50807,144.026502 455.230083,142.670763 454.017083,141.701863 C452.81297,140.739628 451.930157,138.669919 450.313657,137.259751 C448.31143,135.509122 446.150357,134.574934 444.388897,132.814307 C443.638271,132.06368 438.147003,126.434951 437.726008,125.409955 C436.73017,122.971181 437.667413,120.466592 436.983989,118.747065 C434.599923,112.714835 424.027553,105.820898 416.99171,100.231324 C412.468232,96.643977 409.931985,94.2585219 403.659821,91.3468227 C402.757569,90.9272159 401.713689,90.2079692 400.700635,89.8638972 C397.339892,88.7283761 393.879733,86.2798828 391.072171,85.4217855 C389.440953,84.9230338 386.286265,85.2668281 384.409559,84.6797673 C380.311242,83.403174 374.735553,79.0618679 371.075449,78.0171552 C368.71943,77.3426185 365.718866,77.7211255 362.931299,77.2762479 C351.69078,75.4842407 340.396108,71.8046971 326.645723,74.3137293 C327.561027,78.8535918 331.470507,81.0677051 334.050076,83.9391377 C338.488855,88.879168 341.997057,95.0699654 351.083169,96.5301194 C354.741052,97.1169025 357.194822,97.4454233 360.709411,98.751453 C366.925201,101.057763 370.155702,103.944469 374.039078,109.859509 C376.325949,113.339663 377.872746,117.995327 377.000486,126.151695 C376.28235,126.170024 376.427866,127.056446 376.262911,127.631288 C373.96993,129.782363 370.84329,131.104778 367.376466,132.075622 C364.543078,129.741264 360.494747,129.605745 357.748003,127.631288 C354.792982,125.51076 353.782149,121.617387 350.343372,120.226658 C349.423348,112.256905 342.322523,110.474618 341.454706,102.454879 C341.452762,97.4801359 344.704645,104.003897 346.637725,100.971953 C347.343086,98.2968558 343.724359,99.9402927 342.196724,99.4923603 C342.140351,96.0916289 339.280859,95.4984587 337.013705,94.3093413 C332.067288,86.4187335 324.391343,81.2607076 319.980889,72.8341362 C299.810603,72.4111969 282.020218,74.3670479 265.180127,77.2762479 C269.378139,81.8094456 275.717785,82.2446037 280.733627,85.4217855 C285.402621,88.377917 288.847785,93.1010625 294.063295,95.0471939 C289.374862,97.1330092 285.49815,93.3623795 282.21322,91.3468227 C278.789717,89.2424014 275.214312,87.1349255 272.586979,84.6797673 C266.763858,84.8252829 263.45088,82.4625993 257.033479,83.2004519 C254.135109,83.6331107 255.143998,80.1532344 253.332274,79.497026 C237.321122,82.001615 225.970077,89.1632565 210.381864,92.0846753 C202.384897,98.1613375 190.213799,100.060815 182.982733,106.896991 C186.885826,110.152484 192.504836,106.973081 198.53179,106.896991 C202.758127,106.842839 207.142755,108.291052 211.861457,107.637898 C219.353008,106.603183 225.800957,101.499308 232.596033,100.971953 C234.587429,100.818107 236.056192,102.256322 238.520792,102.454879 C241.707971,102.71092 245.300872,101.284367 247.407237,101.713972 C248.869613,102.010001 248.969307,102.59373 251.112885,103.934472 C252.232577,104.638445 254.067905,104.848943 254.811867,105.417398 C255.061243,105.604013 254.588595,106.672608 254.811867,106.896991 C255.046247,107.13026 256.083184,106.647615 256.295904,106.896991 C259.10763,110.248013 260.834655,117.122234 259.257311,123.189177 C257.740784,125.050609 255.63192,125.242779 253.332274,126.151695 C248.869613,127.911211 246.760748,129.101162 241.484421,126.892603 C240.877088,126.63684 240.93124,125.66905 240.004828,125.409955 C239.158672,125.17974 237.820151,125.791517 237.041199,125.409955 C235.546332,124.680989 234.28168,122.703199 232.596033,121.709584 C231.738768,121.197502 230.623797,120.800667 229.636569,120.226658 C227.302211,118.876196 222.869819,117.759003 219.266365,116.522399 C217.374385,114.718173 215.918397,112.468514 214.083068,110.600417 C209.116934,112.903394 202.886148,110.32938 197.052197,110.600417 C190.901666,110.884783 180.914968,113.954772 174.094066,112.080287 C171.41036,113.53822 169.381751,115.712066 166.691657,117.264417 C165.465883,117.967279 163.608616,117.995327 162.246213,118.747065 C160.998778,119.434931 160.360898,121.141129 159.282861,121.709584 C157.844368,122.463543 155.841863,122.314973 154.099565,123.189177 C150.919051,124.785127 145.970411,126.940367 142.253934,129.113103 C139.179779,130.911775 136.962333,133.492454 134.107285,135.03814 C127.993411,138.341398 119.833988,138.518294 115.594599,144.664382 C113.24941,144.787126 113.116947,142.695479 110.407136,143.184789 C101.805058,146.610513 90.8161353,149.749928 79.3068005,150.588586 C56.3964346,152.254794 34.128392,147.88183 19.3232969,140.22227 C14.2660766,137.606878 11.0444626,135.023144 6.73564759,131.334714 C3.86088264,128.876779 0.832271113,125.773188 0.0685922472,120.967565 C6.95031078,122.501588 7.77258464,128.618517 12.6565193,132.814307 C14.3899314,134.303898 17.6962444,135.587156 20.80289,137.259751 C30.1036655,142.265875 44.4727693,147.263667 56.3489476,147.6269 C74.804983,148.19119 93.9838752,146.632174 108.927543,140.959845 C114.212479,138.956229 118.699023,135.11423 122.999229,132.814307 C123.543801,127.532704 126.652669,124.02117 128.182248,120.226658 C129.000079,118.203603 129.520769,115.882297 130.403859,113.562935 C132.523554,108.007796 132.649353,104.701483 130.403859,98.0094348 C129.854844,96.3759951 129.633515,95.119674 128.924266,93.5673231 C128.347203,92.3090581 127.134203,91.1191075 126.698212,89.8638972 C126.307763,88.7217113 127.563807,88.5450932 127.44023,87.6425636 C127.368583,87.093548 125.363856,83.7308616 125.218619,81.7175264 C124.641555,73.7302786 126.522427,68.7130473 131.143656,60.9840618 C136.339727,57.0215404 142.30392,58.472808 147.436953,61.7252468 C148.020403,65.2626073 150.242292,67.7574768 150.39836,71.3514884 C150.79103,80.3073587 144.202287,90.5984174 140.032322,95.7889344 C141.186449,100.64982 138.025652,101.189949 137.068693,103.934472 C135.988434,112.377428 131.282506,122.554629 128.182248,131.334714 C131.258624,133.205866 134.738778,130.372757 137.068693,129.113103 C139.726295,127.674887 141.991506,125.974799 144.473323,124.66877 C149.613021,121.971178 154.991264,119.434931 160.024602,116.522399 C170.065174,110.717607 178.897467,102.369347 189.645622,98.0094348 C195.522895,91.299058 201.710082,84.8947082 205.198845,75.7936001 C204.239942,69.3478727 203.350464,62.8293876 200.011383,58.7624505 C191.354875,56.9043504 180.377338,58.1040205 180.019103,66.9093767 C181.136296,70.6255769 186.790296,65.4383923 188.165752,69.1295994 C184.770574,78.076861 173.792482,70.8871716 175.573937,62.4639326 C176.244308,59.3092446 180.266535,57.6777489 182.240714,56.5419501 C186.658111,53.999316 195.457635,50.380589 201.495419,55.0590246 C202.434883,55.7879908 205.684822,59.7593986 206.678438,62.4639326 C207.075551,63.5486343 206.294655,65.5489175 206.678438,66.9093767 C206.884493,67.6283456 208.023624,68.1426486 208.158031,69.1295994 C208.325207,70.3131628 207.381578,72.10517 207.420456,73.5719888 C207.474608,75.6764101 208.387968,76.7774961 208.158031,78.0171552 C207.296879,82.6644882 203.571515,84.4251151 202.97529,89.8638972 C207.930316,90.7667044 213.10917,87.9994099 217.786494,86.1626928 C220.120852,85.2451674 221.969511,84.0302237 224.449106,83.2004519 C226.803181,82.4115023 229.947039,82.0177217 231.85818,80.9796738 C239.334457,76.9066273 242.855711,68.3345403 248.887108,63.9465804 C248.739371,61.9301905 248.008461,59.8288239 247.407237,58.0218209 C246.085934,54.0437483 244.541359,52.0270807 242.966236,48.3964125 C242.230883,46.7021562 242.172288,44.5630223 241.484421,43.2092279 C237.985106,36.3250101 231.693225,31.3602643 227.412736,25.4382819 C227.067831,20.6296043 224.17807,16.2602504 224.449106,11.3665962 C224.635999,8.08971965 226.920371,5.64122635 227.412736,2.48015125 C230.641015,2.01916692 232.318053,0.107748145 234.819588,0.25881771 C240.236987,0.594003307 243.766849,6.90282384 244.445829,12.1086144 C245.250886,18.2735856 242.124523,25.4221752 242.224218,32.8429121 C242.256709,35.2619691 243.165903,38.0042705 243.703811,40.249764 C244.306979,42.746022 244.582458,45.1995139 245.187847,46.913487 C245.315868,47.2822744 246.530811,47.3647518 246.66744,47.6543943 C246.955972,48.2608942 246.424452,49.2481227 246.66744,49.8760056 C247.383632,51.7246638 248.904325,55.9237868 251.112885,57.2806358 L251.112885,57.2806358 Z M228.154754,12.1086144 C227.920374,14.2316416 229.426349,19.7118012 230.374144,22.4757633 C231.610748,26.0653316 235.485793,28.9464837 237.783217,30.6213009 C240.403885,27.8520625 236.574661,26.147809 235.559384,23.9586888 C234.151438,20.9136929 233.309447,17.0239293 234.819588,14.3291148 C237.29724,11.6790103 238.269195,17.7212375 240.742403,15.071133 C241.319467,1.82088812 229.183082,2.75813036 228.154754,12.1086144 L228.154754,12.1086144 Z M262.958793,22.4757633 C261.67859,27.7284854 257.806044,35.7035143 262.220941,40.249764 C263.201504,39.0098273 264.182346,37.7668358 263.700534,35.0636903 C266.405901,33.0828462 267.12848,29.1167147 270.365368,27.6587823 C271.0163,25.841782 271.031573,23.390234 273.324554,23.2166706 C274.203201,23.5768493 275.008257,24.0053426 275.550608,24.6962637 C274.18154,31.4730111 268.054892,33.4927334 266.661942,40.249764 C269.024625,40.8118317 271.135711,39.6793653 273.324554,38.0259312 C274.099063,37.4458129 274.018807,35.9281748 274.80859,35.0636903 C275.871909,33.9028984 277.169052,33.6501901 277.769998,32.8429121 C280.714188,28.9084386 284.020501,23.2580481 283.695035,19.5132447 C283.408725,16.2222053 280.137125,14.5126755 279.249869,11.3665962 C269.621128,10.8686776 268.590856,18.9731154 262.958793,22.4757633 L262.958793,22.4757633 Z M391.81419,48.3964125 C385.715589,46.7399236 377.339004,49.5755326 372.559485,50.6169129 C371.335933,54.7055107 365.38257,58.1887194 362.931299,60.9840618 C362.469204,61.5080843 359.479193,63.9685188 362.191225,63.9465804 C370.78053,62.9052001 376.76194,59.26148 380.706133,53.5797092 C382.118523,55.8674134 386.930533,54.7563301 385.889152,59.5011363 C384.960519,61.5364099 381.88442,61.4225523 379.222375,61.7252468 C375.271517,67.3159315 366.328698,63.5203087 362.931299,69.1295994 C377.458415,76.225148 395.608702,67.9754724 398.479023,54.3183949 C397.079686,52.109558 395.242136,49.3239352 391.81419,48.3964125 L391.81419,48.3964125 Z M139.290304,63.2045622 C133.39998,62.9846227 130.195583,70.0104683 129.662119,75.7936001 C129.559925,76.909682 130.375534,78.3795555 130.403859,79.497026 C130.536323,84.9707984 130.154206,92.8958411 135.586878,93.5673231 C137.624096,91.5984202 135.044527,90.9749805 134.84486,89.1252114 C134.239749,81.8508231 135.899292,76.8466438 138.548286,72.8341362 C139.61577,73.2473559 140.357788,73.9885409 140.769897,75.0549143 C140.186447,78.0649199 135.211426,85.5228688 140.032322,86.9016563 C144.570796,81.5817305 150.391973,63.6244468 139.290304,63.2045622 L139.290304,63.2045622 Z M356.26841,68.3886921 C357.956279,68.5969681 359.049589,68.2087416 359.229817,66.9093767 C358.778553,66.8646668 358.353392,66.7985738 358.487799,66.1673585 L357.008206,66.1673585 C357.040975,67.1868004 356.658858,67.7921895 356.26841,68.3886921 L356.26841,68.3886921 Z M451.797693,66.9093767 C449.56303,70.8457941 444.735746,72.1898689 443.651045,77.2762479 C448.465276,78.4587004 454.160377,75.2531931 459.202323,74.3137293 C461.634432,75.5125662 457.215092,78.9643947 460.681917,78.7561186 C465.786902,78.180999 466.906594,73.6228082 467.34675,68.3886921 C463.296198,66.6380624 456.883239,65.4197863 451.797693,66.9093767 L451.797693,66.9093767 Z M450.313657,81.7175264 C451.671894,82.2543233 456.063187,83.443163 456.980712,80.2376556 C454.221193,79.6803089 451.648012,79.257092 450.313657,81.7175264 L450.313657,81.7175264 Z M441.429434,84.6797673 C444.345298,84.8827671 446.573574,84.3967896 447.354471,82.4592669 C444.913753,81.935522 442.620495,81.2704272 439.947897,80.9796738 C439.314182,83.3390249 441.114798,83.2695996 441.429434,84.6797673 L441.429434,84.6797673 Z M505.114141,98.751453 C504.357127,102.684816 496.36016,99.375448 496.229918,103.934472 C500.076638,104.035555 503.354903,104.710092 505.114141,106.896991 C505.487372,109.224961 503.500141,109.793416 505.114141,111.339102 C511.822574,113.967546 516.560716,108.565421 519.927845,105.417398 C518.339671,99.1929982 512.824799,96.9400067 505.114141,98.751453 L505.114141,98.751453 Z M360.709411,118.005047 C357.264247,115.27913 356.123172,110.249957 351.825187,108.376861 C349.657728,113.086677 357.040975,121.390782 359.971836,123.930084 C362.779119,126.362193 367.829952,130.248902 372.559485,127.631288 C377.469246,112.913392 366.723312,102.183842 353.305058,100.971953 C354.326721,107.429622 364.410615,111.638742 360.709411,118.005047 L360.709411,118.005047 Z M247.407237,106.154972 C245.343916,105.581241 243.903478,106.877551 241.484421,106.896991 C237.598823,106.928649 232.992868,104.774241 229.636569,106.896991 L229.636569,109.117491 C231.680173,113.490177 240.2281,111.361041 242.224218,115.784546 C241.464982,117.494076 237.264749,115.761775 237.783217,118.747065 C241.779618,124.081987 250.553316,125.614898 255.553885,120.226658 C256.308956,112.721222 252.651073,107.61957 247.407237,106.154972 L247.407237,106.154972 Z M495.490122,111.339102 C497.423201,111.550711 498.672857,111.071398 498.451529,109.117491 C496.514284,108.909215 495.264628,109.389916 495.490122,111.339102 L495.490122,111.339102 Z M443.651045,123.189177 C453.724108,122.989787 455.481402,131.104778 462.905749,133.555492 C459.608045,135.524118 454.882678,133.436081 452.535546,132.075622 C453.780759,137.275025 457.716343,139.51191 462.163731,142.442771 C469.498936,147.273386 471.993806,148.124819 476.972992,143.184789 C477.919121,134.287513 475.699731,135.679353 470.31038,130.592696 C469.798576,130.110051 470.117377,128.851786 469.568639,128.372196 C468.991298,127.86789 467.88688,128.132539 467.34675,127.631288 C466.012395,126.393573 465.491705,124.775129 464.385343,123.930084 C463.571677,123.311921 462.265925,123.750134 461.421713,123.189177 C460.842706,122.80095 460.584166,121.289977 459.942398,120.967565 C455.542497,118.762339 449.376415,119.980337 444.388897,118.747065 C443.538298,119.620436 443.553572,121.362457 443.651045,123.189177 L443.651045,123.189177 Z" id="Fill-1" sketch:type="MSShapeGroup"></path>
                <path d="M446.614674,40.9884498 C446.645221,44.9695771 444.86821,47.1467561 440.689637,46.913487 C437.767385,43.0137261 443.065373,38.4197118 446.614674,40.9884498" id="Fill-2" sketch:type="MSShapeGroup"></path>
                <path d="M428.839563,53.5797092 C429.78347,55.3531104 431.542708,56.3056262 431.063395,59.5011363 C429.724875,61.542797 425.229444,61.2389917 422.916747,60.2423213 C423.03838,59.3808916 422.754014,58.9274052 422.17695,58.7624505 C422.929799,55.5666628 424.320528,53.0090328 428.839563,53.5797092" id="Fill-3" sketch:type="MSShapeGroup"></path>
                <path d="M528.81429,107.637898 C529.091992,106.424065 530.031456,106.396017 531.035902,105.417398 C534.557155,101.968901 549.674387,94.7444994 557.693015,97.2718599 C560.98211,101.297419 562.359787,104.152745 559.914904,109.859509 C559.220373,111.481285 558.621648,113.663741 557.693015,114.301621 C551.460007,118.582388 540.72296,112.023636 535.476902,108.376861 C531.821241,108.345203 530.454395,108.224959 528.81429,107.637898 L528.81429,107.637898 Z M548.064552,102.454879 C544.999006,103.060268 540.636317,102.98751 539.180328,105.417398 C541.543012,110.45629 547.73492,111.673455 555.473625,111.339102 C557.640807,109.805357 558.07291,106.533757 557.693015,102.454879 C554.965987,99.4673672 551.390581,101.79867 548.064552,102.454879 L548.064552,102.454879 Z" id="Fill-4" sketch:type="MSShapeGroup"></path>
                <path d="M309.61263,103.934472 C309.99197,107.029454 309.200243,108.950592 308.132759,110.600417 C303.240493,111.298002 301.060259,109.279113 299.246314,106.896991 C299.866699,106.038893 300.224656,104.913092 299.988332,103.193565 C303.346853,102.142465 306.837559,102.534024 309.61263,103.934472" id="Fill-5" sketch:type="MSShapeGroup"></path>
                <path d="M324.426056,118.747065 C324.387177,121.671538 322.907307,123.151409 319.980889,123.189177 C319.961172,122.469097 319.073639,122.614335 318.501018,122.447159 C317.752613,116.928954 321.403831,117.059196 324.426056,118.747065" id="Fill-6" sketch:type="MSShapeGroup"></path>
                <path d="M330.34665,130.592696 C332.067288,130.356372 333.193367,130.713219 334.050076,131.334714 L334.050076,134.297233 C331.414134,134.467742 330.179751,133.230859 330.34665,130.592696" id="Fill-7" sketch:type="MSShapeGroup"></path>
            </g>
        </g>
    </g>
</svg>