<?xml version="1.0" encoding="UTF-8" standalone="no"?>
<svg width="391px" height="555px" viewBox="0 0 391 555" version="1.1" xmlns="http://www.w3.org/2000/svg" xmlns:xlink="http://www.w3.org/1999/xlink" xmlns:sketch="http://www.bohemiancoding.com/sketch/ns">
    <!-- Generator: Sketch 3.4.1 (15681) - http://www.bohemiancoding.com/sketch -->
    <title>leaves-right</title>
    <desc>Created with Sketch.</desc>
    <defs></defs>
    <g id="Page-1" stroke="none" stroke-width="1" fill="none" fill-rule="evenodd" sketch:type="MSPage">
        <g id="BUY-A-HOME" sketch:type="MSArtboardGroup" transform="translate(-633.000000, -1818.000000)" fill="#F9E35F">
            <g id="leaves-right" sketch:type="MSLayerGroup" transform="translate(633.000000, 1818.000000)">
                <path d="M0.711473973,0.994661202 C-0.771547032,6.41102459 2.05293151,8.50628415 7.53995251,8.5553388 C13.838221,4.5344235 6.83056804,-2.20693716 0.711473973,0.994661202" id="Fill-1" sketch:type="MSShapeGroup"></path>
                <path d="M22.278747,32.7257104 C15.5688475,33.3889918 10.2839854,46.7026311 20.3036493,48.0735519 C22.8068676,49.4350792 22.6391854,52.8495956 27.5552511,52.344959 C34.1434374,46.1024945 27.8932274,35.8083251 22.278747,32.7257104" id="Fill-2" sketch:type="MSShapeGroup"></path>
                <path d="M400.375448,509.12459 C392.653187,504.223822 383.017468,500.799913 372.837958,497.78827 C371.261432,496.042134 369.764829,494.236505 367.917713,492.702243 C361.69101,491.143975 357.305154,487.944464 352.16499,485.107123 C347.688763,482.643432 342.690163,478.290093 337.51291,477.655514 C334.568285,477.295432 333.107204,479.53368 330.508391,480.098331 C328.172855,480.597749 324.868314,479.767995 322.681132,480.204268 C320.365969,480.671331 318.601911,482.484265 316.772555,482.791639 C314.093819,483.242525 311.519558,482.589158 308.957311,482.899664 C304.044902,483.506063 301.214155,484.846194 296.185257,486.831342 C293.090711,488.053533 291.516274,488.872328 289.031861,490.37006 C287.818385,491.100139 286.558941,491.326626 285.462999,492.135505 C284.008186,493.210533 279.194506,495.414339 275.166999,494.161358 C275.179014,489.971883 277.403806,488.481978 279.445768,486.910664 C281.451686,485.356049 284.895178,486.223899 285.494342,483.228434 C281.1205,479.360945 270.232128,480.51947 272.503412,471.535686 C280.859836,470.48623 288.550232,477.709265 298.406915,478.202943 C301.400121,478.348541 303.833863,476.2585 306.512077,475.903637 C308.526875,475.630183 310.781965,476.906126 313.093995,476.749568 C315.556468,476.574746 318.767503,475.188169 321.196544,474.441913 C323.522155,473.731142 327.697494,474.189333 327.249297,470.765423 C324.679215,468.128997 321.909063,466.220041 318.07379,464.017279 C317.729545,463.816363 315.679748,463.051842 314.928574,462.495019 C313.652413,461.572374 314.073969,459.86329 313.153545,458.924989 C311.174791,456.907486 307.237655,456.587066 303.703792,454.375954 C301.921973,453.25709 300.617081,451.212973 298.642506,450.379566 C298.767353,450.430708 296.345626,451.601235 295.211028,451.050675 C294.374184,450.649366 294.690743,449.016995 293.298616,448.581243 C292.566769,448.35006 291.296877,449.680276 289.867138,449.252352 C288.257702,448.776418 280.380818,447.543268 275.747879,446.327339 C265.47173,443.61994 256.160405,438.024057 247.928307,437.182301 C245.708216,436.950074 244.638393,438.576705 242.158159,438.664899 C240.392011,438.735872 240.795284,437.490719 240.105227,437.289281 C239.090254,436.992344 231.240011,438.236454 228.849626,438.073112 C227.932336,438.008923 225.016442,435.918361 221.312807,435.987246 C214.119189,436.121885 206.819006,438.783361 201.527876,442.36435 C200.652899,446.346126 201.218108,452.187803 198.883616,454.278366 C195.506988,455.82985 191.227174,454.299762 187.909574,452.868828 C185.008829,451.624719 181.026769,449.121888 180.936398,446.403008 C179.564643,442.866899 186.597892,439.274951 188.932906,436.288358 C192.431247,436.982429 193.820763,434.94927 197.849315,436.321757 C199.926276,431.339579 208.673958,434.981104 209.951686,428.955732 C206.166561,423.295139 190.211156,422.965847 195.185728,413.693997 C200.332161,413.668948 201.179452,416.963437 205.872986,417.290642 C206.227156,419.656224 207.500705,421.302164 209.696767,422.241508 C216.841805,423.118751 222.111518,428.277839 228.73627,430.259333 C230.863901,430.896 237.353881,432.673448 239.569271,432.760598 C242.323229,432.875929 244.817567,431.301484 247.532869,431.561369 C249.942583,431.793074 253.295704,434.068896 255.070732,433.641495 C263.660658,431.575459 274.183368,445.086361 282.361662,438.256806 C274.442988,429.032967 260.179032,423.106227 251.031211,413.073508 C247.974276,409.714831 245.571353,405.27121 242.42457,401.938104 C239.172789,398.495407 234.837081,396.343265 232.580424,391.755612 C225.81463,391.059454 227.676373,383.693951 220.259178,383.489383 C219.787474,380.565934 218.189531,378.500943 215.479974,377.303801 C212.721315,377.572557 212.593856,381.249568 208.474411,379.751836 C192.087003,376.576331 180.792745,374.141342 166.501103,376.58468 C162.878437,377.207257 158.381837,381.741158 151.676639,379.14074 C150.832482,372.426516 158.410046,371.480388 162.814707,370.539478 C165.327328,370.009792 168.368069,370.96688 171.738952,370.573921 C173.998221,370.315079 176.521289,369.223352 178.602952,369.227527 C181.305195,369.233268 188.768358,369.367907 190.809797,369.683109 C192.891982,370.004574 205.217406,376.286178 206.594385,368.362809 C201.959357,363.71462 198.256245,358.343137 195.260427,352.429443 C189.856464,352.315156 191.015613,347.144587 185.956939,346.77459 C185.915671,343.160202 182.801275,342.071607 180.21291,339.355336 C177.285523,336.265937 170.723978,332.326432 165.984997,328.610281 C164.889578,327.751825 163.743489,327.993445 162.8309,327.092719 C161.932416,326.206604 162.303825,325.333536 160.923711,324.618068 C157.552307,322.869322 153.191003,323.505467 150.236453,321.015161 C138.647054,324.776191 125.939251,327.0875 117.256866,334.604863 C113.93143,336.276374 114.628278,343.137762 109.546619,342.532407 C109.292223,336.898951 109.907058,335.477932 112.054016,331.713249 C114.172245,327.978833 113.963817,327.648497 118.526236,324.74227 C119.844186,323.902601 121.23318,322.41374 122.239795,321.879358 C125.884402,319.938568 130.998447,320.899831 132.963098,316.566844 C130.713753,314.354167 127.17101,313.13876 122.275317,312.970199 C114.434999,305.441877 100.538795,308.457694 92.3688584,311.35244 C92.5464658,314.992921 90.9631489,316.362276 90.2840621,318.887025 C86.1290959,320.511568 83.9492274,318.042658 79.3147215,317.478008 C75.9213772,316.926926 75.7338447,320.52618 71.3500785,318.682978 C66.8075105,314.847844 61.5315288,309.257702 63.1660384,304.261956 C66.160811,295.124746 79.605684,299.64821 87.7259945,304.075131 C94.3643288,302.014836 100.239474,301.509678 105.845596,301.941776 C107.72301,302.09468 109.339759,303.599197 111.188964,303.746361 C111.942228,303.80794 116.200102,304.389811 117.774539,304.592292 C118.572205,304.694577 119.156742,303.347139 120.105896,303.773497 C121.089005,304.222817 121.136541,305.706459 123.122608,306.390615 C125.812837,307.322131 128.693209,307.482342 131.748577,308.616861 C137.290447,310.666719 145.356953,313.688798 155.611163,313.905891 C157.351193,315.191749 157.344924,317.827653 159.434944,318.854669 C162.346137,319.218404 165.643887,320.071642 167.254367,318.747167 C164.123255,311.29347 161.148855,303.713484 154.150082,299.234377 C152.337965,297.041008 156.088614,296.034344 152.524453,294.572098 C150.019668,296.223257 149.358342,292.223216 147.463167,290.574145 C145.48598,288.868713 142.890824,288.025913 141.299671,286.448336 C138.931226,281.032495 136.211744,275.884366 132.020212,271.878585 C131.271649,261.931451 123.636102,257.286393 121.677198,248.270776 C117.966773,245.864489 115.937348,242.167126 112.788475,239.329262 C103.17992,234.252107 95.948168,224.518413 84.7186849,223.470522 C82.2630027,223.239339 78.338926,224.634787 74.4226849,225.490112 C71.6462648,226.095467 67.3277954,226.490514 65.216358,227.647473 C58.8559269,231.159055 57.8874447,240.891705 49.404084,237.87641 C49.1073753,231.999246 53.7920292,230.383052 56.2994265,227.620336 C57.1759708,226.664292 56.8797845,225.251101 57.8237151,224.474055 C59.3150941,223.243514 63.2809607,224.015863 62.7716457,220.651445 C66.691021,219.325926 72.8633973,220.920202 74.4503708,216.57991 C67.369063,213.160697 58.081768,211.435956 48.5426886,209.912653 C45.2872511,210.813902 43.8632584,214.079689 41.11139,215.639522 C35.4326575,215.962552 32.8944402,217.747828 27.9522557,213.949746 C24.4883909,211.287227 18.1425863,208.326205 18.1070648,203.773516 C18.0825132,200.380918 21.5171251,198.567462 23.4864767,196.66268 C25.0509881,195.149292 24.7182356,193.355667 26.2399123,192.56453 C34.9870721,187.996708 39.3818082,199.50524 48.2924712,203.196342 C54.9229699,205.930877 61.114674,204.527079 65.8468639,205.45129 C69.2281936,206.101525 71.2858265,209.645462 74.4817132,207.672317 C75.4099726,208.932082 76.3664402,210.166798 77.3495489,211.382727 C81.9814429,211.103533 82.7676164,213.788492 87.0845187,213.750918 C86.7611689,216.453098 90.5985315,215.827913 92.1505059,217.741566 C93.65181,219.59677 96.1163726,221.263585 99.8247087,218.726833 C98.8170484,213.576617 95.1949041,210.452254 96.172789,203.780822 C93.0317516,202.900448 92.0841644,199.615352 90.2976438,197.449642 C88.4829151,195.243749 86.2811068,193.329052 84.4209315,191.123158 C80.8750539,186.927421 77.8348347,182.387257 73.7613589,178.612658 C72.8252639,177.02882 73.2050301,174.428402 72.2684128,172.850825 C67.9969571,171.864514 67.7979324,167.750708 65.440979,165.283885 C57.8816986,162.603101 54.8242411,153.017093 46.1507361,150.55288 C42.8838064,149.625538 38.4148932,150.360836 35.0366977,150.237156 C32.1777425,150.132784 27.7208438,152.69876 26.3976694,148.015607 C31.8272292,136.775831 48.014568,147.067913 57.4026813,149.768005 C59.161516,147.352847 56.1071927,146.272079 55.9097352,144.006172 C55.6814575,141.33426 57.2908932,138.611727 56.8975452,136.331208 C56.4451689,133.704175 54.4831306,130.726975 53.4963653,128.100986 C52.8104877,126.267699 52.5351963,124.82685 51.8670795,123.431402 C49.3936365,118.284317 45.9736511,110.683978 43.149695,104.488481 C38.1599744,101.85623 36.3253954,102.750694 32.604,99.7922814 C28.2447854,91.5865874 32.8239196,82.8621667 38.7199598,78.2943443 C51.3729132,79.7920765 56.9006795,86.1707459 57.4460384,97.4110437 C55.9776438,99.7687978 53.5219616,100.853219 53.1672694,104.663303 C53.4801717,110.225787 56.1468932,114.890675 57.9161753,119.750738 C59.6368767,124.476683 60.7975927,129.809549 63.9051982,133.895697 C65.9001461,130.51197 65.5710502,124.116601 72.5719123,127.202869 C73.4296511,130.032383 72.0124493,133.085251 71.4430612,135.975822 C70.9180749,138.617467 69.4000548,142.290303 69.2140895,144.597437 C69.1890155,144.951779 71.1364274,146.958844 71.1291142,147.079393 C71.0962046,147.720235 69.59699,152.367902 70.1423489,154.746008 C70.3873425,155.817904 72.1043872,158.011273 72.868621,159.556495 C73.6715105,161.182082 73.7665826,162.744003 74.4979068,164.22347 C75.7505607,166.770658 76.3115909,170.626145 79.2771105,170.409052 C79.389421,156.813609 80.8217717,138.711923 93.5222612,137.699519 C96.1315215,145.273765 88.4087379,149.555609 85.7811945,154.531003 C86.3876712,163.563842 86.7225132,174.777525 89.1223014,180.585281 C89.9231014,182.517721 88.4912731,184.049896 88.1355361,188.254505 C88.4912731,189.872265 91.1365772,188.91309 92.3782612,189.911404 C92.6989991,190.172333 91.8428274,191.77235 92.0956566,192.108948 C92.4242301,192.529566 93.9197881,192.004055 94.2932858,192.391273 C94.6244712,192.727872 93.7108384,194.198989 94.011726,194.579423 C94.5910393,195.323593 97.0315726,195.768216 98.1212457,197.336921 C98.8160037,198.334713 99.2809169,199.935251 99.892095,200.905907 C102.609487,205.276989 104.876069,215.187071 108.467916,220.948904 C109.385205,222.418978 109.816164,223.89688 111.190009,225.758347 C111.312245,225.924298 112.106776,226.91635 112.145954,226.993585 C112.534601,227.748191 112.292742,229.624792 112.823996,230.422191 C113.309282,231.159055 115.384676,231.240464 115.973392,231.942885 C116.98941,233.162989 117.932296,235.81194 119.651953,237.987044 C123.879006,243.312604 126.58804,247.522954 130.985388,253.92615 C132.264161,255.788139 133.227942,260.413366 137.003142,259.153079 C138.258407,254.86706 136.256146,251.11177 136.364278,246.817923 C136.493304,241.531503 138.670561,236.156888 138.339375,231.46956 C138.077666,227.752888 135.31326,222.119954 133.446294,217.47594 C132.241699,214.464298 130.466148,211.28253 129.08499,208.007872 C127.71219,204.705555 125.669706,201.04159 122.681202,197.149574 C121.041991,195.021437 116.828519,193.487175 118.042517,189.871743 C125.202181,190.923287 127.569582,195.678456 132.553556,198.417167 C133.606141,201.076555 134.703649,203.930596 135.957348,206.65626 C137.11284,209.160134 137.690064,212.890896 140.596555,213.93409 C145.565903,210.137052 145.699109,200.089199 151.624924,197.521137 C148.65627,193.892137 143.111266,192.249328 141.779733,187.34856 C147.44175,185.714623 149.296179,179.167915 152.396994,174.22853 C164.815401,175.597885 169.173048,188.865079 165.077633,197.02485 C163.017911,199.892459 157.65417,198.502751 155.589224,201.376101 C154.108815,204.121074 151.441048,207.711978 149.790868,211.773077 C147.511748,217.399749 144.692493,224.981301 147.53421,229.308546 C151.238367,227.285303 154.541341,224.73968 157.442086,221.66959 C162.213976,223.148014 164.215715,221.055363 168.556124,221.984792 C164.148329,228.739721 154.217991,231.661604 148.603511,238.358085 C146.586623,240.766459 143.329618,244.937669 142.805154,248.756626 C142.541355,250.646795 144.578616,253.395421 145.108826,256.852208 C145.525158,259.565347 144.503916,263.660366 145.076961,265.760322 C146.191708,269.890306 150.014966,273.914352 151.345454,277.706694 C149.475353,279.546765 146.566773,280.052967 146.107083,283.717975 C151.193965,284.734555 150.666889,290.076814 156.371218,290.605978 C156.677852,295.643473 160.447828,298.004358 164.027138,300.503014 C165.374342,301.477844 164.244968,304.625169 165.511204,306.263281 C165.818882,306.656762 167.440332,306.141689 167.705176,306.545607 C168.351353,307.537137 167.68846,309.073486 168.383218,309.974213 C168.911339,310.665153 171.093819,310.813883 171.532614,311.496995 C172.251401,312.623164 172.252446,314.596309 173.166601,316.160317 C175.001702,319.324863 177.720661,323.29568 179.430393,328.10721 C182.060026,329.700443 184.43474,331.487284 186.548789,333.479216 C187.351679,336.481986 187.066462,340.325992 189.948924,341.717787 C189.338268,341.633246 188.596497,342.439516 189.807361,342.817342 C189.85124,344.424142 193.033545,343.613697 192.812581,345.427153 C191.502988,345.143784 191.935514,346.934279 192.812581,345.427153 C195.704968,347.919546 201.118857,352.148161 204.855401,355.885708 C205.696424,356.735814 204.134002,357.591661 205.669783,358.2205 C207.698685,359.048689 207.970842,359.173934 208.537618,361.93091 C207.426528,361.80462 206.910422,363.676003 208.255536,364.122191 C208.349041,363.394721 208.443068,362.664642 208.537618,361.93091 C215.479452,364.836093 217.361045,379.822809 225.779109,375.28682 C223.494765,368.165546 220.040826,361.942913 222.159576,351.424344 C217.509921,347.330891 221.589666,341.017454 222.222784,333.602896 C222.768665,327.157951 219.737326,323.342648 219.805757,317.697189 C215.823697,314.429836 214.573655,309.116279 212.582363,304.509839 C211.953947,303.059596 212.759971,301.435052 212.048497,299.99368 C211.055463,297.989224 205.416431,294.455202 207.83398,289.422404 C209.582889,289.418751 211.134864,291.13723 211.935664,292.173117 C213.222795,293.844628 212.852953,295.661216 213.569129,296.84218 C215.082447,299.342923 216.874714,301.784697 218.207814,304.120011 C219.02533,305.565036 220.27067,306.220489 221.075649,307.830421 C221.817421,309.322934 221.911448,311.183358 222.704935,312.497396 C224.081914,314.809749 225.313151,318.194519 228.581125,318.82388 C230.9339,315.474596 233.007726,311.76523 233.5651,306.092634 C234.441644,302.540347 239.681582,304.636128 239.895233,300.224342 C237.584771,298.389489 233.205184,298.144216 234.019043,293.897336 C236.932325,288.717896 240.89349,284.894243 247.496303,284.487194 C251.047927,288.989262 255.714298,292.630787 254.304409,300.96277 C251.6403,303.05803 248.436055,304.450869 242.91299,302.833631 C243.27604,306.371828 240.858491,309.432003 239.444946,312.419639 C236.353534,318.954866 232.564753,325.725973 228.941563,333.35397 C225.428073,340.768005 227.460632,350.964587 228.988055,358.985022 C229.484311,361.589615 229.550652,364.395645 230.198396,366.940746 C230.787112,369.270842 233.20884,371.23668 231.5456,373.803699 C237.089037,379.07029 241.984208,384.833167 242.315394,394.121716 C244.774732,394.73803 244.504665,396.454421 246.276037,397.973027 C247.780997,399.259407 250.097728,399.481197 251.482542,400.871426 C256.276373,405.694437 257.938046,414.11044 266.23962,416.138902 C269.967284,411.602913 263.778192,404.956008 264.11669,398.040347 C264.187211,396.467467 265.421582,392.698087 266.342528,389.408295 C268.577768,381.379511 270.170488,377.92168 276.943595,376.286699 C274.548508,383.737787 270.818754,388.711093 270.557567,399.979571 C270.517344,401.697005 270.531971,405.326527 270.804128,406.694839 C270.913304,407.252183 272.724376,407.634183 272.853403,408.070456 C273.688157,410.789858 274.313439,413.188317 276.256672,416.313202 C277.662904,418.561888 278.064088,421.613713 278.287664,426.591194 C282.131295,426.427852 282.136519,430.25568 284.300194,431.824385 C285.612921,432.781995 287.458469,432.862883 288.54762,433.481284 C289.118575,433.805358 290.001388,435.418943 291.700672,435.004066 C294.857381,424.41609 294.063372,405.617202 297.483879,390.066358 C298.067372,387.385052 299.943741,384.346273 300.802002,381.580948 C301.894287,378.080847 300.517308,371.705309 305.365987,372.143148 C308.174272,373.980087 307.958532,377.447833 306.569016,380.092087 C310.667043,380.157842 311.455828,387.839068 307.246013,383.526956 C308.556128,383.801975 308.127258,382.020352 307.246013,383.526956 C305.069279,384.966762 305.255244,388.220025 304.065275,390.911768 C303.002243,393.321708 301.72347,394.466664 301.020877,397.210071 C300.583127,398.946814 301.637279,401.211678 301.416837,402.831525 C299.558228,416.245883 294.587836,431.883355 299.629271,442.710863 C303.122389,442.968139 302.922842,446.087284 307.030272,445.884803 C305.434941,448.692921 308.598963,448.369891 309.897063,449.601475 C312.027306,451.626284 313.291974,453.821219 316.870762,456.067295 C317.785439,456.632467 319.919339,456.840689 321.117666,457.724716 C322.301366,458.599872 322.554195,460.311566 323.985501,461.434604 C324.991072,462.221566 327.095196,463.393658 328.095543,464.186361 C331.604855,466.973604 334.995065,470.588514 341.65116,471.497068 C344.38579,474.384508 349.947511,479.735639 353.292796,476.340432 C351.665078,470.352112 350.233249,464.214019 346.492004,459.871639 C346.603792,457.470571 346.926619,454.129637 346.38335,452.051077 C346.153505,451.185314 343.583423,450.245448 343.369772,449.441265 C342.565315,446.264716 344.27139,441.446402 340.115901,440.104705 C339.845311,431.080216 339.126524,421.093421 338.010732,413.103776 C336.748153,404.05215 343.082988,397.734016 345.643145,388.457992 C345.50994,384.281041 341.177889,383.346915 341.282886,378.98053 C344.002889,374.218055 349.331631,368.650874 354.768504,369.568822 C359.04884,370.293683 360.629023,375.730921 363.657227,378.511902 C362.041523,381.537634 361.66019,386.162861 360.052844,389.19068 C356.578532,389.809604 352.399014,389.516842 350.705476,392.444464 C349.203127,396.249331 346.976767,399.609052 344.769735,403.941516 C344.109454,405.232071 343.442382,406.005464 343.103883,408.185787 C342.642626,411.198995 344.922791,414.965243 344.98861,419.569596 C345.025699,421.841243 343.804387,425.155563 344.001845,427.23882 C344.334597,430.820331 347.676749,434.936746 345.88187,438.621585 C348.75493,439.635555 348.869852,443.954451 350.379514,446.992708 C351.474411,449.197036 352.525951,452.727404 353.501224,457.425691 C354.353216,461.550978 354.484332,465.166932 356.616142,467.849803 C357.730889,469.258298 359.033169,472.182268 361.399525,474.033298 C362.008614,482.092872 365.722696,485.523044 372.732438,489.978667 C377.000237,492.690762 381.933019,494.58041 388.485162,497.574309 C393.875543,500.035913 397.006133,501.447538 403.274626,503.927407 C404.076994,504.244175 404.381016,504.182596 404.234228,505.16682 C400.141425,502.854989 403.235971,509.85206 400.375448,509.12459 L400.375448,509.12459 Z M184.209074,334.296967 C184.853684,333.799637 183.600508,332.789842 183.25783,333.056511 C182.618444,333.549667 183.870575,334.559462 184.209074,334.296967 L184.209074,334.296967 Z M296.684124,422.27282 C297.327689,421.781751 296.071379,420.771956 295.724,421.037582 C295.085136,421.52865 296.345626,422.540011 296.684124,422.27282 L296.684124,422.27282 Z M277.048592,427.550369 C277.6885,427.059301 276.427489,426.048462 276.089512,426.309391 C275.445425,426.806199 276.698079,427.815995 277.048592,427.550369 L277.048592,427.550369 Z M291.41859,437.198478 C291.368442,435.923579 290.396303,436.443872 290.317425,437.057055 C290.364438,438.323082 291.339711,437.809052 291.41859,437.198478 L291.41859,437.198478 Z M233.942776,433.155645 C234.05143,432.088967 232.708405,432.13176 231.894546,431.774809 C231.780668,432.849836 233.123693,432.805478 233.942776,433.155645 L233.942776,433.155645 Z" id="Fill-3" sketch:type="MSShapeGroup"></path>
                <path d="M181.452504,260.408669 C175.85474,270.012943 181.20072,279.116754 187.971737,279.06509 C200.709315,278.978984 194.979912,256.933617 181.452504,260.408669" id="Fill-4" sketch:type="MSShapeGroup"></path>
                <path d="M304.081468,347.465008 C303.642674,352.411178 301.836826,356.561514 299.909264,362.522697 C301.412658,363.344623 302.372782,364.579861 302.776055,366.238847 C309.594086,367.807552 313.542714,365.673675 316.648753,362.448593 C318.917425,352.722727 313.572489,344.98253 304.081468,347.465008" id="Fill-5" sketch:type="MSShapeGroup"></path>
                <path d="M189.948924,341.717787 C189.901911,342.081522 189.854897,342.445257 189.807361,342.817342 C190.41436,342.895098 191.165012,342.083609 189.948924,341.717787" id="Fill-6" sketch:type="MSShapeGroup"></path>
                <path d="M387.104004,421.6325 C383.294327,420.539208 382.066747,422.790503 380.09844,424.07897 C380.564398,425.030839 381.011028,426.002538 380.772826,427.501314 C383.462009,427.997079 386.03836,428.346202 387.491083,427.252388 C388.174349,424.758951 387.858835,423.02012 387.104004,421.6325" id="Fill-7" sketch:type="MSShapeGroup"></path>
                <path d="M411.097706,503.820426 C412.321629,495.304227 407.17154,491.708104 408.152037,483.386557 C405.955452,482.775462 405.516135,480.817451 404.184603,479.528984 C405.365169,470.734112 398.556018,468.077333 398.907054,459.915997 C394.425081,458.713115 393.231978,451.48173 396.877107,449.631743 C404.062367,450.996402 400.781333,460.442552 407.536679,462.141721 C410.577421,458.401566 408.807094,448.436167 412.947434,446.123292 C410.617644,442.644587 403.585439,442.810016 404.059233,437.17656 C406.662747,429.895598 412.726992,427.087481 420.97215,427.094787 C424.134082,435.582284 422.169432,444.677224 413.899722,447.357486 C417.56888,457.244607 412.3373,470.94703 412.685724,482.851131 C412.728559,484.722514 413.706966,487.220126 414.028226,489.713041 C414.630524,494.369579 414.82537,495.636128 416.195036,498.903481 C417.039193,500.912634 418.234908,505.464801 420.6885,507.280344 C422.16682,509.759169 425.862619,510.522126 430.282952,510.736609 C431.812986,514.130773 434.544482,517.334459 438.07051,519.538265 C443.119781,522.70229 449.933111,522.64071 456.299288,525.225473 C457.91029,525.876751 459.878597,528.071164 462.45756,529.358587 C463.981848,530.111107 466.216044,530.367861 467.80145,531.156388 C469.294396,531.899514 470.495858,533.463522 471.91097,533.914929 C471.337925,533.734366 474.535901,534.20456 476.298915,534.478536 C478.022751,534.734768 480.425151,535.443973 480.827901,533.941544 C482.043467,530.733683 478.765045,528.548664 477.426721,525.711844 C476.312497,523.338434 475.163795,520.020984 474.027109,517.473273 C469.679386,507.739579 463.339328,496.194516 468.664413,481.129 C467.433176,475.830577 460.49291,474.926719 460.197768,468.905522 C463.351865,464.027194 468.149352,461.282743 472.723262,458.254923 C478.094838,460.03185 479.47234,464.901306 485.043985,466.525328 C483.719766,470.834309 485.291068,472.918609 484.872124,476.526735 C482.824939,480.699511 476.960763,479.936033 474.008303,482.927322 C473.388245,486.374716 476.458762,486.972243 475.218645,490.883046 C473.091536,501.08276 477.428811,506.288814 477.741191,514.608273 C480.950659,514.829019 480.584997,518.787833 481.419229,520.65191 C482.309878,522.620358 485.111894,524.760497 483.8723,527.65159 C488.629041,527.071806 489.761549,533.074738 492.752665,536.591538 C493.543017,537.517314 494.158374,536.891607 494.80194,537.966634 C495.346254,538.854836 494.952384,538.49371 495.761542,539.207612 C497.462393,540.69856 499.933746,540.771098 502.065034,542.241172 C503.818645,543.453448 504.233932,545.11974 506.034035,546.09718 C507.545786,546.91441 509.934082,546.102921 511.522623,546.80221 C512.040818,547.025044 511.934776,548.87503 512.33387,549.130219 C513.173848,549.66982 514.775448,549.020628 515.616471,549.55188 C516.673757,550.225598 517.194564,551.614262 518.633184,552.169519 C519.397417,552.464369 519.962626,550.952546 520.963496,551.356464 C521.276921,551.481189 523.925881,553.626025 526.165823,554.254863 C528.187934,554.81847 530.505187,554.555454 532.751397,555.100795 C536.22362,555.935246 539.201677,557.895866 542.342192,558.556016 C550.458323,560.272407 557.801341,558.556016 565.527258,560.42218 C566.804464,560.730077 571.552325,561.243585 571.685531,564.554773 C548.490016,567.314358 522.464278,559.229735 506.566857,550.619079 C504.011923,551.15868 501.991379,552.374609 498.597512,551.826137 C493.580628,548.127208 489.019777,544.080721 480.796037,542.855399 C477.785593,543.258273 475.72587,544.782098 472.690353,545.15627 C467.899657,545.743361 462.83158,543.974784 458.289534,544.418363 C456.956435,544.545697 455.224763,545.723008 453.619507,546.048648 C449.501107,546.876314 448.119426,546.996863 444.416837,548.208617 C442.784939,548.739347 439.980311,549.813852 437.412318,550.648825 C433.426079,551.953992 426.376113,557.654246 420.248661,554.016374 C422.28122,547.653361 430.125717,547.256749 435.927207,544.888557 C437.695445,544.163697 439.122572,542.69832 440.734619,542.163937 C448.184723,539.713292 458.985337,541.663475 462.990904,533.881008 C448.369644,530.346464 437.647909,523.816978 423.52865,519.900434 C417.660818,523.479858 408.563668,520.60129 399.779419,522.419964 C398.185655,522.753954 395.713257,524.378497 393.867708,525.003161 C391.996563,525.634087 389.812515,526.010869 388.100694,526.492022 C385.982466,527.091115 383.319401,527.32282 381.237216,527.838415 C380.658948,527.979839 379.181151,529.678486 378.764818,529.751025 C375.324983,530.326634 372.949746,530.397085 369.562148,531.910995 C367.911967,532.64838 366.468647,533.762025 364.751602,534.635093 C361.270499,536.393232 356.403014,537.155145 354.988424,541.180235 C354.264413,545.684913 356.011233,548.287418 354.533958,553.375533 C345.402853,557.504995 333.323989,550.23447 330.146385,543.561995 C333.640026,537.422858 337.992972,532.40415 345.147412,531.004527 C346.025523,532.618112 348.66038,532.896262 349.111711,534.855839 C357.392913,529.373199 367.186911,525.842831 376.45749,521.654399 C379.015558,521.983169 381.577805,522.312462 384.140051,522.641232 C384.651456,520.745844 386.347605,520.384719 388.806422,521.010948 C388.913509,516.883052 394.353516,519.661423 394.996037,516.235948 C400.828347,516.954546 404.236318,514.547216 407.775405,512.305314 C406.025973,510.365046 402.512482,509.782131 404.234228,505.16682 C407.354371,505.795658 409.844007,505.602049 411.097706,503.820426 L411.097706,503.820426 Z M339.349578,541.395762 C337.531193,540.754921 337.162396,541.988071 336.865165,543.306806 C337.829991,543.226962 337.854542,543.869369 337.824767,544.548306 C339.131226,544.530563 339.00899,542.66753 339.349578,541.395762 L339.349578,541.395762 Z M346.318575,547.862626 C346.267905,546.593989 345.296811,547.109063 345.21741,547.721724 C345.272259,548.994536 346.240219,548.473199 346.318575,547.862626 L346.318575,547.862626 Z" id="Fill-8" sketch:type="MSShapeGroup"></path>
                <path d="M188.20785,407.228699 C185.291956,406.865486 181.991595,406.010683 180.384771,407.33568 C179.898963,410.022727 179.542703,412.599661 180.639689,414.049904 C186.965644,416.148817 190.158919,412.212443 188.20785,407.228699" id="Fill-9" sketch:type="MSShapeGroup"></path>
                <path d="M251.421425,496.683497 C252.814597,493.407273 261.041472,492.209087 261.991671,492.468973 C266.203576,493.601926 268.639931,501.206962 269.364464,504.55729 C262.144205,513.888109 247.582495,505.699637 251.421425,496.683497 L251.421425,496.683497 Z M259.770535,501.095806 C259.67703,499.680005 257.734842,499.711839 257.580742,500.814525 C258.4693,501.610358 259.369352,502.390014 259.770535,501.095806 L259.770535,501.095806 Z" id="Fill-11" sketch:type="MSShapeGroup"></path>
            </g>
        </g>
    </g>
</svg>