<?xml version="1.0" encoding="UTF-8" standalone="no"?>
<svg width="185px" height="49px" viewBox="0 0 185 49" version="1.1" xmlns="http://www.w3.org/2000/svg" xmlns:xlink="http://www.w3.org/1999/xlink" xmlns:sketch="http://www.bohemiancoding.com/sketch/ns">
    <!-- Generator: Sketch 3.4 (15588) - http://www.bohemiancoding.com/sketch -->
    <title>Group</title>
    <desc>Created with Sketch.</desc>
    <defs></defs>
    <g id="Page-1" stroke="none" stroke-width="1" fill="none" fill-rule="evenodd" sketch:type="MSPage">
        <g id="HOMEPAGE" sketch:type="MSArtboardGroup" transform="translate(-42.000000, -43.000000)" fill="#F9E35F">
            <g id="Group" sketch:type="MSLayerGroup">
                <g transform="translate(42.000000, 43.000000)" sketch:type="MSShapeGroup">
                    <path d="M16.7141837,27.5706667 C16.0358503,27.5706667 14.5596259,27.3796923 11.7632313,27.3796923 C8.73904762,27.3796923 5.60159864,27.5317179 2.95496599,27.5317179 C1.02693878,27.5317179 0.421598639,26.9638205 0.421598639,26.3607436 C0.421598639,26.2099744 0.460612245,26.0592051 0.534863946,25.9096923 C1.02693878,24.8141026 10.2882653,7.2645641 10.5890476,2.24646154 C10.742585,1.26394872 12.0640136,0.434717949 15.0894558,0.434717949 C17.397551,0.434717949 19.8151361,0.659615385 19.8151361,1.98010256 C19.8151361,2.16982051 19.7786395,2.35953846 19.6641156,2.5844359 C19.247551,3.49030769 11.0798639,19.7934872 11.0798639,20.9267692 C11.0798639,21.756 12.2565646,21.832641 13.0091497,21.832641 C17.9248639,21.832641 18.682483,17.4553077 19.8893878,17.4553077 C20.2681973,17.4553077 22.0464626,17.7191538 22.0464626,19.6075385 C22.0464626,21.6441795 19.3998299,27.5706667 16.7141837,27.5706667" id="Fill-9"></path>
                    <path d="M30.1348639,22.0964872 C30.1348639,23.4936154 31.7621088,23.9082308 33.8776531,23.9082308 C37.0163605,23.9082308 37.6984694,23.0011026 38.1892857,23.0011026 C38.490068,23.0011026 38.682619,23.1908205 38.682619,23.4546667 C38.682619,24.5502564 37.8129932,25.795359 37.1308844,26.4738205 C35.694932,27.9098974 33.9179252,28.4765385 30.8182313,28.4765385 C24.959898,28.4765385 22.9915986,25.1545897 22.9915986,21.832641 C22.9915986,17.8322308 25.9792857,9.26728205 36.6023129,9.26728205 C38.4548299,9.26728205 42.3851361,10.0575641 42.3851361,13.8695128 C42.3851361,18.9642564 36.8665986,21.832641 30.3991497,21.832641 C30.2141497,21.832641 30.1348639,22.0964872 30.1348639,22.0964872 L30.1348639,22.0964872 Z M34.8240476,13.6044103 C32.4404422,13.6044103 30.8547279,16.0204872 30.8547279,17.1525128 C30.8547279,17.493 31.0812585,17.5294359 31.4978231,17.5294359 C34.1079592,17.5294359 36.1857483,16.3584615 36.1857483,14.5869231 C36.1857483,13.8695128 35.5791497,13.6044103 34.8240476,13.6044103 L34.8240476,13.6044103 Z" id="Fill-10"></path>
                    <path d="M73.5733673,13.3418205 C73.5733673,16.5506923 67.5979932,26.7389231 66.6515986,30.2870256 C66.5760884,30.6275128 66.5005782,31.0044359 65.3276531,31.0044359 C63.1378571,31.0044359 61.3595918,29.155 61.3595918,27.6824872 C61.3595918,24.8517949 65.7870068,18.2468462 65.7870068,16.4727949 C65.7870068,15.9086667 65.482449,15.5292308 64.6505782,15.5292308 C61.6628912,15.5292308 59.3560544,22.0600513 57.8080952,25.1545897 C57.0542517,26.7012308 55.1639796,26.9638205 53.082415,26.9638205 C51.0411224,26.9638205 50.4382993,26.5140256 50.4382993,25.9461282 C50.4382993,25.7576667 50.5138095,25.6081538 50.5880612,25.4184359 C51.2701701,24.0213077 54.8204082,17.7581026 54.8204082,16.3232821 C54.8204082,15.8684615 54.4441156,15.4915385 53.6877551,15.4915385 C50.4018027,15.4915385 46.2789456,25.6081538 46.2789456,25.6081538 C45.6345918,26.928641 43.9368707,27.3796923 41.8955782,27.3796923 C39.7020068,27.3796923 38.9431293,26.928641 38.9431293,26.3996923 C38.9431293,26.2866154 38.9834014,26.1722821 39.0576531,26.0227692 C39.8895238,24.3982308 42.4996599,19.3034872 44.3484014,15.1912564 C45.7868707,11.9811282 46.3896939,10.0575641 46.3896939,7.86889744 C46.3896939,6.39764103 46.049898,5.90638462 46.049898,5.56464103 C46.049898,5.07589744 46.6552381,4.96282051 47.6016327,4.96282051 C49.9839796,4.96282051 53.1214286,6.39764103 53.1214286,8.84889744 C53.1214286,10.2849744 52.555102,11.3793077 52.555102,11.7160256 C52.555102,11.7939231 52.5915986,11.8316154 52.6683673,11.8316154 C52.742619,11.8316154 52.8219048,11.8316154 52.9313946,11.7549744 C52.9313946,11.7549744 54.8984354,9.52987179 58.1478912,9.52987179 C59.2830612,9.52987179 61.247585,9.5675641 61.7409184,11.8705641 C61.7409184,11.8705641 61.777415,12.1344103 61.967449,12.1344103 C62.0429592,12.1344103 62.154966,12.0942051 62.2694898,11.9459487 C62.2694898,11.9459487 64.8783673,9.37910256 68.9596939,9.37910256 C70.1338776,9.37910256 73.5733673,9.83141026 73.5733673,13.3418205 Z" id="Fill-11"></path>
                    <path d="M81.0589456,28.2101795 C79.0919048,28.2101795 73.1215646,27.4563333 73.1215646,21.4180256 C73.1215646,17.1525128 76.5232993,9.0775641 88.3570068,9.0775641 C90.8136054,9.0775641 94.367619,9.79497436 94.367619,10.8126667 C94.367619,11.417 93.4212245,12.397 92.8146259,12.8505641 C92.5918707,13.0390256 92.4773469,13.1897949 92.4773469,13.2274872 C92.4773469,13.643359 93.9485374,14.2841282 93.9485374,17.2668462 C93.9485374,22.3967692 89.5664286,28.2101795 81.0589456,28.2101795 L81.0589456,28.2101795 Z M85.672619,13.9448974 C82.1966327,13.9448974 79.8507823,18.6627179 79.8507823,21.4180256 C79.8507823,23.3792821 80.9481973,23.7938974 82.0053401,23.7938974 C85.482585,23.7938974 87.4886395,19.0383846 87.4886395,16.3986667 C87.4886395,14.5492308 86.6555102,13.9448974 85.672619,13.9448974 L85.672619,13.9448974 Z" id="Fill-12"></path>
                    <path d="M99.697381,25.5704615 C98.9057823,27.0417179 97.3188095,27.3796923 95.277517,27.3796923 C93.0839456,27.3796923 92.3288435,26.928641 92.3288435,26.3607436 C92.3288435,26.2501795 92.3653401,26.1371026 92.4395918,25.9850769 C93.234966,24.3241026 95.8828571,19.2670513 97.7353741,15.1523077 C99.1713265,11.9459487 99.7779252,10.0211282 99.7779252,7.82994872 C99.7779252,6.88764103 99.6231293,6.321 99.4746259,5.75435897 C99.4746259,5.68023077 99.4356122,5.64253846 99.4356122,5.56464103 C99.4356122,5.03946154 100.042211,4.96282051 100.98483,4.96282051 C103.369694,4.96282051 106.504626,6.3574359 106.504626,8.81246154 C106.504626,10.2095897 106.012551,11.2272821 106.012551,11.5665128 C106.012551,11.6431538 106.012551,11.6808462 106.08932,11.6808462 C106.16483,11.6808462 106.275578,11.6431538 106.429116,11.5288205 C106.429116,11.5288205 109.228027,9.18812821 112.326463,9.18812821 C114.141224,9.18812821 116.750102,9.5675641 116.750102,13.0390256 C116.750102,16.2843333 111.153537,25.0616154 109.78932,29.9289487 L109.78932,30.0043333 C109.71381,30.3071282 109.638299,30.6476154 108.467891,30.6476154 C106.237823,30.6476154 104.462075,28.7969231 104.462075,27.2892308 C104.462075,24.4949744 108.847959,18.2104103 108.847959,16.436359 C108.847959,15.8684615 108.696939,15.2653846 107.677551,15.2653846 C103.59119,15.2653846 100.456259,24.135641 99.697381,25.5704615" id="Fill-13"></path>
                    <path d="M138.303231,5.64253846 C137.656361,6.28205128 136.864762,6.28205128 136.070646,6.28205128 C135.05,6.28205128 134.36915,6.13253846 133.800306,6.13253846 C133.387517,6.13253846 133.082959,6.20792308 132.817415,6.47302564 C131.08068,8.20938462 124.123673,24.2097692 123.330816,26.1722821 C122.535442,28.0229744 119.437007,28.3245128 116.941395,28.3245128 C114.974354,28.3245128 114.030476,27.608359 114.030476,27.0027692 C114.030476,26.8896923 114.070748,26.7778718 114.145,26.6635385 C114.332517,26.3996923 124.046905,8.24582051 124.046905,6.54841026 C124.046905,6.24812821 123.291803,6.13253846 122.38568,6.13253846 C121.214014,6.13253846 119.776803,6.321 119.245714,6.51071795 C119.095952,6.58484615 118.943673,6.58484615 118.830408,6.58484615 C118.564864,6.58484615 118.416361,6.43407692 118.416361,6.02071795 C118.416361,5.68023077 118.868163,3.63982051 121.02398,1.49010256 C121.85585,0.659615385 122.877755,0.434717949 124.804524,0.434717949 C128.281769,0.434717949 130.889388,0.850589744 133.082959,0.850589744 C139.546633,0.850589744 139.852449,0.397025641 140.192245,0.397025641 C140.266497,0.397025641 140.641531,0.397025641 140.641531,0.887025641 C140.641531,2.66107692 138.980306,5.00176923 138.303231,5.64253846" id="Fill-14"></path>
                    <path d="M144.498844,17.5294359 C143.595238,17.5294359 144.272313,15.9827949 142.193265,15.9827949 C138.111939,15.9827949 135.236259,24.6645897 134.483673,26.0981538 C133.687041,27.5706667 132.136565,27.9098974 130.096531,27.9098974 C127.904218,27.9098974 127.150374,27.4927692 127.150374,26.928641 C127.150374,26.8143077 127.185612,26.6635385 127.262381,26.5140256 C127.904218,25.2676667 129.756735,21.4934103 131.344966,18.1714615 C133.008707,14.6987436 134.669932,10.9646923 134.669932,8.99966667 L134.669932,8.69938462 C134.669932,8.24582051 134.784456,7.94302564 135.995136,7.94302564 C137.960918,7.94302564 140.832823,8.32120513 140.832823,10.5865128 C140.832823,11.0023846 140.645306,11.4534359 140.645306,11.6431538 C140.645306,11.8705641 140.871837,11.7549744 141.100884,11.5665128 C141.28966,11.3793077 143.595238,9.68189744 145.936054,9.68189744 C147.297755,9.68189744 147.900578,10.437 147.900578,11.5665128 C147.900578,14.6623077 145.861803,17.5294359 144.498844,17.5294359" id="Fill-15"></path>
                    <path d="M172.63017,22.0964872 C172.63017,23.4936154 174.257415,23.9082308 176.372959,23.9082308 C179.511667,23.9082308 180.192517,23.0011026 180.682075,23.0011026 C180.985374,23.0011026 181.17415,23.1908205 181.17415,23.4546667 C181.17415,24.5502564 180.305782,25.795359 179.624932,26.4738205 C178.186463,27.9098974 176.409456,28.4765385 173.312279,28.4765385 C167.451429,28.4765385 165.486905,25.1545897 165.486905,21.832641 C165.486905,17.8322308 168.473333,9.26728205 179.096361,9.26728205 C180.947619,9.26728205 184.877925,10.0575641 184.877925,13.8695128 C184.877925,18.9642564 179.360646,21.832641 172.895714,21.832641 C172.70568,21.832641 172.63017,22.0964872 172.63017,22.0964872 L172.63017,22.0964872 Z M177.319354,13.6044103 C174.93449,13.6044103 173.348776,16.0204872 173.348776,17.1525128 C173.348776,17.493 173.575306,17.5294359 173.990612,17.5294359 C176.59949,17.5294359 178.679796,16.3584615 178.679796,14.5869231 C178.679796,13.8695128 178.076973,13.6044103 177.319354,13.6044103 L177.319354,13.6044103 Z" id="Fill-17"></path>
                    <path d="M153.611667,22.0964872 C153.611667,23.4936154 155.238912,23.9082308 157.354456,23.9082308 C160.491905,23.9082308 161.174014,23.0011026 161.66483,23.0011026 C161.969388,23.0011026 162.155646,23.1908205 162.155646,23.4546667 C162.155646,24.5502564 161.287279,25.795359 160.607687,26.4738205 C159.170476,27.9098974 157.393469,28.4765385 154.295034,28.4765385 C148.434184,28.4765385 146.46966,25.1545897 146.46966,21.832641 C146.46966,17.8322308 149.45483,9.26728205 160.076599,9.26728205 C161.927857,9.26728205 165.859422,10.0575641 165.859422,13.8695128 C165.859422,18.9642564 160.342143,21.832641 153.875952,21.832641 C153.688435,21.832641 153.611667,22.0964872 153.611667,22.0964872 L153.611667,22.0964872 Z M158.302109,13.6044103 C155.917245,13.6044103 154.330272,16.0204872 154.330272,17.1525128 C154.330272,17.493 154.558061,17.5294359 154.974626,17.5294359 C157.582245,17.5294359 159.66381,16.3584615 159.66381,14.5869231 C159.66381,13.8695128 159.055952,13.6044103 158.302109,13.6044103 L158.302109,13.6044103 Z" id="Fill-16"></path>
                    <path d="M49.4314966,45.8828462 C49.4352721,45.8903846 49.4314966,45.8828462 49.4352721,45.8903846 C49.6026531,46.5047692 50.3288095,46.9646154 51.1946599,46.9646154 C52.0730952,46.9646154 52.8030272,46.4947179 52.9615986,45.8753077 L52.9641156,45.8715385 C53.5405102,45.5750256 52.9578231,45.2948462 52.9464966,45.2948462 L52.9464966,45.297359 C52.7514286,44.7106154 52.0428912,44.274641 51.1946599,44.274641 C50.3502041,44.274641 49.6467007,44.6955385 49.4541497,45.2822821 L49.4516327,45.2948462 C49.4428231,45.2948462 48.857619,45.5750256 49.4314966,45.8727949 L49.4314966,45.8828462" id="Fill-1"></path>
                    <path d="M131.395306,45.8828462 C131.397823,45.8903846 131.395306,45.8828462 131.397823,45.8903846 C131.566463,46.5047692 132.292619,46.9646154 133.162245,46.9646154 C134.036905,46.9646154 134.766837,46.4947179 134.929184,45.8753077 L134.929184,45.8715385 C135.50432,45.5750256 134.920374,45.2948462 134.911565,45.2948462 L134.909048,45.297359 C134.716497,44.7106154 134.007959,44.274641 133.162245,44.274641 C132.314014,44.274641 131.61051,44.6955385 131.417959,45.2822821 L131.414184,45.2948462 C131.405374,45.2948462 130.822687,45.5750256 131.395306,45.8727949 L131.395306,45.8828462" id="Fill-2"></path>
                    <path d="M64.5977211,48.9208462 C64.2327551,48.9208462 63.9093197,48.6921795 63.7520068,48.4044615 L62.2355102,45.7697692 L60.6208503,45.7697692 L60.6208503,47.9295385 C60.6208503,48.2612308 60.4471769,48.5929231 60.1501701,48.7788718 C59.9764966,48.8781282 59.749966,48.9208462 59.5435714,48.9208462 C59.1760884,48.9208462 58.832517,48.635641 58.832517,48.2825897 C58.832517,48.0740256 58.9218707,47.8642051 59.1307823,47.7636923 C59.1886735,47.7322821 59.2427891,47.6996154 59.2427891,47.6430769 L59.2427891,42.3284615 C59.2427891,42.2744359 59.1886735,42.2392564 59.1307823,42.2065897 C58.9218707,42.1098462 58.832517,41.8975128 58.832517,41.6889487 C58.832517,41.3358974 59.1635034,41.0481795 59.5322449,41.0481795 L62.5677551,41.0481795 C63.9344898,41.0481795 65.0218367,42.0972821 65.0218367,43.4102308 C65.0218367,44.3362051 64.4731293,45.1415641 63.6689456,45.5159744 L64.8154422,47.5111538 C64.8393537,47.5551282 64.9073129,47.5551282 64.9740136,47.5551282 C65.3087755,47.5551282 65.5390816,47.8855641 65.5390816,48.194641 C65.5390816,48.6482051 65.0696599,48.9208462 64.5977211,48.9208462 L64.5977211,48.9208462 Z M60.6208503,44.4681282 L62.5677551,44.4681282 C63.1756122,44.4681282 63.6689456,43.9932051 63.6689456,43.4102308 C63.6689456,42.8247436 63.1756122,42.3736923 62.5677551,42.3736923 L60.5730272,42.3736923 C60.6082653,42.4490769 60.6208503,42.6036154 60.6208503,42.6915641 L60.6208503,44.4681282 L60.6208503,44.4681282 Z" id="Fill-3"></path>
                    <path d="M72.1210544,48.9208462 C71.7548299,48.9208462 71.4351701,48.6482051 71.4351701,48.2825897 C71.4351701,48.0614615 71.5144558,47.8642051 71.7070068,47.7523846 C71.78,47.7184615 71.8240476,47.6757436 71.8240476,47.6116667 L71.8240476,42.3837436 C71.8240476,42.3071026 71.78,42.2505641 71.7070068,42.2191538 C71.5144558,42.1098462 71.4351701,41.9088205 71.4351701,41.6889487 C71.4351701,41.3258462 71.7548299,41.0481795 72.1210544,41.0481795 L76.6491497,41.0481795 C77.0267007,41.0481795 77.3262245,41.3585128 77.3262245,41.7090513 C77.3262245,42.0847179 77.0267007,42.3736923 76.6491497,42.3736923 L73.1303741,42.3736923 C73.1870068,42.4603846 73.1995918,42.6036154 73.1995918,42.6915641 L73.1995918,44.4342051 L76.017381,44.4342051 C76.3747959,44.4342051 76.6957143,44.7106154 76.6957143,45.0498462 C76.6957143,45.4255128 76.394932,45.7345897 76.017381,45.7345897 L73.1995918,45.7345897 L73.1995918,47.2686667 C73.1995918,47.355359 73.1870068,47.5325128 73.1303741,47.5991026 L76.6264966,47.5991026 C77.0053061,47.5991026 77.3136395,47.9094359 77.3136395,48.2712821 C77.3136395,48.6255897 77.0053061,48.9208462 76.6264966,48.9208462 L72.1210544,48.9208462" id="Fill-4"></path>
                    <path d="M89.8810544,47.6116667 C89.9162925,47.6895641 89.9829932,47.6895641 90.0647959,47.7096667 C90.2573469,47.775 90.4096259,48.0287949 90.4096259,48.2386154 C90.4096259,48.6255897 90.0534694,48.9208462 89.6633333,48.9208462 C89.2253741,48.9208462 88.8264286,48.6029744 88.6766667,48.2273077 L88.1506122,46.8829487 L85.3063946,46.8829487 L84.7891497,48.2273077 C84.6444218,48.6029744 84.2303741,48.9208462 83.792415,48.9208462 C83.4047959,48.9208462 83.0612245,48.635641 83.0612245,48.2486667 C83.0612245,48.0187436 83.1984014,47.7888205 83.4047959,47.7096667 C83.4840816,47.6895641 83.5545578,47.6895641 83.5759524,47.6116667 L86.0161905,41.4125385 C86.1332313,41.1047179 86.4314966,40.9489231 86.7285034,40.9489231 C87.0255102,40.9489231 87.3111905,41.1047179 87.4382993,41.4125385 L89.8810544,47.6116667 L89.8810544,47.6116667 Z M87.7705442,45.6918718 L87.0255102,43.8047436 L86.7285034,42.9126923 L86.7146599,42.9126923 L86.4176531,43.8160513 L85.6852041,45.6918718 L87.7705442,45.6918718 L87.7705442,45.6918718 Z" id="Fill-5"></path>
                    <path d="M101.152211,47.5991026 C101.518435,47.5991026 101.839354,47.9094359 101.839354,48.2612308 C101.839354,48.6130256 101.53102,48.9208462 101.152211,48.9208462 L96.7751361,48.9208462 C96.4063946,48.9208462 96.0842177,48.6255897 96.0842177,48.2612308 C96.0842177,48.0426154 96.1773469,47.8415897 96.3711565,47.7435897 C96.4290476,47.7096667 96.4869388,47.6757436 96.4869388,47.6217179 L96.4869388,42.3284615 C96.4869388,42.2744359 96.4290476,42.2392564 96.3711565,42.2191538 C96.1773469,42.1098462 96.0842177,41.9088205 96.0842177,41.6889487 C96.0842177,41.3472051 96.4063946,41.0481795 96.7751361,41.0481795 C96.9815306,41.0481795 97.2193878,41.0934103 97.3792177,41.1926667 C97.6787415,41.3911795 97.8637415,41.7090513 97.8637415,42.0407436 L97.8637415,47.2473077 C97.8637415,47.4784872 97.8385714,47.5237179 97.7920068,47.5991026 L101.152211,47.5991026" id="Fill-6"></path>
                    <path d="M110.301531,42.3736923 L110.301531,48.2612308 C110.301531,48.6255897 109.994456,48.9208462 109.613129,48.9208462 C109.22551,48.9208462 108.915918,48.6255897 108.915918,48.2612308 L108.915918,42.3736923 L106.692143,42.3736923 C106.302007,42.3736923 105.991156,42.0972821 105.991156,41.7216154 C105.991156,41.3585128 106.302007,41.0481795 106.692143,41.0481795 L112.536633,41.0481795 C112.916701,41.0481795 113.227551,41.3585128 113.227551,41.7216154 C113.227551,42.0972821 112.916701,42.3736923 112.536633,42.3736923 L110.301531,42.3736923" id="Fill-7"></path>
                    <path d="M123.776327,41.5570256 C123.936156,41.2705641 124.257075,41.0607436 124.624558,41.0481795 L124.669864,41.0481795 C125.092721,41.0481795 125.528163,41.3358974 125.528163,41.7882051 C125.528163,42.0972821 125.323027,42.4051026 124.980714,42.4051026 C124.90898,42.4051026 124.843537,42.4051026 124.818367,42.4490769 L122.847551,45.7345897 L122.847551,48.2712821 C122.847551,48.6255897 122.549286,48.9208462 122.170476,48.9208462 C121.791667,48.9208462 121.497177,48.6255897 121.497177,48.2712821 L121.497177,45.7345897 L119.521327,42.4490769 C119.50119,42.4051026 119.431973,42.4051026 119.360238,42.4051026 C119.019184,42.4051026 118.811531,42.0972821 118.811531,41.7882051 C118.811531,41.3358974 119.245714,41.0481795 119.671088,41.0481795 L119.717653,41.0481795 C120.083878,41.0607436 120.406054,41.2705641 120.563367,41.5570256 L121.897381,43.8047436 L122.157891,44.3801795 L122.170476,44.3801795 L122.446088,43.8047436 L123.776327,41.5570256" id="Fill-8"></path>
                </g>
            </g>
        </g>
    </g>
</svg>