<?xml version="1.0" encoding="UTF-8" standalone="no"?>
<svg width="150px" height="26px" viewBox="0 0 150 26" version="1.1" xmlns="http://www.w3.org/2000/svg" xmlns:xlink="http://www.w3.org/1999/xlink" xmlns:sketch="http://www.bohemiancoding.com/sketch/ns">
    <!-- Generator: Sketch 3.4.4 (17249) - http://www.bohemiancoding.com/sketch -->
    <title>Fill 16 + Group 2</title>
    <desc>Created with Sketch.</desc>
    <defs></defs>
    <g id="Page-1" stroke="none" stroke-width="1" fill="none" fill-rule="evenodd" sketch:type="MSPage">
        <g id="STICKY-MENU" sketch:type="MSArtboardGroup" transform="translate(-25.000000, -15.000000)" fill="#F9E35F">
            <g id="Fill-16-+-Group-2" sketch:type="MSLayerGroup" transform="translate(25.000000, 15.000000)">
                <g id="Group" sketch:type="MSShapeGroup">
                    <path d="M13.5520408,22.4011667 C13.0020408,22.4011667 11.805102,22.246 9.5377551,22.246 C7.08571429,22.246 4.54183673,22.3695208 2.39591837,22.3695208 C0.832653061,22.3695208 0.341836735,21.9081042 0.341836735,21.4181042 C0.341836735,21.2956042 0.373469388,21.1731042 0.433673469,21.051625 C0.832653061,20.1614583 8.34183673,5.90245833 8.58571429,1.82525 C8.71020408,1.02695833 9.78163265,0.353208333 12.2346939,0.353208333 C14.1061224,0.353208333 16.0663265,0.5359375 16.0663265,1.60883333 C16.0663265,1.76297917 16.0367347,1.917125 15.9438776,2.09985417 C15.6061224,2.835875 8.98367347,16.0822083 8.98367347,17.003 C8.98367347,17.67675 9.9377551,17.7390208 10.5479592,17.7390208 C14.5336735,17.7390208 15.1479592,14.1824375 16.1265306,14.1824375 C16.4336735,14.1824375 17.8755102,14.3968125 17.8755102,15.931125 C17.8755102,17.5858958 15.7295918,22.4011667 13.5520408,22.4011667" id="Fill-9"></path>
                    <path d="M24.4336735,17.9533958 C24.4336735,19.0885625 25.7530612,19.4254375 27.4683673,19.4254375 C30.0132653,19.4254375 30.5663265,18.6883958 30.9642857,18.6883958 C31.2081633,18.6883958 31.3642857,18.8425417 31.3642857,19.0569167 C31.3642857,19.9470833 30.6591837,20.9587292 30.1061224,21.5099792 C28.9418367,22.6767917 27.5010204,23.1371875 24.9877551,23.1371875 C20.2377551,23.1371875 18.6418367,20.4381042 18.6418367,17.7390208 C18.6418367,14.4886875 21.0642857,7.52966667 29.677551,7.52966667 C31.1795918,7.52966667 34.3663265,8.17177083 34.3663265,11.2689792 C34.3663265,15.4084583 29.8918367,17.7390208 24.6479592,17.7390208 C24.4979592,17.7390208 24.4336735,17.9533958 24.4336735,17.9533958 L24.4336735,17.9533958 Z M28.2357143,11.0535833 C26.3030612,11.0535833 25.0173469,13.0166458 25.0173469,13.9364167 C25.0173469,14.2130625 25.2010204,14.2426667 25.5387755,14.2426667 C27.655102,14.2426667 29.3397959,13.29125 29.3397959,11.851875 C29.3397959,11.2689792 28.8479592,11.0535833 28.2357143,11.0535833 L28.2357143,11.0535833 Z" id="Fill-10"></path>
                    <path d="M59.6540816,10.8402292 C59.6540816,13.4474375 54.8091837,21.725375 54.0418367,24.6082083 C53.9806122,24.8848542 53.9193878,25.1911042 52.9683673,25.1911042 C51.1928571,25.1911042 49.7510204,23.6884375 49.7510204,22.4920208 C49.7510204,20.1920833 53.3408163,14.8255625 53.3408163,13.3841458 C53.3408163,12.9257917 53.0938776,12.6175 52.4193878,12.6175 C49.9969388,12.6175 48.1265306,17.9237917 46.8714286,20.4381042 C46.2602041,21.69475 44.727551,21.9081042 43.0397959,21.9081042 C41.3846939,21.9081042 40.8959184,21.5426458 40.8959184,21.0812292 C40.8959184,20.9281042 40.9571429,20.806625 41.0173469,20.6524792 C41.5704082,19.5173125 44.4489796,14.4284583 44.4489796,13.2626667 C44.4489796,12.893125 44.1438776,12.586875 43.5306122,12.586875 C40.8663265,12.586875 37.5234694,20.806625 37.5234694,20.806625 C37.0010204,21.8795208 35.6244898,22.246 33.9693878,22.246 C32.1908163,22.246 31.5755102,21.8795208 31.5755102,21.44975 C31.5755102,21.357875 31.6081633,21.2649792 31.6683673,21.1435 C32.3428571,19.8235625 34.4591837,15.6840833 35.9581633,12.3428958 C37.1244898,9.73466667 37.6132653,8.17177083 37.6132653,6.39347917 C37.6132653,5.19808333 37.3377551,4.7989375 37.3377551,4.52127083 C37.3377551,4.12416667 37.8285714,4.03229167 38.5959184,4.03229167 C40.527551,4.03229167 43.0714286,5.19808333 43.0714286,7.18972917 C43.0714286,8.35654167 42.6122449,9.2456875 42.6122449,9.51927083 C42.6122449,9.5825625 42.6418367,9.6131875 42.7040816,9.6131875 C42.7642857,9.6131875 42.8285714,9.6131875 42.9173469,9.55091667 C42.9173469,9.55091667 44.5122449,7.74302083 47.1469388,7.74302083 C48.0673469,7.74302083 49.6602041,7.77364583 50.0602041,9.64483333 C50.0602041,9.64483333 50.0897959,9.85920833 50.2438776,9.85920833 C50.305102,9.85920833 50.3959184,9.82654167 50.4887755,9.70608333 C50.4887755,9.70608333 52.6040816,7.62052083 55.9132653,7.62052083 C56.8653061,7.62052083 59.6540816,7.98802083 59.6540816,10.8402292 Z" id="Fill-11"></path>
                    <path d="M65.7234694,22.9207708 C64.1285714,22.9207708 59.2877551,22.3082708 59.2877551,17.4021458 C59.2877551,13.9364167 62.0459184,7.37552083 71.6408163,7.37552083 C73.6326531,7.37552083 76.5142857,7.95841667 76.5142857,8.78529167 C76.5142857,9.2763125 75.7469388,10.0725625 75.255102,10.4410833 C75.0744898,10.5942083 74.9816327,10.7167083 74.9816327,10.7473333 C74.9816327,11.0852292 76.1744898,11.6058542 76.1744898,14.0293125 C76.1744898,18.197375 72.6214286,22.9207708 65.7234694,22.9207708 L65.7234694,22.9207708 Z M69.4642857,11.3302292 C66.6459184,11.3302292 64.7438776,15.1634583 64.7438776,17.4021458 C64.7438776,18.9956667 65.6336735,19.3325417 66.4908163,19.3325417 C69.3102041,19.3325417 70.9367347,15.4686875 70.9367347,13.3239167 C70.9367347,11.82125 70.2612245,11.3302292 69.4642857,11.3302292 L69.4642857,11.3302292 Z" id="Fill-12"></path>
                    <path d="M80.8357143,20.776 C80.1938776,21.9713958 78.9071429,22.246 77.2520408,22.246 C75.4734694,22.246 74.8612245,21.8795208 74.8612245,21.4181042 C74.8612245,21.3282708 74.8908163,21.2363958 74.9510204,21.112875 C75.5959184,19.7633333 77.7428571,15.6544792 79.244898,12.31125 C80.4091837,9.70608333 80.9010204,8.14216667 80.9010204,6.36183333 C80.9010204,5.59620833 80.7755102,5.1358125 80.655102,4.67541667 C80.655102,4.6151875 80.6234694,4.5845625 80.6234694,4.52127083 C80.6234694,4.0945625 81.1153061,4.03229167 81.8795918,4.03229167 C83.8132653,4.03229167 86.355102,5.16541667 86.355102,7.160125 C86.355102,8.29529167 85.9561224,9.12216667 85.9561224,9.39779167 C85.9561224,9.4600625 85.9561224,9.4906875 86.0183673,9.4906875 C86.0795918,9.4906875 86.1693878,9.4600625 86.2938776,9.36716667 C86.2938776,9.36716667 88.5632653,7.46535417 91.0755102,7.46535417 C92.5469388,7.46535417 94.6622449,7.77364583 94.6622449,10.5942083 C94.6622449,13.2310208 90.1244898,20.3625625 89.0183673,24.3172708 L89.0183673,24.3785208 C88.9571429,24.6245417 88.8959184,24.9011875 87.9469388,24.9011875 C86.1387755,24.9011875 84.6989796,23.3975 84.6989796,22.1725 C84.6989796,19.9021667 88.255102,14.7959583 88.255102,13.3545417 C88.255102,12.893125 88.1326531,12.403125 87.3061224,12.403125 C83.9928571,12.403125 81.4510204,19.6102083 80.8357143,20.776" id="Fill-13"></path>
                    <path d="M112.137755,4.5845625 C111.613265,5.10416667 110.971429,5.10416667 110.327551,5.10416667 C109.5,5.10416667 108.947959,4.9826875 108.486735,4.9826875 C108.152041,4.9826875 107.905102,5.0439375 107.689796,5.25933333 C106.281633,6.670125 100.640816,19.6704375 99.9979592,21.2649792 C99.3530612,22.7686667 96.8408163,23.0136667 94.8173469,23.0136667 C93.222449,23.0136667 92.4571429,22.4317917 92.4571429,21.93975 C92.4571429,21.847875 92.4897959,21.7570208 92.55,21.664125 C92.7020408,21.44975 100.578571,6.69972917 100.578571,5.32058333 C100.578571,5.07660417 99.9663265,4.9826875 99.2316327,4.9826875 C98.2816327,4.9826875 97.1163265,5.1358125 96.6857143,5.28995833 C96.5642857,5.3501875 96.4408163,5.3501875 96.3489796,5.3501875 C96.1336735,5.3501875 96.0132653,5.2276875 96.0132653,4.89183333 C96.0132653,4.6151875 96.3795918,2.95735417 98.127551,1.21070833 C98.8020408,0.5359375 99.6306122,0.353208333 101.192857,0.353208333 C104.012245,0.353208333 106.126531,0.691104167 107.905102,0.691104167 C113.145918,0.691104167 113.393878,0.322583333 113.669388,0.322583333 C113.729592,0.322583333 114.033673,0.322583333 114.033673,0.720708333 C114.033673,2.162125 112.686735,4.0639375 112.137755,4.5845625" id="Fill-14"></path>
                    <path d="M117.161224,14.2426667 C116.428571,14.2426667 116.977551,12.9860208 115.291837,12.9860208 C111.982653,12.9860208 109.65102,20.0399792 109.040816,21.20475 C108.394898,22.4011667 107.137755,22.6767917 105.483673,22.6767917 C103.706122,22.6767917 103.094898,22.337875 103.094898,21.8795208 C103.094898,21.786625 103.123469,21.664125 103.185714,21.5426458 C103.706122,20.5299792 105.208163,17.4633958 106.495918,14.7643125 C107.844898,11.9427292 109.191837,8.9088125 109.191837,7.31222917 L109.191837,7.06825 C109.191837,6.69972917 109.284694,6.45370833 110.266327,6.45370833 C111.860204,6.45370833 114.188776,6.76097917 114.188776,8.60154167 C114.188776,8.9394375 114.036735,9.30591667 114.036735,9.4600625 C114.036735,9.64483333 114.220408,9.55091667 114.406122,9.39779167 C114.559184,9.2456875 116.428571,7.86654167 118.326531,7.86654167 C119.430612,7.86654167 119.919388,8.4800625 119.919388,9.39779167 C119.919388,11.913125 118.266327,14.2426667 117.161224,14.2426667" id="Fill-15"></path>
                    <path d="M139.970408,17.9533958 C139.970408,19.0885625 141.289796,19.4254375 143.005102,19.4254375 C145.55,19.4254375 146.102041,18.6883958 146.49898,18.6883958 C146.744898,18.6883958 146.897959,18.8425417 146.897959,19.0569167 C146.897959,19.9470833 146.193878,20.9587292 145.641837,21.5099792 C144.47551,22.6767917 143.034694,23.1371875 140.523469,23.1371875 C135.771429,23.1371875 134.178571,20.4381042 134.178571,17.7390208 C134.178571,14.4886875 136.6,7.52966667 145.213265,7.52966667 C146.714286,7.52966667 149.90102,8.17177083 149.90102,11.2689792 C149.90102,15.4084583 145.427551,17.7390208 140.185714,17.7390208 C140.031633,17.7390208 139.970408,17.9533958 139.970408,17.9533958 L139.970408,17.9533958 Z M143.772449,11.0535833 C141.838776,11.0535833 140.553061,13.0166458 140.553061,13.9364167 C140.553061,14.2130625 140.736735,14.2426667 141.073469,14.2426667 C143.188776,14.2426667 144.87551,13.29125 144.87551,11.851875 C144.87551,11.2689792 144.386735,11.0535833 143.772449,11.0535833 L143.772449,11.0535833 Z" id="Fill-17"></path>
                    <path d="M124.55,17.9533958 C124.55,19.0885625 125.869388,19.4254375 127.584694,19.4254375 C130.128571,19.4254375 130.681633,18.6883958 131.079592,18.6883958 C131.326531,18.6883958 131.477551,18.8425417 131.477551,19.0569167 C131.477551,19.9470833 130.773469,20.9587292 130.222449,21.5099792 C129.057143,22.6767917 127.616327,23.1371875 125.104082,23.1371875 C120.352041,23.1371875 118.759184,20.4381042 118.759184,17.7390208 C118.759184,14.4886875 121.179592,7.52966667 129.791837,7.52966667 C131.292857,7.52966667 134.480612,8.17177083 134.480612,11.2689792 C134.480612,15.4084583 130.007143,17.7390208 124.764286,17.7390208 C124.612245,17.7390208 124.55,17.9533958 124.55,17.9533958 L124.55,17.9533958 Z M128.353061,11.0535833 C126.419388,11.0535833 125.132653,13.0166458 125.132653,13.9364167 C125.132653,14.2130625 125.317347,14.2426667 125.655102,14.2426667 C127.769388,14.2426667 129.457143,13.29125 129.457143,11.851875 C129.457143,11.2689792 128.964286,11.0535833 128.353061,11.0535833 L128.353061,11.0535833 Z" id="Fill-16"></path>
                </g>
            </g>
        </g>
    </g>
</svg>