<?xml version="1.0" encoding="UTF-8" standalone="no"?>
<svg width="185px" height="31px" viewBox="0 0 185 31" version="1.1" xmlns="http://www.w3.org/2000/svg" xmlns:xlink="http://www.w3.org/1999/xlink" xmlns:sketch="http://www.bohemiancoding.com/sketch/ns">
    <!-- Generator: Sketch 3.4.1 (15681) - http://www.bohemiancoding.com/sketch -->
    <title>Group</title>
    <desc>Created with Sketch.</desc>
    <defs></defs>
    <g id="Page-1" stroke="none" stroke-width="1" fill="none" fill-rule="evenodd" sketch:type="MSPage">
        <g id="COMMUNITY-LIST" sketch:type="MSArtboardGroup" transform="translate(-42.000000, -43.000000)" fill="#F9E35F">
            <g id="Group" sketch:type="MSLayerGroup">
                <g transform="translate(42.000000, 43.000000)" sketch:type="MSShapeGroup">
                    <g>
                        <path d="M16.7141837,27.5706667 C16.0358503,27.5706667 14.5596259,27.3796923 11.7632313,27.3796923 C8.73904762,27.3796923 5.60159864,27.5317179 2.95496599,27.5317179 C1.02693878,27.5317179 0.421598639,26.9638205 0.421598639,26.3607436 C0.421598639,26.2099744 0.460612245,26.0592051 0.534863946,25.9096923 C1.02693878,24.8141026 10.2882653,7.2645641 10.5890476,2.24646154 C10.742585,1.26394872 12.0640136,0.434717949 15.0894558,0.434717949 C17.397551,0.434717949 19.8151361,0.659615385 19.8151361,1.98010256 C19.8151361,2.16982051 19.7786395,2.35953846 19.6641156,2.5844359 C19.247551,3.49030769 11.0798639,19.7934872 11.0798639,20.9267692 C11.0798639,21.756 12.2565646,21.832641 13.0091497,21.832641 C17.9248639,21.832641 18.682483,17.4553077 19.8893878,17.4553077 C20.2681973,17.4553077 22.0464626,17.7191538 22.0464626,19.6075385 C22.0464626,21.6441795 19.3998299,27.5706667 16.7141837,27.5706667" id="Fill-9"></path>
                        <path d="M30.1348639,22.0964872 C30.1348639,23.4936154 31.7621088,23.9082308 33.8776531,23.9082308 C37.0163605,23.9082308 37.6984694,23.0011026 38.1892857,23.0011026 C38.490068,23.0011026 38.682619,23.1908205 38.682619,23.4546667 C38.682619,24.5502564 37.8129932,25.795359 37.1308844,26.4738205 C35.694932,27.9098974 33.9179252,28.4765385 30.8182313,28.4765385 C24.959898,28.4765385 22.9915986,25.1545897 22.9915986,21.832641 C22.9915986,17.8322308 25.9792857,9.26728205 36.6023129,9.26728205 C38.4548299,9.26728205 42.3851361,10.0575641 42.3851361,13.8695128 C42.3851361,18.9642564 36.8665986,21.832641 30.3991497,21.832641 C30.2141497,21.832641 30.1348639,22.0964872 30.1348639,22.0964872 L30.1348639,22.0964872 Z M34.8240476,13.6044103 C32.4404422,13.6044103 30.8547279,16.0204872 30.8547279,17.1525128 C30.8547279,17.493 31.0812585,17.5294359 31.4978231,17.5294359 C34.1079592,17.5294359 36.1857483,16.3584615 36.1857483,14.5869231 C36.1857483,13.8695128 35.5791497,13.6044103 34.8240476,13.6044103 L34.8240476,13.6044103 Z" id="Fill-10"></path>
                        <path d="M73.5733673,13.3418205 C73.5733673,16.5506923 67.5979932,26.7389231 66.6515986,30.2870256 C66.5760884,30.6275128 66.5005782,31.0044359 65.3276531,31.0044359 C63.1378571,31.0044359 61.3595918,29.155 61.3595918,27.6824872 C61.3595918,24.8517949 65.7870068,18.2468462 65.7870068,16.4727949 C65.7870068,15.9086667 65.482449,15.5292308 64.6505782,15.5292308 C61.6628912,15.5292308 59.3560544,22.0600513 57.8080952,25.1545897 C57.0542517,26.7012308 55.1639796,26.9638205 53.082415,26.9638205 C51.0411224,26.9638205 50.4382993,26.5140256 50.4382993,25.9461282 C50.4382993,25.7576667 50.5138095,25.6081538 50.5880612,25.4184359 C51.2701701,24.0213077 54.8204082,17.7581026 54.8204082,16.3232821 C54.8204082,15.8684615 54.4441156,15.4915385 53.6877551,15.4915385 C50.4018027,15.4915385 46.2789456,25.6081538 46.2789456,25.6081538 C45.6345918,26.928641 43.9368707,27.3796923 41.8955782,27.3796923 C39.7020068,27.3796923 38.9431293,26.928641 38.9431293,26.3996923 C38.9431293,26.2866154 38.9834014,26.1722821 39.0576531,26.0227692 C39.8895238,24.3982308 42.4996599,19.3034872 44.3484014,15.1912564 C45.7868707,11.9811282 46.3896939,10.0575641 46.3896939,7.86889744 C46.3896939,6.39764103 46.049898,5.90638462 46.049898,5.56464103 C46.049898,5.07589744 46.6552381,4.96282051 47.6016327,4.96282051 C49.9839796,4.96282051 53.1214286,6.39764103 53.1214286,8.84889744 C53.1214286,10.2849744 52.555102,11.3793077 52.555102,11.7160256 C52.555102,11.7939231 52.5915986,11.8316154 52.6683673,11.8316154 C52.742619,11.8316154 52.8219048,11.8316154 52.9313946,11.7549744 C52.9313946,11.7549744 54.8984354,9.52987179 58.1478912,9.52987179 C59.2830612,9.52987179 61.247585,9.5675641 61.7409184,11.8705641 C61.7409184,11.8705641 61.777415,12.1344103 61.967449,12.1344103 C62.0429592,12.1344103 62.154966,12.0942051 62.2694898,11.9459487 C62.2694898,11.9459487 64.8783673,9.37910256 68.9596939,9.37910256 C70.1338776,9.37910256 73.5733673,9.83141026 73.5733673,13.3418205 Z" id="Fill-11"></path>
                        <path d="M81.0589456,28.2101795 C79.0919048,28.2101795 73.1215646,27.4563333 73.1215646,21.4180256 C73.1215646,17.1525128 76.5232993,9.0775641 88.3570068,9.0775641 C90.8136054,9.0775641 94.367619,9.79497436 94.367619,10.8126667 C94.367619,11.417 93.4212245,12.397 92.8146259,12.8505641 C92.5918707,13.0390256 92.4773469,13.1897949 92.4773469,13.2274872 C92.4773469,13.643359 93.9485374,14.2841282 93.9485374,17.2668462 C93.9485374,22.3967692 89.5664286,28.2101795 81.0589456,28.2101795 L81.0589456,28.2101795 Z M85.672619,13.9448974 C82.1966327,13.9448974 79.8507823,18.6627179 79.8507823,21.4180256 C79.8507823,23.3792821 80.9481973,23.7938974 82.0053401,23.7938974 C85.482585,23.7938974 87.4886395,19.0383846 87.4886395,16.3986667 C87.4886395,14.5492308 86.6555102,13.9448974 85.672619,13.9448974 L85.672619,13.9448974 Z" id="Fill-12"></path>
                        <path d="M99.697381,25.5704615 C98.9057823,27.0417179 97.3188095,27.3796923 95.277517,27.3796923 C93.0839456,27.3796923 92.3288435,26.928641 92.3288435,26.3607436 C92.3288435,26.2501795 92.3653401,26.1371026 92.4395918,25.9850769 C93.234966,24.3241026 95.8828571,19.2670513 97.7353741,15.1523077 C99.1713265,11.9459487 99.7779252,10.0211282 99.7779252,7.82994872 C99.7779252,6.88764103 99.6231293,6.321 99.4746259,5.75435897 C99.4746259,5.68023077 99.4356122,5.64253846 99.4356122,5.56464103 C99.4356122,5.03946154 100.042211,4.96282051 100.98483,4.96282051 C103.369694,4.96282051 106.504626,6.3574359 106.504626,8.81246154 C106.504626,10.2095897 106.012551,11.2272821 106.012551,11.5665128 C106.012551,11.6431538 106.012551,11.6808462 106.08932,11.6808462 C106.16483,11.6808462 106.275578,11.6431538 106.429116,11.5288205 C106.429116,11.5288205 109.228027,9.18812821 112.326463,9.18812821 C114.141224,9.18812821 116.750102,9.5675641 116.750102,13.0390256 C116.750102,16.2843333 111.153537,25.0616154 109.78932,29.9289487 L109.78932,30.0043333 C109.71381,30.3071282 109.638299,30.6476154 108.467891,30.6476154 C106.237823,30.6476154 104.462075,28.7969231 104.462075,27.2892308 C104.462075,24.4949744 108.847959,18.2104103 108.847959,16.436359 C108.847959,15.8684615 108.696939,15.2653846 107.677551,15.2653846 C103.59119,15.2653846 100.456259,24.135641 99.697381,25.5704615" id="Fill-13"></path>
                        <path d="M138.303231,5.64253846 C137.656361,6.28205128 136.864762,6.28205128 136.070646,6.28205128 C135.05,6.28205128 134.36915,6.13253846 133.800306,6.13253846 C133.387517,6.13253846 133.082959,6.20792308 132.817415,6.47302564 C131.08068,8.20938462 124.123673,24.2097692 123.330816,26.1722821 C122.535442,28.0229744 119.437007,28.3245128 116.941395,28.3245128 C114.974354,28.3245128 114.030476,27.608359 114.030476,27.0027692 C114.030476,26.8896923 114.070748,26.7778718 114.145,26.6635385 C114.332517,26.3996923 124.046905,8.24582051 124.046905,6.54841026 C124.046905,6.24812821 123.291803,6.13253846 122.38568,6.13253846 C121.214014,6.13253846 119.776803,6.321 119.245714,6.51071795 C119.095952,6.58484615 118.943673,6.58484615 118.830408,6.58484615 C118.564864,6.58484615 118.416361,6.43407692 118.416361,6.02071795 C118.416361,5.68023077 118.868163,3.63982051 121.02398,1.49010256 C121.85585,0.659615385 122.877755,0.434717949 124.804524,0.434717949 C128.281769,0.434717949 130.889388,0.850589744 133.082959,0.850589744 C139.546633,0.850589744 139.852449,0.397025641 140.192245,0.397025641 C140.266497,0.397025641 140.641531,0.397025641 140.641531,0.887025641 C140.641531,2.66107692 138.980306,5.00176923 138.303231,5.64253846" id="Fill-14"></path>
                        <path d="M144.498844,17.5294359 C143.595238,17.5294359 144.272313,15.9827949 142.193265,15.9827949 C138.111939,15.9827949 135.236259,24.6645897 134.483673,26.0981538 C133.687041,27.5706667 132.136565,27.9098974 130.096531,27.9098974 C127.904218,27.9098974 127.150374,27.4927692 127.150374,26.928641 C127.150374,26.8143077 127.185612,26.6635385 127.262381,26.5140256 C127.904218,25.2676667 129.756735,21.4934103 131.344966,18.1714615 C133.008707,14.6987436 134.669932,10.9646923 134.669932,8.99966667 L134.669932,8.69938462 C134.669932,8.24582051 134.784456,7.94302564 135.995136,7.94302564 C137.960918,7.94302564 140.832823,8.32120513 140.832823,10.5865128 C140.832823,11.0023846 140.645306,11.4534359 140.645306,11.6431538 C140.645306,11.8705641 140.871837,11.7549744 141.100884,11.5665128 C141.28966,11.3793077 143.595238,9.68189744 145.936054,9.68189744 C147.297755,9.68189744 147.900578,10.437 147.900578,11.5665128 C147.900578,14.6623077 145.861803,17.5294359 144.498844,17.5294359" id="Fill-15"></path>
                        <path d="M172.63017,22.0964872 C172.63017,23.4936154 174.257415,23.9082308 176.372959,23.9082308 C179.511667,23.9082308 180.192517,23.0011026 180.682075,23.0011026 C180.985374,23.0011026 181.17415,23.1908205 181.17415,23.4546667 C181.17415,24.5502564 180.305782,25.795359 179.624932,26.4738205 C178.186463,27.9098974 176.409456,28.4765385 173.312279,28.4765385 C167.451429,28.4765385 165.486905,25.1545897 165.486905,21.832641 C165.486905,17.8322308 168.473333,9.26728205 179.096361,9.26728205 C180.947619,9.26728205 184.877925,10.0575641 184.877925,13.8695128 C184.877925,18.9642564 179.360646,21.832641 172.895714,21.832641 C172.70568,21.832641 172.63017,22.0964872 172.63017,22.0964872 L172.63017,22.0964872 Z M177.319354,13.6044103 C174.93449,13.6044103 173.348776,16.0204872 173.348776,17.1525128 C173.348776,17.493 173.575306,17.5294359 173.990612,17.5294359 C176.59949,17.5294359 178.679796,16.3584615 178.679796,14.5869231 C178.679796,13.8695128 178.076973,13.6044103 177.319354,13.6044103 L177.319354,13.6044103 Z" id="Fill-17"></path>
                    </g>
                </g>
            </g>
        </g>
    </g>
</svg>