<?xml version="1.0" encoding="UTF-8" standalone="no"?>
<svg width="32px" height="31px" viewBox="0 0 32 31" version="1.1" xmlns="http://www.w3.org/2000/svg" xmlns:xlink="http://www.w3.org/1999/xlink" xmlns:sketch="http://www.bohemiancoding.com/sketch/ns">
    <!-- Generator: Sketch 3.4.1 (15681) - http://www.bohemiancoding.com/sketch -->
    <title>facebook</title>
    <desc>Created with Sketch.</desc>
    <defs></defs>
    <g id="Page-1" stroke="none" stroke-width="1" fill="none" fill-rule="evenodd" sketch:type="MSPage">
        <g id="BUY-A-HOME" sketch:type="MSArtboardGroup" transform="translate(-479.000000, -2246.000000)" fill="#707070">
            <g id="Imported-Layers-+-Fill-1-+-Fill-2-+-Fill-2" sketch:type="MSLayerGroup" transform="translate(289.500000, 1942.416508)">
                <g id="Fill-1-+-Fill-2-+-Fill-2" transform="translate(189.500000, 303.000000)" sketch:type="MSShapeGroup">
                    <path d="M0.838430065,15.8405981 C0.838430065,24.1250301 7.68929696,30.8408786 16.1402828,30.8408786 C24.5912686,30.8408786 31.4415632,24.1250301 31.4415632,15.8405981 C31.4415632,7.55672715 24.5912686,0.840878618 16.1402828,0.840878618 C7.68929696,0.840878618 0.838430065,7.55672715 0.838430065,15.8405981 Z M20.5789532,9.73288423 L18.4311541,9.73288423 C18.0065159,9.73288423 17.5767272,10.1687889 17.5767272,10.4919305 L17.5767272,12.6563064 L20.5743749,12.6563064 C20.4541943,14.3163344 20.2063933,15.834427 20.2063933,15.834427 L17.5612754,15.834427 L17.5612754,25.2431227 L13.6199238,25.2431227 L13.6199238,15.834427 L11.7010401,15.834427 L11.7010401,12.6686486 L13.6199238,12.6686486 L13.6199238,10.0795883 C13.6199238,9.60609601 13.5226347,6.43695155 17.6585645,6.43695155 L20.5789532,6.43695155 L20.5789532,9.73288423 L20.5789532,9.73288423 Z" id="facebook"></path>
                </g>
            </g>
        </g>
    </g>
</svg>