<?xml version="1.0" encoding="UTF-8" standalone="no"?>
<svg width="30px" height="30px" viewBox="0 0 470 472" version="1.1" xmlns="http://www.w3.org/2000/svg" xmlns:xlink="http://www.w3.org/1999/xlink" xmlns:sketch="http://www.bohemiancoding.com/sketch/ns">
    <!-- Generator: Sketch 3.4.4 (17249) - http://www.bohemiancoding.com/sketch -->
    <title>instagram</title>
    <desc>Created with Sketch.</desc>
    <defs></defs>
    <g id="Page-1" stroke="none" stroke-width="1" fill="none" fill-rule="evenodd" sketch:type="MSPage">
        <g id="instagram" sketch:type="MSLayerGroup" transform="translate(-16.000000, 0.000000)" fill="#707070">
            <path d="M249.278,471.69 C212.596,471.698 175.909,472.03 139.231,471.629 C66.178,470.826 17.1,421.514 16.904,348.761 C16.701,274.109 16.726,199.454 16.895,124.803 C17.063,51.006 66.762,1.168 140.514,0.949 C214.522,0.729 288.534,0.691 362.541,0.959 C436.285,1.229 485.532,51.117 485.567,125.089 C485.605,199.741 485.636,274.397 485.561,349.049 C485.485,421.024 437.031,470.545 365.119,471.585 C326.514,472.145 287.893,471.683 249.278,471.69 L249.278,471.69 Z M356.388,202.423 C372.707,256.605 365.785,304.002 319.468,338.631 C284.072,365.091 243.598,368.85 204.678,348.397 C144.764,316.906 132.648,264.603 150.374,202.771 L60.697,202.771 C60.697,253.004 60.468,301.812 60.763,350.615 C61.032,395.45 89.712,427.716 134.177,428.579 C212.028,430.097 289.948,430.085 367.799,428.633 C413.578,427.781 441.562,395.887 441.729,349.515 C441.821,324.414 441.747,299.311 441.747,274.21 L441.747,202.424 C412.241,202.423 385.438,202.423 356.388,202.423 L356.388,202.423 Z M441.746,158.515 C441.746,145.041 441.771,134.804 441.74,124.564 C441.594,75.207 412.469,44.545 363.187,44.099 C288.549,43.424 213.9,43.8 139.255,44.016 C117.996,44.077 98.718,50.203 83.036,65.458 C56.142,91.619 59.385,124.095 62.257,158.632 C104.08,158.632 144.483,158.828 184.877,158.365 C189.558,158.31 194.351,154.875 198.834,152.52 C234.41,133.825 270.148,133.509 306.146,151.225 C311.302,153.761 316.525,158.114 321.768,158.194 C360.845,158.787 399.938,158.515 441.746,158.515 L441.746,158.515 Z M254.496,295.161 C278.979,294.741 300.08,273.663 300.259,249.437 C300.444,224.651 277.871,202.375 253.07,202.872 C227.646,203.38 206.937,225.378 207.841,250.916 C208.723,275.938 229.449,295.592 254.496,295.161 L254.496,295.161 Z" id="Shape" sketch:type="MSShapeGroup"></path>
            <path d="M374.462,136.604 C342.936,136.588 342.936,136.588 342.948,102.813 C342.96,70.411 342.96,70.411 376.337,70.425 C408.363,70.441 408.363,70.441 408.324,106.771 C408.292,136.616 408.292,136.616 374.462,136.604 L374.462,136.604 Z" id="Shape" sketch:type="MSShapeGroup"></path>
        </g>
    </g>
</svg>