<?xml version="1.0" encoding="UTF-8" standalone="no"?>
<svg width="31px" height="31px" viewBox="0 0 31 31" version="1.1" xmlns="http://www.w3.org/2000/svg" xmlns:xlink="http://www.w3.org/1999/xlink" xmlns:sketch="http://www.bohemiancoding.com/sketch/ns">
    <!-- Generator: Sketch 3.4.1 (15681) - http://www.bohemiancoding.com/sketch -->
    <title>vimeo</title>
    <desc>Created with Sketch.</desc>
    <defs></defs>
    <g id="Page-1" stroke="none" stroke-width="1" fill="none" fill-rule="evenodd" sketch:type="MSPage">
        <g id="CONTACT-US" sketch:type="MSArtboardGroup" transform="translate(-791.000000, -982.000000)" fill="#929292">
            <g id="Fill-1-+-Fill-2-+-Fill-2" sketch:type="MSLayerGroup" transform="translate(695.000000, 982.000000)">
                <path d="M112.825002,0.841323372 C103.62388,0.123084344 96.0004424,7.65304513 96.7274914,16.7437734 C97.2992214,23.8937165 103.16349,29.6863747 110.401134,30.2495269 C119.601143,30.9650162 127.220684,23.4367053 126.495305,14.3487267 C125.925245,7.19933364 120.06209,1.40612543 112.825002,0.841323372 L112.825002,0.841323372 Z M119.713597,12.1923598 C119.635102,13.8433196 118.467704,16.1025279 116.207506,18.9699844 C113.870483,21.9644802 111.889748,23.4614532 110.27198,23.4614532 C109.271035,23.4614532 108.420956,22.5474307 107.730649,20.7199359 C107.267475,19.045328 106.802631,17.3707202 106.341685,15.6944625 C105.827851,13.8680675 105.275049,12.955145 104.683278,12.955145 C104.558021,12.955145 104.106538,13.2202225 103.334953,13.7536772 L102.526069,12.7269144 C103.374479,11.9910769 104.209527,11.2546894 105.033998,10.5188519 C106.163541,9.55478369 107.01028,9.04662683 107.574773,8.99548117 C108.910294,8.86899191 109.731982,9.76981544 110.04262,11.6985017 C110.373856,13.780625 110.606,15.0741152 110.735154,15.5817221 C111.121503,17.3069256 111.544594,18.1709023 112.008881,18.1709023 C112.366839,18.1709023 112.905724,17.6126997 113.626649,16.4951945 C114.344791,15.3787893 114.730583,14.5291114 114.781243,13.944511 C114.884789,12.979343 114.49844,12.4981338 113.626649,12.4981338 C113.213021,12.4981338 112.789373,12.5872263 112.353478,12.7637613 C113.200217,10.0480918 114.817985,8.72930376 117.208451,8.80574728 C118.982651,8.85579303 119.817143,9.98594709 119.713597,12.1923598 L119.713597,12.1923598 Z" id="vimeo" sketch:type="MSShapeGroup"></path>
            </g>
        </g>
    </g>
</svg>